<?xml version="1.0" encoding="utf-8"?>
<!-- Generator: Adobe Illustrator 25.2.0, SVG Export Plug-In . SVG Version: 6.00 Build 0)  -->
<svg version="1.1" id="Layer_1" xmlns="http://www.w3.org/2000/svg" xmlns:xlink="http://www.w3.org/1999/xlink" x="0px" y="0px"
	 viewBox="0 0 512 512" style="enable-background:new 0 0 512 512;" xml:space="preserve">
<style type="text/css">
	.st0{fill:#FAA621;}
	.st1{fill:#444545;}
	.st2{fill:#D72638;}
	.st3{fill:#FFFFFF;}
	.st4{fill:none;}
</style>
<g>
	<circle class="st3" cx="256" cy="256" r="251"/>
	<g>
		<path class="st0" d="M124.06,174.13c-0.03,0.04-0.07,0.08-0.1,0.12c0.12,0.05,0.2,0.07,0.27-0.06
			C124.17,174.18,124.11,174.15,124.06,174.13z"/>
	</g>
	<g>
		<path class="st1" d="M262.11,310.29c0,9.64-1.33,18.38-3.98,26.2c-2.66,7.83-6.32,14.74-11,20.75
			c-4.68,6.01-10.27,11.18-16.77,15.51c-6.5,4.33-13.66,7.9-21.49,10.69c-7.83,2.8-16.18,4.86-25.05,6.18
			c-8.88,1.33-18.76,1.99-29.66,1.99H82.05c-4.61,0-8.49-1.36-11.63-4.09c-3.14-2.73-4.72-7.16-4.72-13.31V137.78
			c0-6.15,1.57-10.59,4.72-13.31c3.14-2.73,7.02-4.09,11.63-4.09h68.12c16.63,0,30.71,1.4,42.24,4.19
			c11.53,2.8,21.24,7.02,29.14,12.68c7.89,5.66,13.94,12.82,18.13,21.49c4.19,8.67,6.29,18.86,6.29,30.6
			c0,6.57-0.84,12.75-2.52,18.55c-1.68,5.8-4.12,11.08-7.34,15.83c-3.22,4.75-7.16,8.94-11.84,12.58
			c-4.68,3.64-10.03,6.57-16.04,8.8c7.68,1.4,14.78,3.85,21.28,7.34c6.5,3.49,12.16,8,16.98,13.52c4.82,5.52,8.63,11.98,11.42,19.39
			C260.71,292.75,262.11,301.07,262.11,310.29z M190.84,196.05c0-5.45-0.84-10.34-2.52-14.67c-1.68-4.33-4.19-7.93-7.55-10.79
			c-3.35-2.86-7.58-5.06-12.68-6.6c-5.1-1.54-11.91-2.31-20.44-2.31h-27.88v70.43h30.81c7.97,0,14.32-0.94,19.07-2.83
			c4.75-1.89,8.7-4.47,11.84-7.76c3.14-3.28,5.48-7.13,7.02-11.53C190.07,205.59,190.84,200.94,190.84,196.05z M204.88,312.18
			c0-6.29-1.05-11.91-3.14-16.87c-2.1-4.96-5.17-9.12-9.22-12.47c-4.05-3.35-9.22-5.94-15.51-7.76c-6.29-1.81-14.46-2.73-24.52-2.73
			h-32.7v77.14h39.83c7.68,0,14.15-0.8,19.39-2.41c5.24-1.61,9.78-3.98,13.62-7.13c3.84-3.14,6.85-7.05,9.01-11.74
			C203.8,323.53,204.88,318.19,204.88,312.18z"/>
		<g>
			<path class="st1" d="M416.18,296.11c-0.27,0.99-0.66,1.89-1.88,2.11c0,0-0.01,0-0.01,0c-1.61,1.33-2.64,1.41-4.75,0.36
				c-0.04,0.02-0.07,0.05-0.12,0.07c-0.46,0.21-1-0.16-1.54,0.28c0.19,1.11,1.1,1.71,1.88,2.39c0.43,0.38,1.14,0.51,1.16,1.25
				c0.02,0,0.03-0.01,0.05-0.01c0.72,0.82,1.69,0.06,2.49,0.39c0.01,0,0.01,0,0.02,0.01c-0.01-0.01-0.02-0.02-0.03-0.04
				c2.13-1.47,2.35-3.72,2.46-6.02C416.09,296.68,416.15,296.4,416.18,296.11z"/>
			<path class="st1" d="M415.68,253.37c-2.61-0.52-5.18-1.19-7.59-2.34c-0.56-0.27-1.02-0.58-1.72-0.08
				c-2.33,1.65-4.69,1.1-6.96-0.19c-3.56-2.03-6.02-4.87-7.26-8.18c-0.15,2.13-0.36,4.19-0.61,6.2c2.05,1.04,3.78,2.62,5.36,4.42
				c1.98,2.25,3.56,4.8,4.89,7.45c0.62,1.24,1.33,1.65,2.57,1.5c0.22-0.02,0.44-0.03,0.67-0.05c0,0,0,0,0,0
				c2.22-0.44,4.44-0.51,6.66,0.01c2.56,0.82,3,0.6,3.92-1.95c0.31-0.87,0.65-1.73,0.97-2.59c0,0,0,0,0,0c0,0,0,0,0,0
				c0.23-1.07,0.47-2.14,0.7-3.21c0,0,0,0,0,0C417.14,253.41,416.34,253.5,415.68,253.37z"/>
			<path class="st1" d="M415.98,271.33c0.57,0.31,1.19,0.26,1.81,0.28c0.38,0.01,0.76,0.07,1.12,0.17c0.23,0.09,0.47,0.17,0.68,0.28
				c0.2-0.02,0.39-0.08,0.54-0.27c1.97-2.54,4.37-2.59,7.01-1.32c-1.64-2.73-4.39-3.88-7.18-4.99c-1.43-0.57-3.05-0.7-4.31-1.7
				c-0.65,2.32-2.12,4.15-3.75,5.91C413.18,270.64,414.71,270.68,415.98,271.33z"/>
			<path class="st1" d="M357.88,297.81c0.72-0.46,1.48-0.84,2.25-1.22c0.36-0.19,0.68-0.44,0.97-0.73c0.53-0.54,1.19-0.91,1.84-1.27
				c0.73-0.43,1.42-0.93,2.1-1.43c1.11-0.78,2.22-1.57,3.3-2.4c-0.55,0.3-1.11,0.6-1.68,0.87c-0.44,0.21-0.89,0.42-1.34,0.62
				c-0.21,0.2-0.43,0.4-0.65,0.59c-0.87-0.05-0.96,1.26-1.89,1.1c-0.02,0.1-0.03,0.19-0.04,0.29c-0.51,0.38-1.02,0.75-1.53,1.13
				c-0.38,0.26-0.76,0.52-1.14,0.78c-1.11,0.31-2.13,0.82-3.03,1.54c-5.08,1.79-10.15,3.52-14.88,6.29
				c-3.28,1.92-5.2,4.88-7.66,7.45c-1.03,1.64-2.06,3.28-3.09,4.92c-0.1,0.29-0.22,0.56-0.36,0.83c0.21-0.25,0.41-0.5,0.62-0.74
				c2.63-3.65,6.33-6.06,9.94-8.56c0.24-0.17,0.53-0.22,0.83-0.22c0.09-0.41,0.43-0.66,0.78-0.88c3.19-2.08,6.41-4.11,9.72-6
				c0.72-0.42,1.5-1.07,2.45-0.45c0,0,0.01,0,0.01,0C355.32,298.57,357.03,298.6,357.88,297.81z"/>
			<path class="st1" d="M422.12,277.53c2.09-1.22,4.12-2.57,5.13-4.93c0.13-0.28,0.22-0.56,0.25-0.84
				c-0.05,0.11-0.12,0.22-0.22,0.33c-1.11,0.69-2.33,0.91-3.62,0.8c0,0,0,0,0,0c-1.05,0.44-2.16,0.22-3.25,0.25
				c-0.06,0.01-0.12,0.02-0.18,0.03c-0.3,0.88-0.54,1.81-1.4,2.35c0.1,0.16,0.19,0.34,0.13,0.52c-1.91,6.01-3.74,12.07-7.86,17.07
				c-0.12,0.15-0.27,0.26-0.43,0.37c-0.07,0.03-0.13,0.05-0.19,0.06c0.14,0.95-0.67,1.38-1.2,1.9c-0.83,0.82-1.27,1.47,0.22,1.99
				c0.23,0.08,0.34,0.32,0.37,0.58c1.32,0.25,2.64,0.57,3.85-0.31c-0.01-0.02-0.02-0.04-0.03-0.07c1.36-3.66,1.71-7.53,2.33-11.34
				C416.67,282.41,418.71,279.52,422.12,277.53z"/>
			<polygon class="st1" points="373.04,287.71 373.03,287.7 373.03,287.7 			"/>
			<path class="st1" d="M417.69,230.51c0.43-0.37,0.96-0.64,1.31-1.1c0.28-0.38,0.38-0.81,0.06-1.23c-0.29-0.37-0.68-0.28-1.05-0.14
				c-1.2,0.45-2.27,1.13-3.33,1.84c-0.62,0.41-1.24,0.85-2.01,0.96c-0.4,1.13-1.35,1.65-2.46,2c-0.23,1.28-0.86,2.25-2.15,2.69
				c0.1,0.7-0.38,1.18-0.7,1.73c-1.11,1.92-2.23,3.84-2.71,6.05c-0.31,1.44-0.13,2.78,0.76,3.98c0.91,1.23,1.41,1.17,2.07-0.32
				c0.77-1.75,1.1-3.64,1.72-5.44c0.25-0.72,0.25-1.66,1.16-1.97c-0.16-2.38,1.97-5.36,4.28-6c-0.01-0.02-0.03-0.05-0.04-0.07
				C415.18,232.04,416.61,231.45,417.69,230.51z"/>
			<path class="st1" d="M395.67,266.66c1.85-0.22,3.64,0.29,5.41,0.79c2,0.56,3.99,1.15,5.76,1.57c-1.65-1.16-3.23-2.64-4.13-4.74
				c0-0.09,0.02-0.17,0.05-0.25c-1.52-0.38-3.01,0.16-4.52,0.15c-0.35-0.03-0.71-0.04-1.03-0.16c-3.39,0.83-6.69,1.91-9.9,3.2
				c-1.62,4.39-3.62,8.32-6.02,11.79c-0.12,0.17-0.24,0.33-0.35,0.49c0.22-0.15,0.47-0.26,0.77-0.23c0.01,0.01,0.02,0.01,0.02,0.02
				c0-0.01-0.01-0.02-0.02-0.04c1.99-3.54,4.07-7.01,7.67-9.22c0.02,0,0.03,0.01,0.04,0.02c0.05-0.42,0.18-0.75,0.6-0.69
				C391.31,267.26,393.5,266.92,395.67,266.66z"/>
			<path class="st1" d="M389.04,200.94c0.48,1.77,0.9,3.61,1.26,5.5c0.13,0.7,0.25,1.41,0.37,2.12c1.4-0.78,2.88-1.44,4.47-1.92
				c0.68-0.21,1.36-0.32,2.07-0.24c1.73,0.19,2.5,0.95,2.66,2.67c0.06,0.63,0.04,1.27,0.04,1.91c-0.01,1.13,0.28,1.66,1.66,1.61
				c2.73-0.09,5.66,2.75,5.98,5.49c0.19,1.62-0.71,2.41-2.32,1.96c-1.5-0.42-2.73-1.31-3.88-2.35c-1.32-1.19-1.59-1.15-2.41,0.36
				c-0.68,1.25-1.52,2.4-2.28,3.6c0.41-0.57,0.89-1.06,1.6-1.32c0.69-0.26,1.38-0.23,1.91,0.4c0.05,0.08,0.07,0.16,0.08,0.24
				c0.58-0.69,1.3-0.34,1.96-0.12c1.08,0.35,2.09,0.87,3.18,1.2c2.9,0.87,5.7,0.72,8.39-0.83c0.71-0.41,1.39-1,2.31-0.92
				c0.12-0.59,0.48-0.93,1.09-1.01c0.51-1.92,1.69-3.58,2.04-5.59c0.39-2.28-0.01-4.13-1.97-5.52c-1.14-0.81-2.05-1.89-3.1-2.81
				c-4.42-3.85-9.61-6.05-15.26-7.29c-0.5-0.11-0.98-0.26-1.45-0.44c-1.06-0.41-2.14-0.31-3.22-0.1c-0.28,0.06-0.56,0.07-0.84,0
				c-0.01,0-0.01-0.01-0.02-0.01c-0.12,0.6-0.69,0.85-1.14,1.12C391.06,199.33,390.01,200.1,389.04,200.94z"/>
			<path class="st1" d="M422.26,230.03c1.65,1.34,3.34,2.63,5.01,3.93c1.13,0.31,1.86,1.21,2.71,1.91c2.36,1.96,3.22,1.91,5.36-0.36
				c0.26-0.27,0.5-0.56,0.75-0.84c2.68-4.99,4.25-10.41,6.08-15.74c0.96-2.81,1.97-5.61,3.4-8.23c0.23-0.41,0.42-0.91,0.74-1.25
				c-0.38-3.38-0.86-6.67-1.43-9.86c-0.01,0.11-0.03,0.22-0.04,0.33c0.02,1.21,0.06,2.42-0.32,3.6c-0.02,0.33-0.05,0.66-0.07,0.98
				c0.05,0.7,0.08,1.4-0.31,2.03c-0.54,1.36-1.07,2.71-1.61,4.07c0.08,0.9-0.68,1.35-1.07,2c-0.69,0.9-1.43,1.72-2.48,2.25
				c-1.15,0.58-1.24,1.87-1.67,2.89c-0.55,1.3-1.07,2.26-2.57,0.98c-0.68-0.58-1.39-0.38-2.11,0.05c-0.87,0.52-1.78,0.98-2.67,1.46
				c-0.8,0.07-1.61,0.4-2.35-0.2c-0.02-0.09-0.01-0.17,0-0.25c-0.03,0.03-0.07,0.05-0.1,0.08c-1.74-1.21-2.12-3.01-2.17-4.95v0
				c-0.07-0.07-0.15-0.11-0.25-0.13c0.1-0.81-0.2-1.65,0.24-2.43c0.01-0.19-0.03-0.4,0.03-0.56c1.07-2.73,3.02-5.06,3.64-8.02
				c0.15-0.71,0.97-1.14,1.7-1.42c0.7-0.26,1.37-0.2,1.95,0.31c0.63,0.55,0.51,1.25,0.3,1.93c-0.21,0.68-0.84,1.23-0.74,2.24
				c0.96-0.72,1.25-1.92,2.34-2.18c1-0.24,2.08-0.65,2.8,0.58c1.3,0.63,0.38,2.08,1.09,2.96c0.32,0.39,0.25,1.09,0.83,1.27
				c0.11-0.1,0.23-0.2,0.37-0.27c0.59-0.18,1.17-0.24,1.65,0.2c0.3-0.83,0.72-1.62,0.97-2.48c0.28-1.26,0.29-2.51-0.04-3.76
				c-0.73-2.1-1.91-3.78-3.86-4.98c-3.11-1.9-6.33-1.47-9.02,1.46c-0.43,0.46-0.75,1.03-1.44,1.17c-0.08,0-0.14-0.02-0.2-0.04
				c0,0.01,0.01,0.01,0.01,0.02c0.6,1.08-0.13,1.75-0.87,2.18c-2.16,1.25-4.54,1.7-6.84,1.79c1.93,2.14,4.04,4.49,4.3,7.87
				c0,0.01,0,0.02-0.01,0.03c0.65,0.52,0.55,1.42,0.8,2.15c-0.01,1.33,0.47,2.6,0.46,3.94c-0.01,0.73,0.36,1.18,1.08,1.33
				c0.57,0.12,1.07,0.37,1.41,0.88c0.77,0.67,1.92,0.84,2.45,1.83c0.44,0.21,0.66,0.78,1.24,0.76c0.85-1.18,2.01-2.01,3.18-2.82
				c0.44-0.31,0.87-0.89,1.47-0.37c0.56,0.49,0.17,1.05-0.07,1.54c-0.14,0.27-0.36,0.5-0.55,0.75l0,0c0,0,0,0,0,0
				c-1.02,0.97-1.9,2.1-3.32,2.59c-0.53,0.18-0.58,0.56-0.43,1.2c0.39,1.7,0.23,3.4-0.9,4.85c-0.45,0.58-1.1,0.94-1.82,0.72
				c-0.67-0.2-0.55-0.94-0.6-1.47c-0.12-1.32,0.02-2.62,0.55-3.85c-0.25-0.57-0.85-0.23-1.23-0.46c-1.26,0-2.52,0.01-3.78,0.01
				c-0.13,0-0.26,0.01-0.39,0.01c-1.06,0.48-1.27,1.69-2.04,2.43C421.13,229.34,421.88,229.72,422.26,230.03z"/>
			<path class="st1" d="M425.06,225c1.15-0.05,2.3,0.11,3.44-0.15c1.44,0.07,1.3-0.92,1.31-1.8c-0.95-0.09-1.7-0.73-2.58-1.01
				c-0.71-0.2-1.43-0.58-2.05,0.18c-0.41,1.01-0.45,2.21-1.25,3.03C424.29,225.1,424.66,225,425.06,225z"/>
			<path class="st1" d="M422.55,225.13c-0.08-0.43,0.02-0.87,0.21-1.22c0.58-1.1-0.27-0.92-0.78-1.05c0.21,0.35-0.04,0.69-0.25,0.96
				C420.67,225.15,421.59,225.14,422.55,225.13z"/>
			<path class="st1" d="M434.67,217.2c0.84,0.26,1.37,0.01,1.61-0.81c0.72-2.45,2.85-3.43,4.76-4.66c-0.43-0.79-1.72-0.48-2.05-1.4
				c-1.56-0.35-1.36-1.85-1.69-2.9c-0.22-0.68-0.37-1.4-0.62-2.09c-1.61-0.31-2.64,0.45-3.23,1.86c-0.29,0.7-0.57,1.19-1.34,0.58
				c-0.58-0.46-1.68-0.7-0.91-1.85c0.21-0.32,0.46-0.64,0.56-0.99c0.14-0.49,0.79-1.04,0.15-1.52c-0.61-0.47-1.21-0.1-1.68,0.39
				c-0.26,0.27-0.69,0.6-0.67,0.89c0.14,3.2-2.8,5.01-3.46,7.83c0,0.76,0,1.52,0.01,2.28c0.23,1.65,0.4,3.33,1.79,4.49
				c0.02-0.02,0.03-0.03,0.05-0.05c1.38-0.45,2.77-0.86,3.99-1.69C432.75,217.01,433.72,216.9,434.67,217.2z"/>
			<path class="st1" d="M432.2,224.05c0.08-0.02,0.16-0.05,0.23-0.08c-0.04,0-0.09-0.01-0.14-0.03
				C432.18,223.96,432.15,224.06,432.2,224.05z"/>
			<path class="st1" d="M443.87,203.42c0,0.01-0.01,0.02-0.01,0.02c0,0.04,0,0.08-0.01,0.12
				C443.87,203.52,443.87,203.47,443.87,203.42z"/>
			<path class="st1" d="M320.07,315.54c0.54-0.34,1.55-0.49,1.33-1.36c-0.18-0.68-1.07-0.82-1.74-0.98
				c-2.44-0.61-3.68,0.2-4.27,2.72c-0.43,1.8-0.08,3.66-0.35,5.47C315.82,318.79,317.71,317,320.07,315.54z"/>
			<path class="st1" d="M314.26,333.92c-0.1-0.07-0.11-0.16-0.05-0.26c0,0,0,0,0,0c-0.54-2-0.44-3.99,0-5.99
				c0.02-0.72,0.03-1.44,0.05-2.17c0.3-0.64,0.13-1.35,0.22-2.03c-0.13,0.33-0.3,0.64-0.59,0.9c-0.61,0.96-1.17,1.97-1.86,2.88
				c-1.68,2.24-2.31,4.83-1.52,7.58c1.33,0.33,2.68,0.65,4.05,0.93C314.35,335.19,314.2,334.58,314.26,333.92z"/>
			<path class="st1" d="M315.54,326.54c-0.08,0.5-0.08,1.01-0.2,1.51c-0.42,1.77,0.09,3.6-0.34,5.37c-0.01,0.01-0.01,0.02-0.02,0.03
				c0.05,0.01,0.1,0.03,0.15,0.06c0.58,0.74,0.62,1.77,1.07,2.58c0.3,0.06,0.59,0.12,0.89,0.17c0.63-1.12,1.47-2.07,2.63-2.71
				c-0.01-0.08-0.03-0.17-0.06-0.24c0.3-1.5,0.8-2.96,1.52-4.28c1.03-1.86,1.46-3.72,1.01-5.82c-0.5-2.36-0.04-4.65,0.83-6.88
				C317.97,317.9,316.33,321.92,315.54,326.54z"/>
			<path class="st1" d="M314.73,322.77c0.01-0.06,0.02-0.11,0.03-0.16c-0.02,0.08-0.04,0.16-0.07,0.25
				C314.7,322.82,314.71,322.8,314.73,322.77z"/>
			<path class="st1" d="M424.65,286.48c0.35-0.4,0.78-0.92,1.45-0.67c0-0.04-0.01-0.08-0.01-0.12c-0.04-0.71,0.41-1.21,0.84-1.63
				c1.85-1.79,3.76-3.52,5.47-5.46c0.14-0.16,0.35-0.2,0.57-0.21c0.05-0.86,0.58-1.29,1.38-1.48c0.18-1.44,0.99-2.44,2.15-3.22
				c-0.01-0.03-0.01-0.06-0.02-0.08c0.01-1.12,0.63-2.05,0.95-3.07c1.01-3.23,0.23-5.93-2.45-7.92c-3.6-2.67-7.75-4.28-11.85-5.96
				c-0.41-0.17-0.85-0.24-1.3-0.28c-0.67-0.06-1.3,0.05-1.6,0.74c-0.28,0.65,0.19,1.08,0.62,1.46c1.31,1.16,2.98,1.65,4.52,2.38
				c0.76,0.36,1.74,0.47,2.02,1.45c3.07,0.13,6.4,3.32,6.83,6.57c0.57,4.32-2.69,10.84-6.55,13.1c0.1,0.5-0.14,0.71-0.57,0.75
				c0.01,0.14,0,0.28-0.08,0.37c-2.37,2.55-4.46,5.37-7.24,7.52c0.03,0.05,0.05,0.09,0.08,0.14c0.1,0.39,0.03,0.78-0.18,1.09
				c-1.18,1.79-1.71,3.79-2,5.86C418.97,293.45,421.66,289.88,424.65,286.48z"/>
			<path class="st1" d="M411.46,267.54c0.29-0.34,0.55-0.69,0.8-1.06c1.7-2.52,1.64-2.67-1.28-3.27c-1.84-0.28-3.68-0.16-5.51-0.07
				c-0.2,0.03-0.4,0.02-0.6-0.03c-0.07-0.04-0.13-0.07-0.2-0.11c-0.36,0.42-0.94,0.37-1.4,0.59c0,0.01-0.01,0.01-0.01,0.02
				c0.86-0.06,1.22,0.65,1.66,1.2c1,1.26,2.23,2.24,3.53,3.16C409.58,268.75,410.58,268.57,411.46,267.54z"/>
			<path class="st1" d="M362.48,293.36c0.08,0.01,0.15,0.02,0.23,0.03c0-0.02-0.01-0.05-0.01-0.07c0-0.02,0.01-0.03,0.01-0.04
				C362.64,293.3,362.56,293.33,362.48,293.36z"/>
			<path class="st1" d="M393.71,227.85c0.12-0.71,0.35-1.37,0.64-2c-0.28,0.44-0.6,0.84-1.02,1.19c-0.31,0.49-0.58,0.99-0.84,1.49
				c0.02,0.77,0.02,1.55,0.03,2.32c0.03-0.07,0.05-0.13,0.07-0.2C392.95,229.72,393.33,228.79,393.71,227.85z"/>
			<path class="st1" d="M400.17,260.5c-2.29-3.67-4.49-7.38-8.27-9.81c-0.18-0.12-0.37-0.23-0.55-0.33
				c-0.42,3.01-0.94,5.89-1.58,8.63c-0.57,2.44-1.25,4.75-2.01,6.96c2.9-1.13,5.89-2.02,8.99-2.63c0.44-1.2,1.68-0.86,2.56-1.02
				C400.6,262.06,400.93,261.72,400.17,260.5z"/>
			<path class="st1" d="M395.21,224.18c0.25-0.45,0.49-0.9,0.72-1.37C395.65,223.24,395.42,223.71,395.21,224.18z"/>
			<path class="st1" d="M327.5,319.98c0.06,0,0.11,0.01,0.17,0.01c2.18-3,3.99-6.27,6.39-9.11c-0.1-0.73,1-0.94,0.75-1.73
				c-0.25,0.01-0.6-0.07-0.74,0.06c-3.69,3.43-7.74,6.62-8.56,12.08c-0.04,0.27-0.03,0.55-0.02,0.83c0.32-0.2,0.58-0.53,0.98-0.52
				C326.26,320.75,326.74,320.28,327.5,319.98z"/>
			<path class="st1" d="M310.3,182.51c-0.03-0.07-0.07-0.14-0.1-0.21c-0.03,0.03-0.06,0.05-0.1,0.08
				C310.17,182.43,310.23,182.47,310.3,182.51z"/>
			<path class="st1" d="M308.08,140.43C307.9,140.49,307.98,140.48,308.08,140.43L308.08,140.43z"/>
			<path class="st1" d="M310.01,181.84c-0.08-0.03-0.17-0.07-0.25-0.1c0.06,0.07,0.12,0.13,0.19,0.2
				C309.97,181.91,309.99,181.88,310.01,181.84z"/>
			<path class="st1" d="M306.16,137.12c-1.97-0.75-3.69-1.35-5.75-0.97c2.99,1.59,1.57,4.1,1.28,6.46c0.47-0.12,0.75-0.26,1.03-0.25
				c0.8,0.02,1.89-0.19,2.32,0.24c0.44,0.44,0.43,1.58,0.25,2.31c-0.41,1.62-1.07,3.19-1.61,4.78c-0.07,0.19-0.07,0.4-0.1,0.67
				c2.94-1.69,6.46-7.57,5.72-10.11c-0.44,1.06-0.74,1.79-1.08,2.6c-0.69-0.92-1.16-1.99-1.99-2.52c-0.87-0.56-2.08-0.6-3.15-0.86
				C303.25,138.57,303.36,138.48,306.16,137.12z"/>
			<path class="st1" d="M308.67,147.83c2.26-1.68,3.7-3.79,3.21-6.69c-0.52-3.1-2.37-5.34-5.27-6.5c-1.35-0.54-2.79-0.87-4.22-1.16
				c-1.06,0.44-2.11,0.89-3.14,1.36c-0.01,0.11-0.03,0.21-0.03,0.32c3.37-0.24,6.42,0.37,9.14,2.68c-1.12,0.25-2.23,0.5-3.61,0.81
				c1.26,0.65,2.19,1.14,3.38,1.75c0.53-0.29,1.06-0.6,1.59-0.9c0.28,0.62,0.78,1.24,0.79,1.86c0.01,0.85-0.13,1.87-0.6,2.54
				c-1.68,2.41-3.51,4.72-5.34,7.01c-0.27,0.34-0.89,0.39-1.35,0.58c-0.14-0.51-0.5-1.08-0.39-1.52c0.42-1.63,1.04-3.2,1.5-4.82
				c0.17-0.61,0.13-1.27,0.19-1.91c-0.6,0.04-1.24-0.04-1.81,0.13c-1.42,0.43-2.04-0.03-1.83-1.55c0.09-0.66,0.3-1.3,0.43-1.95
				c0.31-1.5-0.09-2.37-2.03-3.34c-0.53-0.26-1.56,0.2-2.22,0.58c-1.03,0.58-1.98,1.32-2.88,2.09c-0.44,0.37-0.91,0.94-0.97,1.47
				c-0.14,1.25-0.74,1.94-1.93,2.19c-0.89,0.19-1.1,0.61-1.24,1.61c-0.28,2-1.09,3.91-1.58,5.89c-0.2,0.81-0.49,1.97-0.1,2.47
				c0.4,0.51,1.62,0.63,2.42,0.52c1.78-0.26,3.55-0.7,5.29-1.2c1.23-0.35,1.95-1.25,2.27-2.55c0.24-0.98,0.68-1.92,1.11-2.84
				c0.12-0.25,0.48-0.39,0.73-0.58c0.14,0.33,0.4,0.66,0.4,0.99c0.03,1.63-0.09,3.26,0.01,4.88c0.07,1.15,0.61,2.19,1.89,2.41
				c1.28,0.22,2.52-0.68,2.91-2.12C305.89,150.39,307.11,148.98,308.67,147.83z"/>
			<path class="st1" d="M309.08,180.62C309.08,180.62,309.08,180.62,309.08,180.62c-0.01-0.01-0.01,0-0.02,0
				C309.07,180.62,309.08,180.62,309.08,180.62z"/>
			<path class="st1" d="M309.64,181.57c0.01-0.05,0.01-0.11,0.02-0.16c-0.02,0.01-0.07,0.03-0.07,0.03
				C309.6,181.49,309.62,181.53,309.64,181.57z"/>
			<path class="st1" d="M334.12,143.64c-0.79-0.45-1.53-0.8-2.18-1.27c-0.63-0.46-1.17-1.05-1.75-1.58
				c-0.34,1.57,0.55,3.61,1.27,3.65C332.47,144.5,333.58,144.57,334.12,143.64z"/>
			<path class="st1" d="M305.54,273.38c-2.58-3.63-5.06-7.33-7.65-10.95c-0.73-1.02-1.69-1.88-2.57-2.78
				c-0.63-0.65-1.43-0.42-1.66,0.23c-0.7,2-2.11,3.07-4.1,3.71c1.7,0.73,3.43,1.39,5.09,2.2c4.99,2.44,8.05,6.6,10.15,11.59
				c0.31,0.73,0.62,1.47,1.05,2.12c0.79,1.18,1.89,1.13,2.62-0.07c0.41-0.67,0.69-1.36,0.88-2.05c-0.7-1.19-1.36-2.43-1.98-3.7
				c-0.01,0.27-0.02,0.58-0.01,0.95C306.53,274.07,305.87,273.84,305.54,273.38z"/>
			<path class="st1" d="M336.46,142.06c-0.4,0.22-0.9,0.58-1,0.96c-0.51,1.95-2.23,2.4-3.97,2.29c-0.65-0.04-1.29-0.16-1.94-0.24
				c-0.29,0.5-0.46,1.23-0.89,1.44c-4.71,2.29-9.44,4.55-14.22,6.68c-1.03,0.46-2.29,0.38-3.58,0.57c1.07,1.36,1.98,2.93,0.78,5.17
				c3.55-2.04,7.32-2.6,10.21-5.08c2.5-2.15,5.7-2.99,8.71-4.08c2.95-1.07,5.05-2.96,6.67-5.53c0.92-1.45,2.34-2.77,2.71-4.34
				c0.46-1.96,1.11-4.19-0.45-6.18c0.05,0.75,0.06,1.51,0.15,2.26C339.98,138.86,339.03,140.66,336.46,142.06z"/>
			<path class="st1" d="M310.18,185.74C310.18,185.74,310.18,185.74,310.18,185.74c0.08,0.01,0.15,0.03,0.22,0.04c0,0,0,0,0,0
				C310.33,185.77,310.25,185.76,310.18,185.74z"/>
			<path class="st1" d="M285.19,241.2c-2.57-0.49-5.07-0.24-6.75,2.18c-0.46,0.67-0.75,1.45-1.11,2.19
				c0.81,0.27,1.61,0.76,2.43,0.79c5.93,0.23,11.87,0.39,17.8,0.54c1,0.02,1.99,0.08,2.95,0.21c-0.09-0.89-0.18-1.78-0.26-2.68
				c-2.26-0.35-4.52-0.75-6.77-1.21C290.69,242.66,287.98,241.73,285.19,241.2z"/>
			<path class="st1" d="M255.35,214.51c-0.23,0.29-0.54,0.56-0.63,0.89c-0.21,0.83-0.14,1.77-0.49,2.52
				c-2.06,4.42-4.24,8.78-6.29,13.21c-0.73,1.56-1.23,3.23-1.77,4.88c-0.09,0.27,0.21,0.67,0.33,1.01c0.23-0.1,0.55-0.13,0.66-0.3
				c1.88-2.94,3.75-5.88,5.57-8.86c1.66-2.72,3.23-5.48,4.88-8.2c0.24-0.39,0.73-0.63,1.1-0.93c0.09,0.1,0.18,0.2,0.27,0.3
				c-3.63,6.04-7.25,12.08-10.9,18.15c0.75,0.3,1.54,0.5,2.21,0.9c2.12,1.27,4.26,2.52,6.28,3.95c1.83,1.29,3.74,2.66,3.34,5.4
				c-0.02,0.12,0.08,0.25,0.12,0.38c1.3,4.25,4.15,6.96,8.39,8.06c5.74,1.5,11.6,2.17,17.55,1.85c1.51-0.08,3.04-0.06,4.87-0.09
				c-0.67,1.79-1.21,3.21-1.8,4.79c1.94-0.31,3.11-1.01,3.69-2.66c0.48-1.37,1.83-1.71,3.05-0.89c0.47,0.32,0.96,0.68,1.28,1.13
				c1.82,2.54,3.58,5.12,5.37,7.67c1.21,1.73,2.44,3.45,3.66,5.17c0.25-0.33,0.25-0.5,0.2-0.65c-0.54-1.71-1.09-3.42-1.64-5.12
				c-0.4-1.15-0.77-2.33-1.12-3.54c-0.28-0.89-0.56-1.77-0.84-2.66c-0.47-1.53-1.24-3.04-0.87-4.68c-0.13-0.69-0.26-1.37-0.37-2.07
				c-1.47,0.27-2.96,0.52-4.44,0.75c-5.79,0.92-11.54,2.33-17.46,1.86c-3.44-0.27-6.9-0.62-10.28-1.28
				c-1.67-0.32-3.43-1.13-4.75-2.21c-2.84-2.32-3.75-5.67-3.97-9.21c-0.1-1.68,0.78-2.83,2.43-3.09c1.26-0.2,2.55-0.15,3.82-0.24
				c2.51-0.17,5.02-0.26,7.51-0.58c1.69-0.22,3.31-0.9,5-1.11c1.3-0.16,1.75-0.69,1.82-1.92c0.26-4.66,1.73-8.91,4.34-12.81
				c3.62-5.4,5.37-11.32,4.86-17.88c-0.39-4.98-3.76-8.43-8.66-8.35c-3.26,0.05-6.54,0.24-9.77,0.69c-2.27,0.32-4.46,1.17-6.96,1.87
				c1.07,1.08,1.87,1.82,2.6,2.62c0.86,0.94,1.69,1.1,2.75,0.26c1.6-1.28,3.44-1.41,5.26-0.58c3.7,1.69,6.87,4.15,9.55,7.2
				c1.4,1.59,0.79,3.46-1.29,3.77c-2.03,0.3-4.13,0.3-6.19,0.17c-2.12-0.13-4.21-0.65-6.33-0.84c-0.6-0.05-1.72,0.37-1.76,0.68
				c-0.09,0.67,0.35,1.42,0.64,2.11c0.09,0.22,0.4,0.34,0.57,0.53c0.95,1.04,2.04,1.98,2.81,3.14c2.07,3.11,2.64,6.36,0.28,9.62
				c-0.66,0.92-1.47,1.76-2.31,2.52c-2.83,2.55-5.86,4.81-9.48,6.12c-1.51,0.55-2.2,0.02-1.94-1.5c0.63-3.73,1.33-7.44,2.02-11.16
				c0.05-0.25,0.25-0.47,0.37-0.7c0.16,0.04,0.32,0.08,0.48,0.12c-0.74,4.13-1.48,8.27-2.28,12.69c0.74-0.2,1.16-0.27,1.54-0.43
				c3.24-1.39,6.13-3.37,8.65-5.79c1.22-1.17,2.42-2.54,3.09-4.06c1.27-2.87,0.1-5.46-1.74-7.73c-0.94-1.15-2.09-2.14-3.09-3.24
				c-0.71-0.78-1.06-1.82-0.4-2.65c0.46-0.59,1.44-1.12,2.16-1.08c2.16,0.11,4.3,0.64,6.46,0.77c2.1,0.12,4.23,0.07,6.32-0.16
				c1.29-0.14,1.54-1.16,0.78-2.26c-0.2-0.29-0.38-0.61-0.65-0.83c-1.86-1.55-3.65-3.22-5.64-4.59c-2.55-1.75-5.25-3.17-8.23-0.63
				c-0.71,0.61-1.62,0.39-2.32-0.25c-0.72-0.65-1.39-1.34-2.1-2c-1.38-1.31-2.13-1.22-3.2,0.4c-0.29,0.44-0.49,0.95-0.75,1.41
				c-1.5,2.59-3.01,5.17-4.51,7.75C256.91,211.91,255.8,213.94,255.35,214.51z"/>
			<g>
				<path class="st0" d="M444.42,197.25c-0.82-4.12-1.8-8.09-2.95-11.89c-3.96-13-10-23.94-18.12-32.84
					c-8.12-8.9-18.4-15.64-30.83-20.24c-12.43-4.59-27.12-6.89-44.07-6.89c-3.27,0-6.47,0.09-9.58,0.28
					c0.93,1.04,1.25,2.4,0.99,3.91c-0.15,0.91-0.69,1.75-1.05,2.63c-0.78-0.46-1.56-0.92-2.33-1.38c-0.04-0.02-0.06-0.07-0.09-0.1
					c-2.05-1.94-4.37-3.33-6.98-4.18c-1.31,0.17-2.6,0.36-3.88,0.56c0,0.03-0.01,0.05-0.01,0.08c1.81,0.63,2.89,1.97,3.78,3.55
					c2.03,3.58,4.12,7.12,6.2,10.71c2.73-0.66,3.61-3.19,3.3-5.22c-0.11-0.74-0.19-1.49-0.2-2.24c-0.02-0.97,0.11-1.88,1.44-1.56
					c0-0.57-0.1-1.08,0.03-1.52c0.13-0.42,0.49-0.77,0.75-1.15c0.32,0.29,0.8,0.52,0.94,0.88c0.39,0.97,0.64,2,0.95,3.01
					c0.45,1.46,0.44,2.83-0.46,4.19c-1.57,2.35-3.1,4.73-4.51,7.18c-1.84,3.19-4.72,4.9-8.05,6.02c-3.1,1.05-6.02,2.41-8.65,4.4
					c-1.04,0.79-2.23,1.48-3.47,1.87c-2.52,0.8-4.83,1.89-6.86,3.58c-0.17,0.14-0.52,0.08-1.05,0.15c0.39-0.79,0.61-1.36,0.94-1.87
					c0.96-1.51,1.03-2.96-0.1-4.42c-0.3-0.38-0.62-0.77-0.78-1.21c-0.13-0.36-0.14-0.87,0.02-1.19c0.08-0.15,0.7-0.06,1.07-0.02
					c0.94,0.09,1.9,0.42,2.8,0.28c1.01-0.16,1.99-0.67,2.94-1.13c3.42-1.64,6.82-3.32,10.22-4.98c0.4-0.2,0.8-0.4,1.2-0.61
					c-0.42-0.24-0.75-0.22-1.08-0.16c-1.69,0.3-3.4,0.55-5.07,0.94c-4.61,1.08-9.15,2.42-13.15,5.04c-1.31,0.86-2.9,1.66-3.08,3.58
					c-0.2,2.02-0.13,3.65,1.83,5.22c3.06,2.45,4.64,6,5.11,9.98c0.15,1.24,0.3,2.64,0.95,3.64c0.93,1.44,2.01,2.78,3.14,4.08
					c2.71-2.54,5.76-4.65,9.16-6.31c5.93-2.89,12.85-4.34,20.77-4.34c8.9,0,16.28,1.63,22.14,4.87c5.86,3.25,10.56,7.77,14.09,13.56
					c2.43,3.99,4.37,8.49,5.83,13.45c0.98-0.79,2.01-1.52,3.13-2.16c0.37-0.21,0.68-0.61,1.19-0.37c0.37-0.11,0.55-0.64,1.04-0.46
					c0,0,0,0,0,0c1.21-0.55,2.42-0.46,3.63,0c3.18,0.47,6.21,1.42,9.2,2.61c5.04,2.01,8.83,5.68,12.74,9.2
					c0.51,0.46,0.93,1.06,0.92,1.82c0,0,0,0,0,0c0.59,1.49,0.48,2.98-0.01,4.47c0,0,0,0,0,0c-0.57,1.91-1.18,3.8-2.7,5.23
					c-0.11,0.66-0.63,0.93-1.14,1.2c-3.47,3.15-7.48,3.75-11.84,2.41c-1.61-0.49-3.21-1.11-4.6-2.12c-1.2,0.06-1.98,0.79-2.58,1.72
					c-2.27,3.53-4.19,7.22-5.11,11.34c-0.02,1.76-0.07,3.49-0.15,5.18c0.86,4.84,4.33,9.41,8.89,11.09c1.64,0.6,3.2,0.66,4.79-0.61
					c-1.74-1.49-3.1-3.2-2.94-5.63c0.24-3.65,2.04-6.6,4.27-9.34c0.55-1.05,1.29-1.94,2.19-2.7c0.57-0.75,1.18-1.45,2.05-1.85
					c1.5-1.6,3.38-2.68,5.38-3.46c1.49-0.59,2.7-1.21,2.97-2.96c0.07-0.48,0.39-0.93,0.86-1.21c0.06-0.9,1-1.34,1.45-1.4
					c1.72-0.22,1.65-1.3,1.67-2.55c0.04-1.77-0.31-3.48-0.48-5.22c-0.79-3.38-2.64-6.12-5.12-8.48c-0.33-0.32-0.98-0.59-0.71-1.2
					c0.2-0.46,0.77-0.35,1.2-0.41c1.95-0.28,3.89-0.56,5.79-1.1c1.22-0.35,2.2-0.95,2.69-2.17c2.94-5.42,9.13-6.46,14.01-1.63
					c0.9,0.89,1.75,1.87,1.66,3.29c-0.04,0.54,0.31,0.61,0.72,0.59c0.07-0.41,0.14-0.82,0.21-1.24c0.02-0.29,0.06-0.58,0.15-0.86
					C443.99,199.34,444.03,198.24,444.42,197.25z"/>
			</g>
			<path class="st1" d="M249.38,253.25c7.36,2.93,15.1,4.34,22.83,5.85c3.45,0.68,6.84,1.59,10.27,2.35
				c1.56,0.34,3.15,0.58,4.73,0.81c0.3,0.04,0.84-0.06,0.93-0.25c0.55-1.14,1.01-2.33,1.43-3.34c-4.31-0.14-8.6-0.1-12.86-0.47
				c-3.93-0.34-7.93-0.82-11.48-2.7c-3.48-1.85-5.81-4.76-6.17-8.81c-0.11-1.27-0.62-2.18-1.5-2.8c-2.52-1.78-5.11-3.46-7.73-5.08
				c-1.9-1.17-2.72-0.75-3.55,1.18c-0.51,1.19-0.93,2.37-1.21,3.57c0.11,2.27,0.27,4.5,0.46,6.7
				C246.34,251.71,247.73,252.59,249.38,253.25z"/>
			<path class="st1" d="M341.18,132.01c0.11,0.86,0.22,1.72,0.34,2.58c0.1,0.69,0.21,1.37,0.35,2.26
				C342.43,135,341.95,133.48,341.18,132.01z"/>
			<path class="st1" d="M329.52,145.04c-0.02-0.59,0-1.19-0.09-1.77c-0.07-0.47-0.42-0.92-0.42-1.38c-0.01-0.53,0.06-1.33,0.38-1.51
				c0.44-0.25,1.23-0.19,1.71,0.05c0.56,0.27,1,0.85,1.41,1.36c0.6,0.73,1.21,0.89,2,0.26c-0.07-0.21-0.11-0.39-0.19-0.53
				c-2.01-3.58-3.99-7.18-6.07-10.71c-0.52-0.88-1.3-1.63-2.07-2.33c-0.46-0.42-1.12-0.52-1.32,0.34c-0.95,4.04-0.96,7.97,1.4,11.62
				c0.47,0.72,0.85,1.51,1.41,2.52C328.41,144.23,328.95,144.76,329.52,145.04z"/>
			<path class="st1" d="M341.14,131.86L341.14,131.86c-0.02-0.05-0.04-0.08-0.04-0.1C341.11,131.78,341.12,131.81,341.14,131.86z"/>
			<path class="st1" d="M341.16,131.76c0,0.02-0.01,0.04-0.02,0.09C341.15,131.81,341.15,131.78,341.16,131.76z"/>
			<path class="st1" d="M320.07,134.64c0.1,3.48,3,6.79,6,7.1c-3.14-4.16-2.95-8.78-2.08-13.51
				C321.03,128.79,319.98,131.71,320.07,134.64z"/>
			<path class="st1" d="M338.25,131.27c1.24-2.06,1-4.11-0.54-5.52c-2.17,0.15-4.31,0.34-6.4,0.58
				C333.89,127.48,336.19,129.16,338.25,131.27z"/>
			<path class="st1" d="M298.48,169c-0.53-0.64-0.48-1.02,0.31-1.41c0.4-0.19,0.64-0.71,0.95-1.07c-0.47-0.17-0.97-0.54-1.42-0.49
				c-2.45,0.27-4.92,0.55-7.34,1.02c-1.89,0.36-2.38,1.44-1.67,3.25c1.42,3.62,4.37,5.29,7.96,6.09c0.61,0.14,1.24,0.17,1.84,0.33
				c2.04,0.55,2.38,1.16,1.91,3.19c-0.06,0.28-0.03,0.58-0.06,1.13c1.75-1.59,1.75-3.53,0.03-4.5c-1.08-0.61-2.4-0.89-3.64-1.1
				c-3.38-0.58-5.85-2.28-7.28-5.46c-0.52-1.16-0.06-1.86,0.98-2.07c2.1-0.42,4.24-0.67,6.04-0.94c0.23,0.94,0.22,1.85,0.64,2.46
				c1.29,1.89,2.74,3.68,4.16,5.48c0.2,0.26,0.59,0.37,0.89,0.54c0.11-0.12,0.23-0.23,0.34-0.35c-0.89-1.2-1.78-2.42-2.68-3.61
				C299.8,170.65,299.15,169.81,298.48,169z"/>
			<path class="st1" d="M288.82,195.13c0.17-0.32,0.34-0.64,0.52-0.95C289.17,194.48,289,194.8,288.82,195.13z"/>
			<path class="st1" d="M281.11,239.35c-0.12,0.11-0.25,0.19-0.38,0.23c-2.32,0.66-4.69,1.29-7.08,1.56
				c-2.84,0.32-5.72,0.34-8.58,0.34c-2.17,0-3.64,0.71-3.61,2.23c0.09,4.16,1.81,9.61,7.67,10.89c5.88,1.28,11.81,1.93,17.82,0.98
				c3.75-0.6,7.51-1.13,11.25-1.76c1.04-0.17,2.08-0.37,3.12-0.56c-0.28-1.75-0.53-3.53-0.73-5.35c-0.19-0.02-0.38-0.04-0.58-0.05
				c-5.8-0.24-11.61-0.31-17.41-0.47c-1.33-0.04-2.66-0.09-3.99-0.22c-1.88-0.19-2.65-1.28-1.86-2.85c0.93-1.84,2.27-3.35,4.43-3.88
				c0.27-0.07,0.53-0.12,0.8-0.16C281.27,240.3,281.09,239.85,281.11,239.35z"/>
			<path class="st1" d="M281.62,238.65l-0.23-0.5c0,0-0.27,0.62-0.29,1.2C281.3,239.17,281.48,238.92,281.62,238.65z"/>
			<path class="st1" d="M282.34,240.23L282.34,240.23c-0.12,0.01-0.24,0.03-0.36,0.05C282.09,240.27,282.21,240.26,282.34,240.23z"
				/>
			<path class="st1" d="M281.11,239.35c-0.02,0.5,0.16,0.96,0.87,0.93c0.12-0.02,0.24-0.03,0.36-0.05l-0.72-1.58
				C281.48,238.92,281.3,239.17,281.11,239.35z"/>
			<path class="st1" d="M298.48,169c-0.53-0.64-0.48-1.02,0.31-1.41c0.4-0.19,0.64-0.71,0.95-1.07c-0.47-0.17-0.97-0.54-1.42-0.49
				c-2.45,0.27-4.92,0.55-7.34,1.02c-1.89,0.36-2.38,1.44-1.67,3.25c1.42,3.62,4.37,5.29,7.96,6.09c0.61,0.14,1.24,0.17,1.84,0.33
				c2.04,0.55,2.38,1.16,1.91,3.19c-0.06,0.28-0.03,0.58-0.06,1.13c1.75-1.59,1.75-3.53,0.03-4.5c-1.08-0.61-2.4-0.89-3.64-1.1
				c-3.38-0.58-5.85-2.28-7.28-5.46c-0.52-1.16-0.06-1.86,0.98-2.07c2.1-0.42,4.24-0.67,6.04-0.94c0.23,0.94,0.22,1.85,0.64,2.46
				c1.29,1.89,2.74,3.68,4.16,5.48c0.2,0.26,0.59,0.37,0.89,0.54c0.11-0.12,0.23-0.23,0.34-0.35c-0.89-1.2-1.78-2.42-2.68-3.61
				C299.8,170.65,299.15,169.81,298.48,169z"/>
			<path class="st1" d="M307.82,177.02c1.5,2.06,3.07,4.11,4.19,6.38c1.22-1.66,2.55-3.19,3.97-4.59c-0.28-0.28-0.58-0.56-0.85-0.86
				c-1.73-1.88-3.39-3.97-3.52-6.7c-0.2-4.55-2.29-8.05-5.64-10.96c-0.6-0.52-0.92-0.46-1.54,0.03c-0.72,0.59-1.65,1.24-2.52,1.28
				c-2.95,0.16-5.93,0.23-8.88,0.03c-5.95-0.41-12.56,3.33-14.86,8.93c-0.8,1.96-1.27,4.06-1.77,6.13
				c-1.14,4.68-3.46,8.82-5.66,13.03c-0.53,1.01-0.93,2.08-1.39,3.12c0.12,0.07,0.25,0.14,0.37,0.21c1.77-2.76,3.66-5.46,5.29-8.31
				c1.32-2.3,2.46-4.72,3.45-7.17c1.13-2.79,1.94-5.71,3.05-8.51c0.42-1.05,0.92-2.25,2.5-2.8c-0.09,0.72-0.15,1.18-0.2,1.64
				c-0.08,0.66-0.33,1.35-0.22,1.96c0.74,3.87,3.3,6.18,6.74,7.73c0.72,0.32,1.35,0.85,2.02,1.28c-0.68,0.39-1.31,0.91-2.04,1.15
				c-5.16,1.66-9.41,4.65-12.79,8.85c-0.69,0.86-1.49,1.89-1.12,3.32c0.23-0.12,0.41-0.16,0.52-0.27c0.63-0.73,1.23-1.49,1.87-2.21
				c1.7-1.92,3.72-1.95,5.28,0.08c1.33,1.74,2.43,3.65,3.65,5.51c0.26-0.47,0.61-1.17,1-1.84c2.64-4.51,6.29-8.14,10.23-11.5
				c0.38-0.32,0.94-0.42,1.42-0.63c0.03,0.05,0.05,0.09,0.08,0.14c1.48-1.31,3.05-1.94,3.82-2.18c-0.07-0.09-0.14-0.18-0.21-0.27
				c-0.22-0.29-0.09-0.84-0.12-1.28c0.11-0.03,0.23-0.06,0.34-0.09c0.26,0.38,0.5,0.77,0.77,1.14c1.69,2.33,3.39,4.65,5.09,6.97
				c-0.04-0.44,0.06-0.94-0.13-1.3c-1.42-2.69-2.91-5.33-4.33-8.02c-0.22-0.42-0.2-0.97-0.29-1.45c0.16-0.07,0.33-0.15,0.49-0.22
				C306.56,175.51,307.24,176.23,307.82,177.02z"/>
			<path class="st1" d="M302.77,175.45c-0.3-0.18-0.69-0.29-0.89-0.54c-1.42-1.8-2.86-3.59-4.16-5.48
				c-0.42-0.61-0.41-1.52-0.64-2.46c-1.8,0.27-3.94,0.52-6.04,0.94c-1.04,0.21-1.5,0.91-0.98,2.07c1.43,3.18,3.9,4.87,7.28,5.46
				c1.25,0.21,2.56,0.49,3.64,1.1c1.72,0.97,1.72,2.91-0.03,4.5c0.02-0.55-0.01-0.86,0.06-1.13c0.47-2.03,0.13-2.64-1.91-3.19
				c-0.6-0.16-1.23-0.19-1.84-0.33c-3.59-0.81-6.54-2.47-7.96-6.09c-0.71-1.81-0.22-2.88,1.67-3.25c2.42-0.46,4.89-0.74,7.34-1.02
				c0.45-0.05,0.95,0.32,1.42,0.49c-0.31,0.37-0.55,0.88-0.95,1.07c-0.79,0.39-0.84,0.77-0.31,1.41c0.67,0.81,1.32,1.64,1.95,2.48
				c0.9,1.2,1.79,2.41,2.68,3.61C303,175.22,302.89,175.33,302.77,175.45z"/>
			<path class="st1" d="M300.45,181.84c0.06-0.05,0.11-0.11,0.17-0.16c-0.04-0.08-0.08-0.15-0.13-0.23"/>
			<path class="st1" d="M304.79,179.13c0,0-0.18,0.04-0.48,0.14c0.03,0.04,0.06,0.07,0.09,0.11L304.79,179.13z"/>
			<path class="st1" d="M300.61,181.68c-0.06,0.05-0.11,0.11-0.17,0.16l3.94-2.46c-0.03-0.04-0.06-0.07-0.09-0.11
				c-0.77,0.25-2.33,0.87-3.82,2.18C300.53,181.53,300.57,181.6,300.61,181.68z"/>
			<path class="st1" d="M419.09,310.6c-1.22-1.95-2.09-4.09-2.25-6.6c0-0.02,0-0.04,0-0.06c0-0.04,0-0.07,0-0.11
				c0.01-0.5-0.55-0.78-0.97-0.51c-0.31,0.2-0.69,0.31-1.16,0.31c-0.14-0.03-0.28-0.06-0.41-0.1c-1.39,0.51-2.72,0.23-4.04-0.38
				c-0.09,0.03-0.18,0.06-0.27,0.08c-2.14-0.57-3.27-2.06-3.75-4.12l-2.81,1.25c0.02,0.02,0.03,0.03,0.05,0.06
				c-0.67,0.6-1.43,1.1-2.23,1.56c-0.21,0.12-0.33,0.35-0.3,0.6c0.03,0.28,0,0.57-0.03,0.86c-0.32,2.67,0.19,3.63,2.55,4.88
				c1.41,0.75,2.93,1.24,4.46,1.64c2.82,0.75,4.98,2.37,6.92,4.48c0.14,0.16,0.29,0.32,0.43,0.48c1.28-1.14,2.53-2.32,3.74-3.54
				C419.22,311.16,419.25,310.85,419.09,310.6z"/>
			<path class="st1" d="M417.78,255.77c0.06,0.11,0.05,0.2-0.05,0.27c-0.01,0.99-0.29,1.91-0.71,2.79
				c-0.51,1.31-1.02,2.63-1.52,3.94c3.8,0.63,7.37,1.88,10.47,4.21c3.78,2.84,3.89,6.25,0.3,9.34c-1.29,1.11-2.77,2.01-4.19,2.95
				c-2.57,1.71-4.15,4.05-4.59,7.11c-0.33,2.32-0.63,4.64-0.94,6.96c-0.15,0.46-0.17,0.94-0.19,1.42c0.09-0.22,0.25-0.43,0.52-0.59
				c0.62-1.4,1.24-2.8,2.33-3.92c2.01-3,4.6-5.49,7.23-7.92c0.27-0.29,0.53-0.57,0.8-0.86c-0.05-0.66,0.7-0.84,0.82-1.39
				c0.14-0.33,0.33-0.63,0.68-0.77c1.56-1.82,2.85-3.81,3.64-6.09c1.35-3.86,0.29-6.78-3.2-8.89c-0.78-0.47-1.59-0.87-2.4-1.3
				c-0.08-0.03-0.16-0.07-0.25-0.13c-2.55-0.81-4.96-1.87-7.07-3.57c-0.83-0.67-1.21-1.45-0.87-2.49c0.27-0.85,0.74-1.48,1.48-1.79
				l-1.94-0.83C418.14,254.77,418.06,255.29,417.78,255.77z"/>
		</g>
	</g>
</g>
</svg>
