<?xml version="1.0" encoding="utf-8"?>
<!-- Generator: Adobe Illustrator 25.2.0, SVG Export Plug-In . SVG Version: 6.00 Build 0)  -->
<svg version="1.1" id="Layer_1" xmlns="http://www.w3.org/2000/svg" xmlns:xlink="http://www.w3.org/1999/xlink" x="0px" y="0px"
	 viewBox="0 0 1920 1080" style="enable-background:new 0 0 1920 1080;" xml:space="preserve">
<style type="text/css">
	.st0{fill:#048A81;}
	.st1{fill:#444545;}
	.st2{fill:#D72638;}
	.st3{fill:none;}
</style>
<path class="st1" d="M420.03,563.7c0,14.25-1.97,27.16-5.89,38.73c-3.93,11.57-9.35,21.79-16.27,30.67
	c-6.92,8.88-15.18,16.53-24.79,22.93c-9.6,6.41-20.19,11.67-31.76,15.8c-11.57,4.13-23.91,7.18-37.02,9.14
	c-13.12,1.97-27.73,2.94-43.84,2.94H153.89c-6.82,0-12.55-2.01-17.2-6.04c-4.65-4.03-6.97-10.58-6.97-19.67V308.72
	c0-9.09,2.32-15.65,6.97-19.67c4.65-4.03,10.38-6.04,17.2-6.04h100.69c24.58,0,45.39,2.07,62.43,6.2
	c17.04,4.13,31.39,10.38,43.07,18.74c11.67,8.37,20.6,18.95,26.8,31.76c6.2,12.81,9.29,27.88,9.29,45.23
	c0,9.71-1.24,18.85-3.72,27.42c-2.48,8.57-6.09,16.37-10.84,23.39c-4.75,7.02-10.59,13.22-17.51,18.59
	c-6.92,5.37-14.82,9.71-23.7,13.01c11.36,2.07,21.84,5.68,31.45,10.84c9.6,5.17,17.97,11.83,25.1,19.98
	c7.13,8.16,12.75,17.71,16.89,28.66C417.96,537.78,420.03,550.07,420.03,563.7z M314.68,394.85c0-8.06-1.24-15.28-3.72-21.69
	c-2.48-6.4-6.2-11.72-11.15-15.96c-4.96-4.23-11.21-7.48-18.74-9.76c-7.54-2.27-17.61-3.41-30.21-3.41h-41.21v104.1h45.54
	c11.77,0,21.17-1.39,28.19-4.18c7.02-2.79,12.86-6.61,17.5-11.46c4.65-4.85,8.1-10.53,10.38-17.04
	C313.55,408.94,314.68,402.08,314.68,394.85z M335.44,566.49c0-9.29-1.55-17.61-4.65-24.94c-3.1-7.33-7.64-13.48-13.63-18.43
	c-5.99-4.96-13.63-8.78-22.93-11.46c-9.29-2.68-21.38-4.03-36.25-4.03h-48.33v114.02h58.87c11.36,0,20.91-1.19,28.66-3.56
	c7.75-2.37,14.46-5.89,20.14-10.53c5.68-4.65,10.12-10.43,13.32-17.35C333.84,583.27,335.44,575.37,335.44,566.49z"/>
<path class="st1" d="M658.28,422.73c0,7.44-0.21,13.53-0.62,18.28c-0.42,4.75-1.04,8.47-1.86,11.15c-0.83,2.69-1.91,4.55-3.25,5.58
	c-1.35,1.04-3.05,1.55-5.11,1.55c-1.66,0-3.51-0.36-5.58-1.08c-2.07-0.72-4.39-1.5-6.97-2.32c-2.59-0.82-5.42-1.6-8.52-2.32
	c-3.1-0.72-6.51-1.08-10.22-1.08c-4.34,0-8.68,0.88-13.01,2.63c-4.34,1.76-8.83,4.49-13.48,8.21c-4.65,3.72-9.5,8.68-14.56,14.87
	c-5.06,6.2-10.49,13.84-16.27,22.93v172.26c0,2.07-0.62,3.87-1.86,5.42c-1.24,1.55-3.36,2.84-6.35,3.87
	c-3,1.04-6.97,1.81-11.93,2.32c-4.96,0.51-11.26,0.78-18.9,0.78c-7.64,0-13.94-0.26-18.9-0.78c-4.96-0.52-8.94-1.29-11.93-2.32
	c-3-1.03-5.11-2.32-6.35-3.87c-1.24-1.55-1.86-3.35-1.86-5.42V397.02c0-2.06,0.51-3.87,1.55-5.42c1.03-1.55,2.89-2.84,5.58-3.87
	c2.68-1.03,6.14-1.81,10.38-2.32c4.23-0.51,9.55-0.77,15.96-0.77c6.61,0,12.08,0.26,16.42,0.77c4.34,0.52,7.69,1.29,10.07,2.32
	c2.37,1.04,4.08,2.32,5.11,3.87c1.03,1.55,1.55,3.36,1.55,5.42v34.39c7.23-10.33,14.04-18.85,20.45-25.56
	c6.4-6.71,12.49-12.03,18.28-15.96c5.78-3.92,11.57-6.66,17.35-8.21c5.78-1.55,11.57-2.32,17.35-2.32c2.68,0,5.58,0.16,8.68,0.47
	c3.1,0.31,6.3,0.83,9.6,1.55c3.3,0.73,6.2,1.55,8.68,2.48c2.48,0.93,4.28,1.91,5.42,2.94c1.13,1.04,1.96,2.17,2.48,3.41
	c0.51,1.24,0.98,2.94,1.39,5.11c0.41,2.17,0.72,5.42,0.93,9.76C658.17,409.41,658.28,415.3,658.28,422.73z"/>
<path class="st1" d="M1126.12,673.38c0,2.07-0.62,3.87-1.86,5.42s-3.31,2.84-6.2,3.87c-2.9,1.04-6.87,1.81-11.93,2.32
	c-5.06,0.51-11.31,0.78-18.74,0.78c-7.64,0-14-0.26-19.05-0.78c-5.06-0.52-9.04-1.29-11.93-2.32c-2.9-1.03-4.96-2.32-6.2-3.87
	s-1.86-3.35-1.86-5.42v-157.7c0-13.42-0.98-23.96-2.94-31.6c-1.97-7.64-4.8-14.2-8.52-19.67c-3.72-5.47-8.52-9.71-14.41-12.7
	c-5.89-2.99-12.76-4.49-20.6-4.49c-9.91,0-19.93,3.62-30.05,10.84c-10.12,7.23-20.66,17.77-31.6,31.6v183.73
	c0,2.07-0.62,3.87-1.86,5.42c-1.24,1.55-3.36,2.84-6.35,3.87c-3,1.04-6.97,1.81-11.93,2.32c-4.96,0.51-11.26,0.78-18.9,0.78
	c-7.64,0-13.94-0.26-18.9-0.78c-4.96-0.52-8.94-1.29-11.93-2.32c-3-1.03-5.11-2.32-6.35-3.87s-1.86-3.35-1.86-5.42V397.02
	c0-2.06,0.51-3.87,1.55-5.42c1.03-1.55,2.89-2.84,5.58-3.87c2.68-1.03,6.14-1.81,10.38-2.32c4.23-0.51,9.55-0.77,15.96-0.77
	c6.61,0,12.08,0.26,16.42,0.77c4.34,0.52,7.69,1.29,10.07,2.32c2.37,1.04,4.08,2.32,5.11,3.87c1.03,1.55,1.55,3.36,1.55,5.42v31.91
	c15.28-16.52,30.83-28.92,46.63-37.18c15.8-8.26,32.27-12.39,49.42-12.39c18.79,0,34.65,3.1,47.56,9.29
	c12.91,6.2,23.34,14.62,31.29,25.25c7.95,10.64,13.68,23.08,17.2,37.33c3.51,14.25,5.27,31.4,5.27,51.43V673.38z"/>
<path class="st1" d="M1745.76,631.75c-0.4,1.47-0.97,2.8-2.78,3.11c0,0-0.01,0-0.01,0c-2.38,1.96-3.91,2.08-7.02,0.54
	c-0.06,0.04-0.11,0.07-0.18,0.1c-0.68,0.31-1.48-0.24-2.28,0.41c0.28,1.64,1.62,2.52,2.78,3.53c0.64,0.56,1.69,0.76,1.71,1.85
	c0.02-0.01,0.05-0.01,0.07-0.02c1.07,1.21,2.5,0.09,3.68,0.58c0.01,0,0.02,0,0.03,0.01c-0.01-0.02-0.03-0.04-0.04-0.06
	c3.15-2.17,3.47-5.5,3.63-8.89C1745.63,632.58,1745.72,632.17,1745.76,631.75z"/>
<path class="st1" d="M1745.03,568.57c-3.86-0.77-7.65-1.77-11.22-3.47c-0.83-0.4-1.5-0.85-2.54-0.12
	c-3.44,2.44-6.93,1.63-10.29-0.28c-5.27-3-8.9-7.2-10.73-12.08c-0.22,3.14-0.53,6.19-0.9,9.16c3.03,1.54,5.58,3.87,7.92,6.53
	c2.92,3.33,5.26,7.09,7.23,11.02c0.92,1.84,1.97,2.44,3.8,2.22c0.33-0.02,0.66-0.05,0.98-0.07c0,0,0,0,0,0
	c3.28-0.65,6.56-0.75,9.84,0.02c3.78,1.22,4.44,0.89,5.8-2.89c0.46-1.28,0.96-2.55,1.44-3.83c0,0,0,0,0,0s0,0,0,0
	c0.35-1.58,0.69-3.16,1.04-4.74c0,0,0,0,0,0C1747.19,568.63,1745.99,568.77,1745.03,568.57z"/>
<path class="st1" d="M1745.47,595.11c0.84,0.46,1.76,0.39,2.67,0.42c0.56,0.02,1.12,0.1,1.66,0.25c0.34,0.13,0.69,0.25,1.01,0.41
	c0.29-0.03,0.57-0.11,0.8-0.4c2.91-3.76,6.46-3.83,10.36-1.95c-2.43-4.04-6.49-5.73-10.62-7.38c-2.12-0.84-4.5-1.04-6.36-2.51
	c-0.96,3.42-3.13,6.13-5.55,8.74C1741.33,594.1,1743.58,594.16,1745.47,595.11z"/>
<path class="st1" d="M1659.59,634.25c1.07-0.68,2.19-1.24,3.32-1.81c0.54-0.28,1-0.66,1.44-1.08c0.79-0.8,1.76-1.34,2.72-1.88
	c1.08-0.64,2.1-1.37,3.11-2.12c1.64-1.16,3.28-2.33,4.88-3.54c-0.81,0.45-1.63,0.88-2.48,1.29c-0.65,0.32-1.31,0.62-1.98,0.91
	c-0.31,0.3-0.63,0.59-0.96,0.87c-1.29-0.07-1.41,1.86-2.79,1.63c-0.03,0.14-0.04,0.29-0.05,0.43c-0.75,0.56-1.51,1.11-2.26,1.67
	c-0.56,0.38-1.13,0.77-1.69,1.15c-1.65,0.46-3.14,1.21-4.48,2.28c-7.51,2.65-15,5.21-21.99,9.29c-4.85,2.83-7.69,7.22-11.32,11.01
	c-1.52,2.42-3.05,4.85-4.57,7.27c-0.15,0.42-0.33,0.83-0.53,1.22c0.3-0.36,0.6-0.73,0.91-1.09c3.88-5.4,9.35-8.95,14.7-12.65
	c0.36-0.25,0.79-0.33,1.22-0.33c0.13-0.61,0.63-0.97,1.15-1.31c4.72-3.07,9.48-6.07,14.36-8.87c1.07-0.61,2.22-1.59,3.63-0.66
	c0.01,0,0.01,0,0.02,0C1655.8,635.38,1658.33,635.43,1659.59,634.25z"/>
<path class="st1" d="M1754.54,604.28c3.1-1.8,6.08-3.79,7.59-7.28c0.19-0.41,0.32-0.82,0.37-1.23c-0.08,0.16-0.18,0.32-0.32,0.49
	c-1.65,1.02-3.44,1.35-5.35,1.18c0,0,0,0,0,0c-1.56,0.65-3.19,0.33-4.8,0.37c-0.09,0.02-0.17,0.03-0.26,0.05
	c-0.45,1.31-0.8,2.67-2.07,3.47c0.15,0.24,0.28,0.51,0.2,0.77c-2.83,8.89-5.53,17.84-11.62,25.23c-0.18,0.22-0.4,0.39-0.63,0.55
	c-0.1,0.04-0.2,0.07-0.29,0.09c0.2,1.41-0.99,2.04-1.77,2.81c-1.22,1.21-1.87,2.17,0.32,2.94c0.34,0.12,0.5,0.48,0.55,0.85
	c1.95,0.37,3.9,0.84,5.69-0.46c-0.01-0.04-0.03-0.07-0.04-0.1c2-5.41,2.52-11.13,3.44-16.77
	C1746.48,611.49,1749.51,607.22,1754.54,604.28z"/>
<polygon class="st1" points="1681.99,619.32 1681.99,619.32 1681.99,619.32 "/>
<path class="st1" d="M1747.99,534.78c0.63-0.55,1.42-0.94,1.93-1.63c0.42-0.57,0.57-1.2,0.09-1.82c-0.43-0.55-1.01-0.41-1.55-0.21
	c-1.77,0.66-3.36,1.67-4.92,2.71c-0.92,0.61-1.83,1.25-2.97,1.41c-0.6,1.67-2,2.43-3.63,2.95c-0.34,1.89-1.28,3.32-3.18,3.97
	c0.15,1.03-0.57,1.74-1.04,2.56c-1.64,2.84-3.3,5.67-4,8.94c-0.46,2.12-0.19,4.1,1.12,5.88c1.35,1.82,2.09,1.73,3.06-0.47
	c1.14-2.58,1.63-5.38,2.54-8.03c0.36-1.06,0.38-2.46,1.71-2.91c-0.24-3.52,2.91-7.92,6.32-8.86c-0.02-0.04-0.04-0.07-0.06-0.11
	C1744.28,537.03,1746.39,536.17,1747.99,534.78z"/>
<path class="st1" d="M1715.44,588.22c2.74-0.32,5.38,0.43,8,1.17c2.95,0.83,5.89,1.7,8.51,2.33c-2.44-1.71-4.77-3.9-6.1-7.01
	c0.01-0.13,0.03-0.25,0.08-0.37c-2.24-0.55-4.45,0.23-6.68,0.22c-0.52-0.04-1.05-0.06-1.52-0.24c-5.01,1.23-9.88,2.82-14.64,4.73
	c-2.39,6.49-5.36,12.3-8.9,17.42c-0.17,0.25-0.35,0.49-0.52,0.73c0.33-0.23,0.69-0.38,1.14-0.34c0.01,0.01,0.02,0.02,0.03,0.03
	c-0.01-0.02-0.02-0.04-0.03-0.06c2.94-5.24,6.02-10.36,11.34-13.63c0.02,0.01,0.04,0.02,0.06,0.03c0.08-0.62,0.26-1.11,0.89-1.01
	C1709,589.09,1712.23,588.59,1715.44,588.22z"/>
<path class="st1" d="M1705.64,491.07c0.71,2.62,1.33,5.33,1.86,8.13c0.2,1.03,0.37,2.09,0.55,3.14c2.08-1.15,4.26-2.13,6.6-2.84
	c1-0.3,2.01-0.48,3.06-0.36c2.56,0.28,3.69,1.4,3.93,3.95c0.09,0.94,0.07,1.88,0.06,2.82c-0.01,1.67,0.41,2.45,2.45,2.38
	c4.04-0.14,8.37,4.06,8.84,8.12c0.27,2.39-1.04,3.56-3.43,2.89c-2.21-0.62-4.03-1.93-5.73-3.48c-1.94-1.76-2.34-1.71-3.56,0.53
	c-1.01,1.85-2.25,3.55-3.37,5.32c0.61-0.84,1.32-1.57,2.36-1.96c1.03-0.38,2.04-0.34,2.83,0.59c0.07,0.12,0.11,0.24,0.12,0.35
	c0.86-1.02,1.91-0.51,2.9-0.18c1.59,0.52,3.09,1.29,4.7,1.77c4.29,1.28,8.43,1.06,12.39-1.22c1.06-0.61,2.06-1.48,3.41-1.36
	c0.18-0.87,0.71-1.38,1.62-1.49c0.76-2.84,2.5-5.29,3.01-8.26c0.58-3.37-0.02-6.11-2.92-8.16c-1.69-1.19-3.02-2.79-4.58-4.15
	c-6.53-5.7-14.2-8.95-22.56-10.78c-0.74-0.16-1.45-0.38-2.15-0.65c-1.57-0.6-3.16-0.46-4.76-0.14c-0.42,0.09-0.83,0.1-1.25,0
	c-0.01,0-0.02-0.01-0.03-0.02c-0.18,0.89-1.01,1.26-1.69,1.66C1708.63,488.69,1707.09,489.84,1705.64,491.07z"/>
<path class="st1" d="M1754.75,534.07c2.43,1.98,4.93,3.88,7.41,5.81c1.68,0.46,2.75,1.78,4.01,2.83c3.49,2.9,4.77,2.83,7.92-0.54
	c0.38-0.4,0.74-0.83,1.1-1.24c3.96-7.38,6.28-15.39,8.98-23.26c1.42-4.15,2.91-8.29,5.03-12.16c0.33-0.61,0.61-1.34,1.09-1.85
	c-0.56-5-1.27-9.85-2.12-14.57c-0.02,0.16-0.04,0.33-0.06,0.49c0.03,1.79,0.09,3.58-0.47,5.32c-0.03,0.49-0.07,0.97-0.1,1.46
	c0.07,1.04,0.12,2.07-0.46,3c-0.79,2-1.59,4.01-2.38,6.01c0.12,1.33-1,2-1.59,2.95c-1.02,1.32-2.12,2.55-3.66,3.33
	c-1.7,0.86-1.84,2.76-2.47,4.27c-0.81,1.93-1.58,3.34-3.79,1.44c-1.01-0.86-2.06-0.56-3.12,0.07c-1.28,0.77-2.62,1.44-3.94,2.16
	c-1.18,0.11-2.38,0.6-3.48-0.29c-0.02-0.13-0.02-0.26,0-0.37c-0.05,0.04-0.1,0.08-0.15,0.11c-2.57-1.78-3.13-4.44-3.2-7.32v0
	c-0.11-0.1-0.23-0.16-0.37-0.19c0.15-1.19-0.29-2.44,0.35-3.59c0.01-0.28-0.05-0.59,0.05-0.83c1.59-4.04,4.47-7.48,5.39-11.85
	c0.22-1.04,1.43-1.69,2.51-2.09c1.03-0.38,2.03-0.3,2.89,0.46c0.93,0.81,0.75,1.85,0.44,2.85c-0.31,1.01-1.24,1.82-1.09,3.31
	c1.42-1.06,1.85-2.84,3.45-3.22c1.48-0.35,3.08-0.96,4.14,0.85c1.92,0.94,0.56,3.08,1.61,4.38c0.47,0.58,0.37,1.61,1.23,1.88
	c0.16-0.15,0.33-0.29,0.55-0.4c0.88-0.26,1.73-0.35,2.44,0.3c0.44-1.23,1.06-2.4,1.43-3.66c0.41-1.86,0.43-3.71-0.05-5.56
	c-1.07-3.1-2.82-5.59-5.71-7.36c-4.59-2.81-9.35-2.17-13.33,2.17c-0.63,0.69-1.11,1.53-2.13,1.73c-0.11,0-0.21-0.03-0.3-0.06
	c0.01,0.01,0.01,0.02,0.02,0.03c0.88,1.59-0.2,2.59-1.28,3.22c-3.19,1.84-6.71,2.51-10.11,2.65c2.85,3.17,5.97,6.64,6.35,11.63
	c0,0.01-0.01,0.03-0.01,0.04c0.96,0.77,0.81,2.1,1.18,3.17c-0.01,1.96,0.7,3.85,0.67,5.82c-0.01,1.08,0.53,1.74,1.6,1.97
	c0.84,0.18,1.59,0.54,2.08,1.3c1.13,1,2.83,1.24,3.62,2.7c0.65,0.32,0.97,1.15,1.83,1.12c1.26-1.74,2.97-2.96,4.7-4.17
	c0.65-0.45,1.29-1.32,2.18-0.54c0.84,0.73,0.26,1.55-0.11,2.28c-0.2,0.4-0.54,0.74-0.81,1.11v0c0,0,0,0,0,0
	c-1.51,1.43-2.81,3.11-4.9,3.83c-0.78,0.27-0.86,0.82-0.64,1.78c0.57,2.51,0.34,5.02-1.33,7.16c-0.66,0.85-1.62,1.39-2.7,1.07
	c-0.99-0.3-0.82-1.39-0.89-2.17c-0.18-1.95,0.03-3.87,0.82-5.69c-0.37-0.84-1.25-0.34-1.81-0.68c-1.86,0.01-3.72,0.01-5.58,0.02
	c-0.19,0-0.38,0.01-0.57,0.01c-1.57,0.71-1.88,2.49-3.01,3.6C1753.08,533.04,1754.19,533.61,1754.75,534.07z"/>
<path class="st1" d="M1758.89,526.64c1.7-0.07,3.41,0.16,5.09-0.22c2.13,0.11,1.92-1.35,1.94-2.66c-1.4-0.14-2.52-1.08-3.82-1.49
	c-1.04-0.3-2.11-0.86-3.02,0.27c-0.61,1.5-0.67,3.26-1.85,4.48C1757.75,526.78,1758.3,526.64,1758.89,526.64z"/>
<path class="st1" d="M1755.17,526.82c-0.12-0.64,0.03-1.28,0.3-1.81c0.85-1.63-0.4-1.36-1.16-1.55c0.32,0.52-0.06,1.02-0.37,1.41
	C1752.4,526.85,1753.75,526.85,1755.17,526.82z"/>
<path class="st1" d="M1773.09,515.1c1.25,0.39,2.02,0.01,2.38-1.19c1.06-3.62,4.22-5.07,7.03-6.88c-0.63-1.17-2.54-0.71-3.03-2.07
	c-2.3-0.52-2.01-2.73-2.5-4.29c-0.32-1.01-0.55-2.08-0.92-3.09c-2.39-0.46-3.91,0.66-4.77,2.75c-0.43,1.04-0.84,1.76-1.98,0.86
	c-0.86-0.68-2.48-1.04-1.35-2.73c0.31-0.47,0.67-0.94,0.82-1.47c0.21-0.73,1.17-1.54,0.23-2.25c-0.91-0.69-1.79-0.14-2.49,0.57
	c-0.39,0.4-1.01,0.89-1,1.31c0.21,4.73-4.13,7.41-5.12,11.58c0,1.12,0.01,2.25,0.01,3.37c0.34,2.44,0.59,4.93,2.65,6.64
	c0.03-0.02,0.05-0.05,0.07-0.07c2.03-0.67,4.09-1.27,5.9-2.5C1770.25,514.83,1771.68,514.67,1773.09,515.1z"/>
<path class="st1" d="M1769.43,525.24c0.12-0.03,0.24-0.07,0.35-0.12c-0.07-0.01-0.14-0.02-0.21-0.04
	C1769.41,525.09,1769.36,525.25,1769.43,525.24z"/>
<path class="st1" d="M1786.69,494.74c0,0.01-0.01,0.02-0.01,0.03c0,0.06-0.01,0.12-0.01,0.18
	C1786.68,494.89,1786.69,494.81,1786.69,494.74z"/>
<path class="st1" d="M1603.7,660.47c0.8-0.5,2.3-0.73,1.96-2.01c-0.27-1.01-1.59-1.21-2.58-1.45c-3.6-0.9-5.43,0.3-6.32,4.02
	c-0.63,2.66-0.12,5.41-0.51,8.09C1597.42,665.26,1600.22,662.63,1603.7,660.47z"/>
<path class="st1" d="M1595.12,687.63c-0.15-0.1-0.17-0.23-0.07-0.38c0,0,0,0,0,0c-0.8-2.95-0.65-5.9-0.01-8.85
	c0.02-1.07,0.05-2.14,0.07-3.2c0.44-0.94,0.19-2,0.33-3c-0.19,0.49-0.45,0.95-0.87,1.33c-0.91,1.42-1.73,2.91-2.74,4.26
	c-2.49,3.31-3.41,7.14-2.24,11.2c1.97,0.49,3.96,0.95,5.99,1.38C1595.24,689.5,1595.02,688.61,1595.12,687.63z"/>
<path class="st1" d="M1597,676.73c-0.13,0.74-0.11,1.49-0.29,2.23c-0.62,2.62,0.13,5.32-0.5,7.93c-0.01,0.02-0.02,0.03-0.03,0.05
	c0.07,0.02,0.14,0.04,0.22,0.09c0.86,1.09,0.91,2.61,1.58,3.81c0.44,0.09,0.88,0.17,1.32,0.26c0.93-1.66,2.17-3.05,3.89-4
	c-0.02-0.12-0.05-0.25-0.1-0.36c0.45-2.22,1.18-4.38,2.25-6.33c1.52-2.75,2.15-5.5,1.49-8.6c-0.75-3.49-0.07-6.87,1.22-10.17
	C1600.6,663.95,1598.17,669.89,1597,676.73z"/>
<path class="st1" d="M1595.8,671.15c0.01-0.08,0.03-0.16,0.04-0.24c-0.03,0.12-0.07,0.24-0.1,0.36
	C1595.76,671.23,1595.78,671.19,1595.8,671.15z"/>
<path class="st1" d="M1758.28,617.52c0.52-0.59,1.15-1.37,2.14-0.99c-0.01-0.06-0.01-0.12-0.02-0.18c-0.06-1.05,0.61-1.79,1.24-2.41
	c2.74-2.64,5.56-5.21,8.08-8.07c0.21-0.24,0.52-0.3,0.84-0.3c0.08-1.27,0.86-1.91,2.04-2.18c0.26-2.13,1.47-3.61,3.17-4.76
	c-0.01-0.04-0.02-0.08-0.03-0.12c0.01-1.65,0.93-3.02,1.41-4.53c1.49-4.77,0.34-8.76-3.62-11.7c-5.32-3.95-11.46-6.33-17.52-8.82
	c-0.6-0.25-1.26-0.36-1.92-0.42c-0.99-0.09-1.93,0.08-2.36,1.1c-0.41,0.97,0.28,1.6,0.91,2.16c1.94,1.71,4.41,2.44,6.69,3.51
	c1.12,0.53,2.57,0.7,2.98,2.14c4.54,0.19,9.46,4.91,10.09,9.71c0.85,6.39-3.97,16.02-9.68,19.37c0.15,0.74-0.21,1.04-0.84,1.1
	c0.02,0.21,0.01,0.41-0.11,0.54c-3.5,3.77-6.59,7.94-10.71,11.11c0.04,0.07,0.08,0.13,0.11,0.21c0.15,0.58,0.04,1.15-0.27,1.62
	c-1.75,2.65-2.52,5.6-2.96,8.66C1749.88,627.81,1753.86,622.53,1758.28,617.52z"/>
<path class="st1" d="M1738.78,589.51c0.43-0.5,0.81-1.03,1.18-1.57c2.51-3.73,2.43-3.94-1.89-4.84c-2.71-0.42-5.43-0.24-8.15-0.1
	c-0.3,0.05-0.59,0.03-0.88-0.04c-0.1-0.05-0.2-0.11-0.29-0.17c-0.53,0.62-1.39,0.55-2.07,0.87c-0.01,0.01-0.01,0.02-0.02,0.02
	c1.27-0.08,1.81,0.96,2.45,1.77c1.47,1.86,3.29,3.32,5.21,4.67C1736.01,591.3,1737.48,591.04,1738.78,589.51z"/>
<path class="st1" d="M1666.39,627.68c0.11,0.01,0.23,0.03,0.35,0.05c-0.01-0.04-0.01-0.07-0.02-0.11c0-0.02,0.02-0.04,0.02-0.07
	C1666.62,627.59,1666.51,627.64,1666.39,627.68z"/>
<path class="st1" d="M1712.54,530.85c0.17-1.05,0.52-2.02,0.94-2.96c-0.41,0.64-0.88,1.25-1.51,1.76c-0.46,0.72-0.86,1.46-1.25,2.21
	c0.02,1.13,0.03,2.28,0.04,3.43c0.04-0.1,0.07-0.2,0.11-0.29C1711.43,533.61,1711.99,532.23,1712.54,530.85z"/>
<path class="st1" d="M1722.09,579.12c-3.39-5.42-6.64-10.91-12.22-14.5c-0.27-0.17-0.54-0.33-0.82-0.49
	c-0.62,4.44-1.39,8.7-2.34,12.75c-0.84,3.6-1.85,7.02-2.97,10.29c4.28-1.68,8.7-2.99,13.28-3.89c0.64-1.77,2.48-1.27,3.79-1.51
	C1722.74,581.42,1723.21,580.91,1722.09,579.12z"/>
<path class="st1" d="M1714.76,525.42c0.37-0.67,0.73-1.34,1.06-2.02C1715.42,524.04,1715.08,524.72,1714.76,525.42z"/>
<path class="st1" d="M1614.68,667.02c0.09,0,0.16,0.01,0.25,0.02c3.23-4.43,5.89-9.26,9.44-13.47c-0.15-1.08,1.48-1.39,1.11-2.56
	c-0.37,0.02-0.89-0.11-1.1,0.09c-5.46,5.07-11.44,9.79-12.66,17.86c-0.06,0.4-0.05,0.81-0.03,1.22c0.47-0.29,0.86-0.78,1.46-0.76
	C1612.85,668.16,1613.56,667.48,1614.68,667.02z"/>
<path class="st1" d="M1589.26,463.84c-0.05-0.11-0.1-0.21-0.15-0.32c-0.05,0.04-0.09,0.08-0.14,0.12
	C1589.06,463.71,1589.16,463.77,1589.26,463.84z"/>
<path class="st1" d="M1585.98,401.63C1585.71,401.73,1585.84,401.7,1585.98,401.63L1585.98,401.63z"/>
<path class="st1" d="M1588.83,462.85c-0.12-0.05-0.25-0.1-0.37-0.15c0.09,0.1,0.18,0.2,0.28,0.29
	C1588.77,462.94,1588.8,462.89,1588.83,462.85z"/>
<path class="st1" d="M1583.14,396.75c-2.92-1.11-5.46-1.99-8.49-1.44c4.42,2.36,2.32,6.05,1.89,9.56c0.7-0.18,1.11-0.38,1.52-0.37
	c1.18,0.03,2.79-0.27,3.42,0.36c0.64,0.65,0.64,2.33,0.37,3.42c-0.61,2.4-1.58,4.71-2.38,7.06c-0.1,0.28-0.1,0.6-0.16,0.99
	c4.34-2.5,9.55-11.19,8.45-14.95c-0.65,1.57-1.1,2.65-1.59,3.84c-1.02-1.36-1.72-2.94-2.94-3.72c-1.29-0.82-3.07-0.88-4.65-1.27
	C1578.84,398.89,1579,398.76,1583.14,396.75z"/>
<path class="st1" d="M1586.85,412.57c3.34-2.48,5.46-5.6,4.75-9.88c-0.76-4.58-3.5-7.89-7.8-9.6c-1.99-0.79-4.12-1.28-6.24-1.71
	c-1.57,0.65-3.11,1.32-4.64,2.01c-0.02,0.16-0.04,0.3-0.05,0.48c4.98-0.35,9.49,0.54,13.51,3.96c-1.65,0.37-3.3,0.74-5.34,1.19
	c1.86,0.97,3.24,1.68,4.99,2.59c0.79-0.44,1.57-0.88,2.36-1.33c0.42,0.92,1.16,1.83,1.17,2.75c0.01,1.26-0.2,2.76-0.89,3.75
	c-2.49,3.56-5.19,6.97-7.9,10.36c-0.4,0.5-1.32,0.58-2,0.85c-0.21-0.75-0.74-1.59-0.57-2.24c0.62-2.4,1.53-4.73,2.22-7.12
	c0.26-0.89,0.2-1.88,0.28-2.82c-0.89,0.05-1.84-0.06-2.67,0.2c-2.1,0.64-3.01-0.05-2.7-2.29c0.13-0.97,0.44-1.92,0.64-2.89
	c0.46-2.22-0.14-3.51-3.01-4.93c-0.78-0.39-2.31,0.3-3.29,0.85c-1.52,0.86-2.93,1.95-4.26,3.09c-0.65,0.55-1.35,1.4-1.44,2.18
	c-0.21,1.85-1.1,2.87-2.85,3.23c-1.31,0.27-1.62,0.91-1.83,2.37c-0.41,2.95-1.61,5.78-2.33,8.7c-0.3,1.2-0.73,2.91-0.15,3.65
	c0.59,0.75,2.39,0.93,3.57,0.76c2.64-0.38,5.25-1.04,7.82-1.77c1.82-0.52,2.89-1.85,3.36-3.76c0.36-1.45,1.01-2.84,1.64-4.2
	c0.17-0.37,0.71-0.58,1.08-0.86c0.21,0.49,0.59,0.97,0.6,1.46c0.05,2.41-0.13,4.82,0.02,7.22c0.1,1.7,0.91,3.23,2.8,3.56
	c1.9,0.33,3.73-1,4.3-3.13C1582.74,416.35,1584.55,414.28,1586.85,412.57z"/>
<path class="st1" d="M1587.46,461.04C1587.46,461.04,1587.46,461.04,1587.46,461.04c-0.01-0.01-0.02-0.01-0.03-0.01
	C1587.44,461.04,1587.45,461.04,1587.46,461.04z"/>
<path class="st1" d="M1588.29,462.45c0.01-0.08,0.02-0.16,0.02-0.24c-0.04,0.02-0.11,0.05-0.11,0.05
	C1588.23,462.32,1588.26,462.39,1588.29,462.45z"/>
<path class="st1" d="M1624.47,406.38c-1.16-0.66-2.26-1.18-3.23-1.88c-0.93-0.68-1.73-1.55-2.58-2.33c-0.51,2.32,0.81,5.34,1.88,5.4
	C1622.02,407.65,1623.66,407.76,1624.47,406.38z"/>
<path class="st1" d="M1582.23,598.15c-3.81-5.37-7.48-10.83-11.31-16.19c-1.08-1.51-2.5-2.77-3.8-4.11
	c-0.94-0.96-2.11-0.62-2.45,0.34c-1.04,2.95-3.12,4.53-6.06,5.49c2.51,1.08,5.07,2.06,7.52,3.26c7.38,3.6,11.9,9.75,15,17.13
	c0.45,1.07,0.92,2.17,1.56,3.13c1.16,1.74,2.79,1.68,3.87-0.11c0.6-0.99,1.02-2.01,1.31-3.04c-1.03-1.76-2.01-3.59-2.92-5.47
	c-0.01,0.39-0.03,0.85-0.02,1.41C1583.69,599.16,1582.71,598.83,1582.23,598.15z"/>
<path class="st1" d="M1627.93,404.05c-0.59,0.32-1.33,0.85-1.49,1.43c-0.76,2.89-3.29,3.55-5.88,3.38
	c-0.96-0.06-1.91-0.24-2.86-0.36c-0.42,0.74-0.69,1.83-1.32,2.13c-6.96,3.39-13.95,6.73-21.02,9.88c-1.52,0.68-3.39,0.57-5.29,0.85
	c1.59,2.01,2.92,4.33,1.15,7.64c5.25-3.02,10.82-3.84,15.09-7.51c3.7-3.18,8.42-4.43,12.87-6.04c4.36-1.58,7.46-4.38,9.87-8.18
	c1.36-2.15,3.46-4.09,4.01-6.42c0.69-2.9,1.65-6.19-0.66-9.13c0.07,1.11,0.09,2.23,0.22,3.34
	C1633.13,399.31,1631.72,401.98,1627.93,404.05z"/>
<path class="st1" d="M1589.08,468.61C1589.08,468.61,1589.08,468.61,1589.08,468.61c0.11,0.02,0.22,0.04,0.33,0.06c0,0,0,0,0,0
	C1589.3,468.65,1589.19,468.63,1589.08,468.61z"/>
<path class="st1" d="M1552.14,550.58c-3.79-0.72-7.5-0.36-9.98,3.23c-0.68,0.99-1.11,2.15-1.65,3.23c1.2,0.4,2.38,1.12,3.6,1.17
	c8.77,0.34,17.54,0.58,26.32,0.8c1.48,0.04,2.94,0.12,4.37,0.31c-0.14-1.31-0.27-2.63-0.39-3.96c-3.35-0.52-6.69-1.11-10-1.78
	C1560.28,552.74,1556.27,551.36,1552.14,550.58z"/>
<path class="st1" d="M1508.04,511.13c-0.34,0.42-0.8,0.83-0.93,1.32c-0.31,1.22-0.2,2.61-0.72,3.72c-3.04,6.54-6.26,12.98-9.3,19.52
	c-1.07,2.31-1.82,4.78-2.61,7.21c-0.13,0.4,0.31,0.99,0.48,1.49c0.33-0.14,0.82-0.19,0.98-0.45c2.77-4.35,5.54-8.7,8.23-13.1
	c2.45-4.01,4.77-8.11,7.22-12.12c0.35-0.58,1.08-0.93,1.63-1.38c0.13,0.15,0.26,0.3,0.39,0.45c-5.36,8.92-10.72,17.85-16.11,26.82
	c1.11,0.44,2.28,0.74,3.27,1.33c3.14,1.87,6.3,3.73,9.29,5.83c2.71,1.91,5.53,3.93,4.94,7.97c-0.03,0.17,0.12,0.37,0.18,0.56
	c1.92,6.28,6.14,10.29,12.41,11.92c8.49,2.22,17.14,3.2,25.94,2.74c2.24-0.12,4.49-0.08,7.2-0.13c-0.99,2.64-1.78,4.74-2.66,7.09
	c2.87-0.47,4.6-1.49,5.45-3.93c0.71-2.03,2.71-2.53,4.5-1.32c0.7,0.47,1.42,1,1.9,1.67c2.69,3.75,5.3,7.56,7.94,11.34
	c1.79,2.56,3.6,5.1,5.4,7.64c0.37-0.48,0.37-0.73,0.3-0.96c-0.8-2.53-1.61-5.05-2.42-7.57c-0.59-1.71-1.14-3.45-1.66-5.24
	c-0.41-1.31-0.83-2.62-1.24-3.93c-0.7-2.26-1.84-4.5-1.28-6.92c-0.19-1.01-0.38-2.03-0.55-3.06c-2.18,0.4-4.37,0.76-6.56,1.11
	c-8.55,1.36-17.05,3.44-25.8,2.75c-5.09-0.4-10.19-0.92-15.19-1.89c-2.47-0.48-5.07-1.67-7.02-3.26c-4.19-3.43-5.55-8.38-5.86-13.62
	c-0.15-2.49,1.15-4.19,3.6-4.57c1.86-0.29,3.77-0.22,5.65-0.35c3.7-0.25,7.42-0.39,11.1-0.86c2.49-0.32,4.9-1.34,7.39-1.64
	c1.93-0.23,2.58-1.02,2.68-2.84c0.39-6.89,2.55-13.17,6.42-18.93c5.35-7.98,7.94-16.73,7.18-26.43
	c-0.57-7.36-5.56-12.45-12.81-12.34c-4.82,0.08-9.67,0.35-14.44,1.02c-3.35,0.47-6.59,1.74-10.29,2.76c1.59,1.59,2.76,2.7,3.84,3.88
	c1.27,1.38,2.51,1.63,4.07,0.38c2.37-1.89,5.09-2.09,7.77-0.86c5.48,2.49,10.15,6.14,14.11,10.64c2.07,2.35,1.17,5.11-1.9,5.57
	c-3,0.45-6.11,0.44-9.15,0.25c-3.13-0.2-6.22-0.96-9.35-1.25c-0.88-0.08-2.55,0.55-2.61,1.01c-0.13,0.99,0.52,2.1,0.94,3.12
	c0.13,0.32,0.59,0.5,0.85,0.79c1.41,1.53,3.02,2.93,4.16,4.64c3.06,4.59,3.9,9.41,0.42,14.22c-0.98,1.36-2.17,2.6-3.42,3.72
	c-4.18,3.77-8.66,7.11-14.01,9.05c-2.24,0.81-3.25,0.03-2.87-2.22c0.93-5.51,1.96-11,2.98-16.49c0.07-0.37,0.36-0.7,0.55-1.04
	c0.24,0.06,0.47,0.12,0.71,0.18c-1.1,6.11-2.19,12.22-3.36,18.76c1.09-0.3,1.71-0.4,2.27-0.64c4.79-2.06,9.06-4.98,12.79-8.56
	c1.8-1.73,3.58-3.76,4.57-6c1.87-4.24,0.15-8.07-2.58-11.42c-1.39-1.71-3.09-3.16-4.57-4.79c-1.04-1.15-1.57-2.69-0.59-3.92
	c0.69-0.87,2.13-1.65,3.19-1.6c3.19,0.17,6.35,0.95,9.55,1.14c3.1,0.18,6.26,0.1,9.35-0.23c1.91-0.21,2.27-1.71,1.15-3.35
	c-0.3-0.43-0.57-0.91-0.96-1.23c-2.75-2.3-5.39-4.76-8.34-6.79c-3.77-2.59-7.76-4.68-12.17-0.94c-1.06,0.89-2.39,0.57-3.43-0.37
	c-1.06-0.96-2.06-1.98-3.1-2.96c-2.04-1.93-3.14-1.81-4.74,0.59c-0.43,0.65-0.72,1.4-1.11,2.08c-2.22,3.82-4.45,7.64-6.67,11.46
	C1510.34,507.28,1508.71,510.28,1508.04,511.13z"/>
<path class="st1" d="M1513.24,530.98c-0.31-0.08-0.61-0.16-0.92-0.24c0.39-2.71,0.78-5.41,1.21-8.44c1.04,0.92,1.71,1.51,2.61,2.31
	C1515.3,526.62,1514.88,529.09,1513.24,530.98z"/>
<path class="st1" d="M1514.23,519.99c0.43-0.48,0.86-0.96,1.28-1.44c0.16,0.14,0.33,0.27,0.49,0.41c-0.42,0.52-0.83,1.05-1.25,1.57
	C1514.58,520.35,1514.4,520.17,1514.23,519.99z"/>
<path class="st1" d="M1516.41,522.89c-0.11-0.19-0.31-0.39-0.31-0.58c0-0.17,0.23-0.34,0.44-0.63c0.27,0.37,0.41,0.57,0.55,0.76
	C1516.85,522.59,1516.63,522.74,1516.41,522.89z"/>
<path class="st1" d="M1520.81,513.51c0.33-0.45,1.17-0.53,1.78-0.77c0.12,0.58,0.46,1.23,0.32,1.74c-0.77,2.84-1.63,5.66-2.51,8.46
	c-0.14,0.45-0.6,0.79-0.91,1.18c-0.17-0.09-0.35-0.18-0.52-0.28c0.86-2.87,1.72-5.75,2.63-8.79c-1.89,0.86-1.51,3.44-3.69,3.54
	C1518.68,516.74,1519.66,515.06,1520.81,513.51z"/>
<path class="st1" d="M1517.39,520.83c-0.16-0.14-0.3-0.33-0.38-0.53c-0.02-0.04,0.25-0.19,0.52-0.39c0.11,0.27,0.25,0.46,0.23,0.65
	C1517.76,520.66,1517.42,520.85,1517.39,520.83z"/>
<path class="st1" d="M1516.35,511.63c0.26-0.16,1.12,0.14,1.25,0.43c0.51,1.14-0.62,3.67-1.8,4.43c-0.17-1.07-0.36-2.2-0.6-3.71
	C1515.35,512.61,1515.77,511.98,1516.35,511.63z"/>
<path class="st1" d="M1514.01,514.58c0.13,0.07,0.27,0.14,0.4,0.21c-0.19,0.45-0.38,0.9-0.57,1.35c-0.19-0.1-0.38-0.2-0.57-0.29
	C1513.52,515.43,1513.76,515.01,1514.01,514.58z"/>
<g>
	<path class="st0" d="M1787.5,485.61c-1.21-6.1-2.66-11.96-4.37-17.57c-5.85-19.21-14.77-35.39-26.78-48.55
		c-12.01-13.15-27.2-23.12-45.57-29.91c-18.38-6.78-40.09-10.18-65.14-10.18c-4.84,0-9.56,0.14-14.17,0.41
		c1.37,1.53,1.84,3.55,1.47,5.78c-0.23,1.34-1.02,2.59-1.55,3.88c-1.15-0.68-2.3-1.35-3.45-2.03c-0.05-0.03-0.08-0.1-0.13-0.15
		c-3.02-2.87-6.46-4.92-10.32-6.18c-1.94,0.25-3.84,0.53-5.73,0.83c0,0.04-0.01,0.07-0.01,0.12c2.68,0.93,4.27,2.92,5.59,5.25
		c3,5.29,6.09,10.53,9.17,15.83c4.04-0.97,5.33-4.71,4.87-7.71c-0.17-1.09-0.28-2.21-0.3-3.31c-0.03-1.44,0.17-2.78,2.14-2.31
		c0-0.84-0.15-1.59,0.04-2.24c0.19-0.62,0.73-1.14,1.11-1.7c0.48,0.43,1.18,0.77,1.4,1.3c0.58,1.44,0.94,2.96,1.4,4.44
		c0.66,2.16,0.66,4.19-0.68,6.2c-2.31,3.48-4.58,6.99-6.66,10.61c-2.72,4.71-6.98,7.24-11.91,8.9c-4.59,1.55-8.9,3.56-12.79,6.5
		c-1.53,1.16-3.3,2.19-5.12,2.76c-3.72,1.18-7.14,2.8-10.14,5.29c-0.26,0.21-0.76,0.12-1.55,0.22c0.58-1.16,0.91-2.01,1.39-2.76
		c1.42-2.23,1.53-4.38-0.15-6.53c-0.44-0.56-0.92-1.14-1.15-1.79c-0.19-0.54-0.21-1.28,0.03-1.76c0.11-0.22,1.03-0.09,1.58-0.03
		c1.39,0.14,2.81,0.62,4.14,0.41c1.5-0.24,2.94-0.99,4.34-1.67c5.05-2.42,10.07-4.9,15.11-7.36c0.59-0.29,1.18-0.6,1.77-0.9
		c-0.62-0.35-1.12-0.33-1.6-0.24c-2.5,0.45-5.02,0.81-7.49,1.39c-6.82,1.59-13.53,3.57-19.44,7.46c-1.93,1.27-4.28,2.46-4.56,5.28
		c-0.29,2.99-0.2,5.4,2.7,7.72c4.53,3.62,6.86,8.87,7.56,14.75c0.22,1.84,0.44,3.9,1.4,5.38c1.37,2.12,2.97,4.11,4.64,6.03
		c4-3.76,8.51-6.87,13.54-9.32c8.77-4.28,19-6.42,30.69-6.42c13.15,0,24.06,2.4,32.73,7.2c8.66,4.81,15.61,11.49,20.83,20.04
		c3.6,5.9,6.46,12.54,8.62,19.88c1.45-1.16,2.97-2.24,4.63-3.19c0.54-0.31,1.01-0.9,1.76-0.54c0.55-0.16,0.81-0.95,1.54-0.68
		c0,0,0,0,0,0c1.79-0.82,3.58-0.68,5.36,0c4.71,0.69,9.18,2.1,13.61,3.86c7.45,2.97,13.05,8.39,18.84,13.6
		c0.76,0.68,1.37,1.56,1.36,2.69c0,0,0,0,0,0c0.87,2.2,0.72,4.41-0.01,6.61c0,0,0,0,0,0c-0.84,2.83-1.75,5.62-3.99,7.72
		c-0.16,0.97-0.92,1.37-1.68,1.78c-5.13,4.65-11.05,5.54-17.5,3.56c-2.39-0.73-4.74-1.64-6.8-3.13c-1.77,0.09-2.93,1.16-3.81,2.54
		c-3.35,5.21-6.19,10.67-7.55,16.76c-0.04,2.6-0.1,5.16-0.22,7.66c1.27,7.16,6.4,13.91,13.15,16.39c2.43,0.89,4.73,0.97,7.08-0.91
		c-2.58-2.21-4.58-4.73-4.34-8.33c0.35-5.4,3.01-9.75,6.32-13.8c0.81-1.55,1.91-2.86,3.24-3.99c0.84-1.1,1.74-2.14,3.03-2.74
		c2.22-2.37,5-3.95,7.95-5.11c2.21-0.87,4-1.78,4.38-4.38c0.11-0.71,0.57-1.38,1.27-1.78c0.09-1.33,1.47-1.98,2.14-2.06
		c2.53-0.33,2.43-1.92,2.47-3.77c0.05-2.61-0.46-5.14-0.71-7.71c-1.16-5-3.9-9.04-7.56-12.54c-0.49-0.47-1.44-0.87-1.05-1.78
		c0.29-0.68,1.14-0.51,1.77-0.6c2.88-0.42,5.75-0.82,8.55-1.62c1.8-0.51,3.25-1.4,3.98-3.21c4.35-8.01,13.49-9.55,20.71-2.41
		c1.33,1.31,2.59,2.77,2.45,4.87c-0.05,0.8,0.45,0.9,1.07,0.88c0.11-0.61,0.21-1.22,0.32-1.83c0.03-0.43,0.09-0.85,0.22-1.27
		C1786.86,488.71,1786.93,487.08,1787.5,485.61z"/>
</g>
<path class="st1" d="M1499.21,568.39c10.88,4.33,22.32,6.41,33.74,8.65c5.09,1,10.12,2.36,15.19,3.47c2.31,0.51,4.65,0.86,6.99,1.2
	c0.45,0.07,1.24-0.08,1.38-0.37c0.82-1.68,1.49-3.44,2.11-4.93c-6.36-0.21-12.71-0.15-19.01-0.7c-5.81-0.5-11.72-1.21-16.97-3.99
	c-5.15-2.73-8.59-7.03-9.12-13.03c-0.17-1.88-0.92-3.22-2.21-4.13c-3.72-2.63-7.55-5.12-11.43-7.52c-2.81-1.74-4.02-1.11-5.25,1.75
	c-0.75,1.76-1.38,3.51-1.79,5.28c0.16,3.36,0.39,6.66,0.68,9.9C1494.71,566.12,1496.77,567.41,1499.21,568.39z"/>
<path class="st1" d="M1634.9,389.19c0.17,1.27,0.32,2.55,0.5,3.82c0.14,1.01,0.31,2.03,0.52,3.35
	C1636.76,393.61,1636.05,391.37,1634.9,389.19z"/>
<path class="st1" d="M1617.66,408.44c-0.03-0.87,0.01-1.76-0.13-2.62c-0.11-0.7-0.61-1.36-0.63-2.04c-0.02-0.78,0.09-1.97,0.56-2.24
	c0.65-0.36,1.81-0.27,2.53,0.08c0.83,0.4,1.47,1.26,2.08,2c0.89,1.08,1.79,1.32,2.96,0.38c-0.11-0.31-0.16-0.57-0.28-0.79
	c-2.97-5.29-5.9-10.61-8.97-15.84c-0.76-1.3-1.93-2.41-3.05-3.45c-0.68-0.63-1.65-0.77-1.95,0.51c-1.4,5.97-1.42,11.78,2.06,17.17
	c0.69,1.07,1.25,2.23,2.08,3.72C1616.03,407.25,1616.83,408.04,1617.66,408.44z"/>
<path class="st1" d="M1634.85,388.96L1634.85,388.96c-0.03-0.08-0.05-0.12-0.06-0.15C1634.79,388.84,1634.82,388.9,1634.85,388.96z"
	/>
<path class="st1" d="M1634.87,388.82c0,0.03-0.01,0.07-0.02,0.13C1634.86,388.89,1634.87,388.85,1634.87,388.82z"/>
<path class="st1" d="M1603.7,393.07c0.15,5.15,4.43,10.04,8.87,10.49c-4.64-6.15-4.37-12.98-3.07-19.96
	C1605.13,384.43,1603.57,388.74,1603.7,393.07z"/>
<path class="st1" d="M1630.57,388.09c1.83-3.05,1.47-6.07-0.79-8.16c-3.21,0.22-6.36,0.5-9.46,0.85
	C1624.13,382.49,1627.52,384.98,1630.57,388.09z"/>
<path class="st1" d="M1571.79,443.87c-0.78-0.94-0.71-1.51,0.46-2.08c0.59-0.29,0.94-1.04,1.4-1.59c-0.7-0.26-1.43-0.8-2.1-0.73
	c-3.63,0.4-7.27,0.81-10.85,1.5c-2.8,0.54-3.52,2.12-2.47,4.8c2.11,5.35,6.47,7.81,11.77,9c0.9,0.2,1.83,0.25,2.71,0.49
	c3.01,0.82,3.52,1.72,2.82,4.72c-0.1,0.41-0.05,0.86-0.08,1.68c2.58-2.36,2.59-5.22,0.04-6.65c-1.6-0.9-3.54-1.32-5.38-1.63
	c-5-0.86-8.65-3.37-10.76-8.06c-0.77-1.72-0.09-2.75,1.45-3.06c3.11-0.62,6.27-0.99,8.93-1.39c0.34,1.39,0.32,2.73,0.94,3.63
	c1.91,2.79,4.05,5.44,6.14,8.1c0.3,0.38,0.87,0.54,1.31,0.8c0.17-0.17,0.34-0.34,0.5-0.52c-1.32-1.78-2.62-3.57-3.96-5.34
	C1573.74,446.3,1572.78,445.07,1571.79,443.87z"/>
<path class="st1" d="M1557.51,482.49c0.25-0.47,0.5-0.95,0.77-1.41C1558.03,481.52,1557.77,482,1557.51,482.49z"/>
<path class="st1" d="M1546.11,547.84c-0.18,0.16-0.37,0.28-0.56,0.34c-3.43,0.97-6.93,1.91-10.47,2.31
	c-4.19,0.47-8.45,0.51-12.68,0.5c-3.21-0.01-5.38,1.04-5.33,3.3c0.13,6.16,2.68,14.21,11.33,16.09c8.7,1.89,17.46,2.86,26.34,1.44
	c5.54-0.88,11.09-1.68,16.63-2.6c1.54-0.26,3.08-0.54,4.62-0.83c-0.41-2.59-0.78-5.22-1.09-7.9c-0.28-0.03-0.57-0.06-0.86-0.07
	c-8.57-0.35-17.16-0.46-25.73-0.7c-1.97-0.05-3.94-0.14-5.89-0.33c-2.78-0.27-3.92-1.89-2.75-4.21c1.38-2.72,3.36-4.95,6.54-5.74
	c0.39-0.1,0.79-0.17,1.18-0.23C1546.34,549.26,1546.08,548.58,1546.11,547.84z"/>
<path class="st1" d="M1546.88,546.81l-0.33-0.73c0,0-0.4,0.92-0.43,1.77C1546.4,547.58,1546.66,547.21,1546.88,546.81z"/>
<path class="st1" d="M1547.94,549.15L1547.94,549.15c-0.18,0.02-0.36,0.04-0.54,0.07C1547.56,549.21,1547.74,549.19,1547.94,549.15z
	"/>
<path class="st1" d="M1546.11,547.84c-0.03,0.74,0.23,1.41,1.29,1.37c0.18-0.03,0.36-0.05,0.54-0.07l-1.06-2.34
	C1546.66,547.21,1546.4,547.58,1546.11,547.84z"/>
<path class="st1" d="M1571.79,443.87c-0.78-0.94-0.71-1.51,0.46-2.08c0.59-0.29,0.94-1.04,1.4-1.59c-0.7-0.26-1.43-0.8-2.1-0.73
	c-3.63,0.4-7.27,0.81-10.85,1.5c-2.8,0.54-3.52,2.12-2.47,4.8c2.11,5.35,6.47,7.81,11.77,9c0.9,0.2,1.83,0.25,2.71,0.49
	c3.01,0.82,3.52,1.72,2.82,4.72c-0.1,0.41-0.05,0.86-0.08,1.68c2.58-2.36,2.59-5.22,0.04-6.65c-1.6-0.9-3.54-1.32-5.38-1.63
	c-5-0.86-8.65-3.37-10.76-8.06c-0.77-1.72-0.09-2.75,1.45-3.06c3.11-0.62,6.27-0.99,8.93-1.39c0.34,1.39,0.32,2.73,0.94,3.63
	c1.91,2.79,4.05,5.44,6.14,8.1c0.3,0.38,0.87,0.54,1.31,0.8c0.17-0.17,0.34-0.34,0.5-0.52c-1.32-1.78-2.62-3.57-3.96-5.34
	C1573.74,446.3,1572.78,445.07,1571.79,443.87z"/>
<path class="st1" d="M1585.6,455.72c2.21,3.05,4.54,6.07,6.2,9.43c1.81-2.45,3.76-4.71,5.87-6.79c-0.42-0.42-0.85-0.83-1.25-1.27
	c-2.56-2.78-5.02-5.86-5.2-9.9c-0.3-6.72-3.38-11.9-8.33-16.2c-0.89-0.77-1.36-0.69-2.27,0.05c-1.07,0.87-2.44,1.83-3.72,1.9
	c-4.37,0.24-8.77,0.35-13.12,0.05c-8.8-0.6-18.56,4.93-21.96,13.19c-1.19,2.89-1.87,6-2.61,9.06c-1.68,6.91-5.11,13.04-8.36,19.26
	c-0.78,1.49-1.37,3.07-2.05,4.61c0.18,0.1,0.37,0.21,0.55,0.31c2.62-4.08,5.4-8.08,7.82-12.28c1.95-3.4,3.63-6.97,5.11-10.61
	c1.67-4.12,2.87-8.44,4.51-12.58c0.61-1.55,1.36-3.33,3.7-4.13c-0.13,1.07-0.22,1.74-0.3,2.42c-0.12,0.97-0.49,1.99-0.32,2.9
	c1.09,5.72,4.88,9.13,9.96,11.42c1.06,0.48,1.99,1.25,2.99,1.89c-1,0.58-1.94,1.35-3.01,1.69c-7.63,2.45-13.91,6.87-18.9,13.08
	c-1.02,1.27-2.2,2.79-1.65,4.9c0.34-0.17,0.61-0.23,0.76-0.4c0.94-1.08,1.82-2.2,2.77-3.27c2.52-2.84,5.5-2.89,7.8,0.12
	c1.96,2.57,3.6,5.4,5.39,8.14c0.38-0.7,0.9-1.73,1.48-2.72c3.91-6.67,9.3-12.03,15.12-17.01c0.56-0.48,1.4-0.63,2.1-0.93
	c0.04,0.07,0.07,0.14,0.11,0.2c2.19-1.94,4.51-2.86,5.64-3.23c-0.1-0.14-0.21-0.27-0.31-0.41c-0.32-0.43-0.13-1.25-0.17-1.89
	c0.17-0.05,0.33-0.09,0.5-0.14c0.38,0.56,0.74,1.14,1.14,1.69c2.5,3.44,5.02,6.87,7.53,10.31c-0.05-0.65,0.09-1.4-0.19-1.92
	c-2.09-3.97-4.3-7.88-6.4-11.85c-0.33-0.62-0.29-1.43-0.43-2.15c0.24-0.11,0.48-0.21,0.73-0.32
	C1583.73,453.48,1584.74,454.55,1585.6,455.72z"/>
<path class="st1" d="M1578.13,453.4c-0.44-0.26-1.02-0.43-1.31-0.8c-2.1-2.66-4.23-5.3-6.14-8.1c-0.62-0.9-0.6-2.24-0.94-3.63
	c-2.66,0.4-5.82,0.77-8.93,1.39c-1.54,0.31-2.22,1.34-1.45,3.06c2.11,4.7,5.76,7.2,10.76,8.06c1.84,0.32,3.79,0.73,5.38,1.63
	c2.54,1.44,2.54,4.3-0.04,6.65c0.03-0.82-0.01-1.26,0.08-1.68c0.7-3,0.19-3.9-2.82-4.72c-0.88-0.24-1.82-0.28-2.71-0.49
	c-5.3-1.19-9.66-3.65-11.77-9c-1.05-2.68-0.33-4.26,2.47-4.8c3.58-0.69,7.22-1.1,10.85-1.5c0.66-0.07,1.4,0.47,2.1,0.73
	c-0.46,0.54-0.82,1.3-1.4,1.59c-1.17,0.57-1.25,1.14-0.46,2.08c1,1.2,1.95,2.43,2.89,3.67c1.34,1.77,2.64,3.56,3.96,5.34
	C1578.47,453.05,1578.3,453.22,1578.13,453.4z"/>
<path class="st1" d="M1574.7,462.84c0.08-0.08,0.16-0.16,0.25-0.24c-0.06-0.11-0.12-0.23-0.19-0.34"/>
<path class="st1" d="M1581.11,458.83c0,0-0.27,0.06-0.71,0.2c0.04,0.06,0.08,0.11,0.13,0.16L1581.11,458.83z"/>
<path class="st1" d="M1574.94,462.6c-0.08,0.08-0.16,0.16-0.25,0.24l5.83-3.64c-0.04-0.06-0.08-0.11-0.13-0.16
	c-1.14,0.37-3.45,1.29-5.64,3.23C1574.82,462.38,1574.88,462.49,1574.94,462.6z"/>
<path class="st1" d="M1750.07,653.16c-1.81-2.88-3.09-6.05-3.33-9.76c0-0.03,0-0.06,0-0.09c0-0.05,0-0.11,0-0.16
	c0.01-0.74-0.81-1.15-1.44-0.75c-0.46,0.3-1.02,0.46-1.71,0.46c-0.21-0.04-0.41-0.09-0.61-0.15c-2.05,0.75-4.03,0.34-5.96-0.56
	c-0.13,0.05-0.26,0.09-0.4,0.12c-3.17-0.84-4.83-3.04-5.54-6.09l-4.15,1.85c0.03,0.03,0.04,0.05,0.07,0.08
	c-0.99,0.89-2.12,1.63-3.3,2.31c-0.31,0.18-0.49,0.52-0.45,0.88c0.04,0.42,0,0.84-0.05,1.27c-0.48,3.94,0.28,5.36,3.77,7.21
	c2.09,1.11,4.34,1.83,6.59,2.43c4.16,1.1,7.36,3.5,10.22,6.62c0.21,0.23,0.43,0.47,0.64,0.7c1.9-1.69,3.74-3.43,5.52-5.24
	C1750.25,653.99,1750.29,653.52,1750.07,653.16z"/>
<path class="st1" d="M1748.13,572.12c0.09,0.16,0.07,0.29-0.07,0.4c-0.02,1.46-0.43,2.82-1.05,4.13c-0.75,1.94-1.5,3.88-2.25,5.83
	c5.62,0.92,10.89,2.79,15.47,6.22c5.59,4.2,5.75,9.24,0.44,13.8c-1.91,1.64-4.09,2.97-6.19,4.36c-3.81,2.52-6.13,5.98-6.78,10.51
	c-0.49,3.43-0.93,6.86-1.4,10.29c-0.22,0.68-0.25,1.39-0.28,2.1c0.14-0.33,0.37-0.63,0.77-0.87c0.91-2.07,1.83-4.13,3.44-5.79
	c2.98-4.44,6.8-8.11,10.69-11.71c0.39-0.42,0.78-0.85,1.18-1.27c-0.08-0.97,1.04-1.24,1.21-2.05c0.21-0.49,0.48-0.93,1.01-1.14
	c2.31-2.69,4.21-5.63,5.38-8.99c1.99-5.7,0.43-10.03-4.73-13.14c-1.15-0.69-2.36-1.29-3.55-1.92c-0.12-0.04-0.24-0.1-0.37-0.2
	c-3.76-1.2-7.34-2.77-10.45-5.27c-1.23-0.99-1.78-2.14-1.28-3.68c0.4-1.25,1.1-2.18,2.19-2.64l-2.87-1.23
	C1748.66,570.64,1748.54,571.4,1748.13,572.12z"/>
<g>
	<g>
		<path class="st0" d="M721.29,674.32c-14.89-1.86-29.79-3.71-44.68-5.6c-11.37-1.44-19.15-8-21.43-18.01
			c-2.22-9.73,2.76-23.35,10.98-28.33c2.92-1.77,6.7-2.59,10.16-2.83c2.48-0.18,4.02-0.77,4.83-2.89c0.99-2.58,1.9-5.23,2.5-7.92
			c1.62-7.19,6.75-11.54,14.06-10.69c21.95,2.55,43.87,5.3,65.77,8.25c7.16,0.97,11.07,6.21,11.04,13.45
			c-0.01,1.67-0.24,3.34-0.14,5c0.25,4.03,0.89,7,6.19,8.09c7.58,1.56,10.88,8.03,12.68,15.1c3.91,15.39-3.42,28.94-17.36,31.75
			c-3.06,0.62-6.37,0.57-9.5,0.21C751.35,678.15,736.33,676.2,721.29,674.32z"/>
	</g>
	<g>
		<path class="st0" d="M699.25,589.03c7.67-31.78,15.24-63.12,22.87-94.74c14.37,1.8,28.75,3.6,43.32,5.42
			c-0.43,32.45-0.86,64.81-1.29,97.44C742.6,594.45,721.31,591.79,699.25,589.03z"/>
	</g>
	<g>
		<path class="st0" d="M734.76,381.11c5.02-2.14,9.43-4.02,14.14-6.03c-2.93-4.27-4.16-9.27-1.91-14.21
			c1.25-2.74,3.55-5.36,6.04-7.09c5.47-3.78,13.41-2.29,17.75,2.73c5.34,6.18,4.71,13.04-2.18,21.45
			c7.35,3.77,12.98,9.26,16.9,16.53c10.14,18.83,3.65,44.37-14.33,55.52c-1.73,1.07-4.17,1.71-6.17,1.5
			c-10.22-1.06-20.42-2.36-30.59-3.82c-1.89-0.27-4.04-1.26-5.37-2.61c-13.36-13.5-15.25-36.46-4.29-52.48
			c5.24,5.82,10.45,11.56,15.6,17.36c2.44,2.74,5.35,4.05,8.91,2.84c5.15-1.74,6.62-7.82,2.83-12.24
			C746.68,394.25,741.04,388.13,734.76,381.11z"/>
	</g>
	<g>
		<path class="st0" d="M702.06,474.16c29.36,3.67,58.43,7.31,87.49,10.95c-0.39,6.32-5.58,10.61-12.31,9.87
			c-9.39-1.02-18.76-2.3-28.14-3.48c-12.27-1.54-24.56-3.01-36.82-4.64C705.34,485.95,701.84,481.63,702.06,474.16z"/>
	</g>
	<g>
		<path class="st0" d="M782.46,476.68c-23.76-2.97-47.27-5.92-70.79-8.86c-1-5.35,3.91-10.71,9.75-10.25
			c5.39,0.42,10.74,1.26,16.11,1.93c11.97,1.49,23.95,2.96,35.91,4.51C780.19,464.89,783.37,469.26,782.46,476.68z"/>
	</g>
</g>
<path class="st3" d="M1261.51,571.76c-2.48,2.69-4.7,5.89-6.66,9.6c-1.97,3.72-2.94,7.85-2.94,12.39c0,5.99,2.63,10.9,7.9,14.72
	c5.27,3.82,12.65,5.94,22.15,6.35l8.22,0.3l11.48-32.6c-7.49-0.27-14.67-1.32-21.56-3.18
	C1272.04,577.18,1265.85,574.65,1261.51,571.76z"/>
<path class="st3" d="M1304.27,434.51c-7.64,0-14.36,1.29-20.14,3.87c-5.79,2.59-10.59,6.09-14.41,10.53
	c-3.82,4.44-6.66,9.6-8.52,15.49c-1.86,5.89-2.79,12.03-2.79,18.43c0,14.05,4.13,25.15,12.39,33.31
	c8.26,8.16,19.72,12.24,34.39,12.24c6.05,0,11.48-0.74,16.3-2.22l24.62-69.96c-1.83-3.46-4.1-6.57-6.84-9.31
	C1331.01,438.64,1319.34,434.51,1304.27,434.51z"/>
<path class="st3" d="M1262.9,735.65c10.43,5.37,25.14,8.06,44.15,8.06c11.77,0,21.69-1.19,29.74-3.56
	c8.06-2.38,14.56-5.53,19.52-9.45c4.96-3.93,8.47-8.32,10.53-13.17c2.06-4.86,3.1-9.97,3.1-15.34c0-9.29-3.72-16.42-11.15-21.38
	c-7.44-4.96-17.66-7.64-30.67-8.06l-55.46-1.55c-1.06,0.77-2.06,1.54-3.04,2.3l-18.41,52.3
	C1253.83,729.7,1257.72,732.98,1262.9,735.65z"/>
<path class="st3" d="M1259.81,682.52c-3.2,3.61-5.78,7.07-7.75,10.38c-1.97,3.3-3.25,6.51-3.87,9.6c-0.62,3.1-0.93,6.3-0.93,9.6
	c0,5.19,1.32,9.76,3.96,13.7l18.41-52.3C1265.66,676.61,1262.38,679.62,1259.81,682.52z"/>
<path class="st3" d="M1325.64,524.66c5.78-2.48,10.58-5.89,14.41-10.22c3.82-4.34,6.71-9.34,8.68-15.03
	c1.96-5.68,2.94-11.62,2.94-17.81c0-9.94-1.86-18.4-5.55-25.39l-24.62,69.96C1322.93,525.73,1324.32,525.23,1325.64,524.66z"/>
<path class="st1" d="M1305.2,528.38c-14.67,0-26.13-4.08-34.39-12.24c-8.26-8.16-12.39-19.26-12.39-33.31
	c0-6.4,0.93-12.55,2.79-18.43c1.86-5.89,4.7-11.05,8.52-15.49c3.82-4.44,8.62-7.95,14.41-10.53c5.78-2.58,12.49-3.87,20.14-3.87
	c15.07,0,26.75,4.13,35.01,12.39c2.74,2.74,5.01,5.85,6.84,9.31l24.54-69.73h-18.37c-6.82-1.86-14.2-3.3-22.15-4.34
	c-7.95-1.03-16.27-1.55-24.94-1.55c-16.94,0-32.43,2.32-46.47,6.97c-14.05,4.65-26.13,11.36-36.25,20.14
	c-10.12,8.78-18.02,19.52-23.7,32.22c-5.68,12.7-8.52,27.11-8.52,43.22c0,15.08,2.17,27.68,6.51,37.8
	c4.34,10.12,10.12,18.8,17.35,26.03c-8.88,8.06-16.11,17.09-21.69,27.11c-5.58,10.02-8.37,21.12-8.37,33.31
	c0,9.71,2.43,18.64,7.28,26.8c4.85,8.16,11.72,14.61,20.6,19.36c-6.4,4.75-12.08,9.71-17.04,14.87
	c-4.96,5.17-9.14,10.59-12.55,16.27c-3.41,5.68-5.99,11.62-7.75,17.82c-1.76,6.2-2.63,12.7-2.63,19.52
	c0,10.95,2.43,21.02,7.28,30.21c4.85,9.19,12.6,17.09,23.24,23.7c7.49,4.65,16.47,8.59,26.93,11.81l21.8-61.93
	c-2.64-3.94-3.96-8.51-3.96-13.7c0-3.31,0.31-6.51,0.93-9.6c0.62-3.1,1.91-6.3,3.87-9.6c1.96-3.31,4.54-6.77,7.75-10.38
	c2.57-2.9,5.85-5.9,9.82-9.01l20.55-58.38l-8.22-0.3c-9.5-0.41-16.89-2.53-22.15-6.35c-5.27-3.82-7.9-8.72-7.9-14.72
	c0-4.54,0.98-8.68,2.94-12.39c1.96-3.72,4.18-6.92,6.66-9.6c4.34,2.89,10.53,5.42,18.59,7.59c6.88,1.85,14.07,2.91,21.56,3.18
	l19.84-56.36C1316.67,527.64,1311.24,528.38,1305.2,528.38z"/>
<g>
	<path class="st0" d="M1448.33,438.22c2.27-4.75,3.41-12.08,3.41-22c0-10.74-1.08-18.38-3.25-22.93c-2.17-4.54-5.01-6.82-8.52-6.82
		h-69.31l-24.54,69.73c3.69,6.99,5.55,15.45,5.55,25.39c0,6.2-0.98,12.14-2.94,17.81c-1.97,5.68-4.86,10.69-8.68,15.03
		c-3.82,4.34-8.63,7.75-14.41,10.22c-1.33,0.57-2.71,1.06-4.15,1.5l-19.84,56.36c1.28,0.05,2.56,0.08,3.85,0.08
		c17.35,0,33.1-2.22,47.25-6.66c14.15-4.44,26.23-10.95,36.25-19.52c10.02-8.57,17.71-19.1,23.08-31.6
		c5.37-12.49,8.06-26.8,8.06-42.91c0-6.82-0.98-13.37-2.94-19.67c-1.97-6.3-5.22-11.93-9.76-16.89h32.53
		C1443.27,445.35,1446.06,442.98,1448.33,438.22z"/>
</g>
<g>
	<path class="st0" d="M1272.66,671.21l55.46,1.55c13.01,0.42,23.24,3.1,30.67,8.06c7.44,4.96,11.15,12.08,11.15,21.38
		c0,5.37-1.04,10.48-3.1,15.34c-2.07,4.85-5.58,9.24-10.53,13.17c-4.96,3.92-11.46,7.07-19.52,9.45
		c-8.06,2.37-17.97,3.56-29.74,3.56c-19.01,0-33.72-2.69-44.15-8.06c-5.18-2.67-9.08-5.95-11.68-9.85l-21.8,61.93
		c4.4,1.35,9.05,2.58,13.97,3.68c16.62,3.72,36.71,5.58,60.26,5.58c24.17,0,45.28-2.58,63.36-7.75
		c18.07-5.16,33.1-12.19,45.08-21.07c11.98-8.88,20.96-19.36,26.95-31.45c5.99-12.08,8.98-24.94,8.98-38.57
		c0-12.39-2.22-23.44-6.66-33.15c-4.44-9.71-10.84-18.02-19.21-24.94c-8.37-6.92-18.7-12.29-30.98-16.11
		c-12.29-3.82-26.29-6.04-41.98-6.66l-59.01-2.18l-20.55,58.38C1270.6,672.75,1271.61,671.98,1272.66,671.21z"/>
</g>
</svg>
