<svg width="99" height="32" viewBox="0 0 99 32" fill="none" xmlns="http://www.w3.org/2000/svg">
<path d="M96.4021 21.6299C96.3767 21.7054 96.3405 21.7738 96.2256 21.7897H96.2249C96.0738 21.8904 95.9766 21.8966 95.779 21.8175C95.7752 21.8195 95.7721 21.8211 95.7676 21.8226C95.7244 21.8385 95.6736 21.8103 95.6228 21.8437C95.6406 21.9279 95.7257 21.9732 95.7994 22.0251C95.84 22.0538 95.9067 22.0641 95.908 22.1201C95.9093 22.1196 95.9112 22.1196 95.9124 22.1191C95.9804 22.1813 96.0712 22.1237 96.1462 22.1489C96.1468 22.1489 96.1474 22.1489 96.1481 22.1494C96.1474 22.1484 96.1462 22.1474 96.1455 22.1463C96.3456 22.0348 96.3659 21.8637 96.3761 21.6895C96.3939 21.6725 96.3996 21.6515 96.4021 21.6299Z" fill="#373737"/>
<path d="M96.2726 17.9367C96.0618 17.8892 95.8548 17.8276 95.6598 17.7229C95.6145 17.6982 95.5779 17.6705 95.5211 17.7155C95.3332 17.8658 95.1426 17.8159 94.9591 17.6982C94.6712 17.5134 94.473 17.2546 94.373 16.9539C94.361 17.1474 94.3441 17.3353 94.3239 17.5183C94.4893 17.6132 94.6286 17.7567 94.7564 17.9206C94.9159 18.1258 95.0437 18.3575 95.1513 18.5996C95.2016 18.713 95.2589 18.75 95.3589 18.7364C95.3769 18.7352 95.3949 18.7333 95.4124 18.7321C95.5915 18.692 95.7707 18.6859 95.9498 18.7333C96.1563 18.8085 96.1923 18.7882 96.2666 18.5553C96.2917 18.4764 96.319 18.3982 96.3452 18.3193C96.3644 18.2219 96.3829 18.1246 96.4021 18.0272C96.3906 17.9404 96.325 17.949 96.2726 17.9367Z" fill="#373737"/>
<path d="M96.4901 19.4829C96.5385 19.5122 96.5916 19.5077 96.644 19.5096C96.6763 19.5109 96.7086 19.516 96.7397 19.5256C96.7593 19.5338 96.7795 19.5415 96.798 19.5517C96.8147 19.5498 96.8308 19.5447 96.8441 19.5262C97.0118 19.2868 97.2165 19.2823 97.4413 19.402C97.3012 19.1448 97.0672 19.0372 96.8291 18.9322C96.7069 18.8787 96.5697 18.8659 96.4624 18.7723C96.4071 18.9901 96.282 19.1626 96.1425 19.3288C96.2514 19.4186 96.3811 19.4224 96.4901 19.4829Z" fill="#373737"/>
<path d="M96.9249 20.0592C97.126 19.9518 97.3193 19.8331 97.4172 19.6249C97.4296 19.6005 97.438 19.576 97.4412 19.5516C97.436 19.5611 97.4296 19.5707 97.4205 19.5808C97.3134 19.6416 97.1973 19.6613 97.0734 19.6512C96.9722 19.69 96.8665 19.6709 96.762 19.6733C96.7562 19.6744 96.751 19.675 96.7452 19.6762C96.716 19.7544 96.6933 19.8355 96.6109 19.8832C96.6206 19.8975 96.6291 19.9136 96.6239 19.9291C96.4403 20.4594 96.2651 20.9933 95.8701 21.4341C95.8584 21.4472 95.8441 21.4573 95.8292 21.4669C95.8227 21.4693 95.8162 21.471 95.8104 21.4722C95.8234 21.5563 95.7462 21.5939 95.6956 21.6399C95.6164 21.712 95.5743 21.7693 95.7163 21.8152C95.7384 21.8224 95.7488 21.8438 95.752 21.8659C95.8785 21.888 96.005 21.916 96.1211 21.8385C96.1205 21.8361 96.1192 21.8343 96.1185 21.8325C96.2483 21.5098 96.282 21.1686 96.3417 20.8322C96.402 20.4892 96.5986 20.2345 96.9249 20.0592Z" fill="#373737"/>
<path d="M96.5239 15.8886C96.5614 15.8551 96.6085 15.8313 96.6389 15.7894C96.6639 15.7547 96.6729 15.7163 96.6443 15.6786C96.6186 15.6451 96.5841 15.6536 96.5519 15.6658C96.4464 15.706 96.3517 15.7674 96.2587 15.8307C96.2039 15.8679 96.1497 15.9068 96.0817 15.9166C96.046 16.0182 95.9625 16.0645 95.8654 16.0961C95.8452 16.2111 95.7891 16.2982 95.6759 16.3377C95.6849 16.4004 95.642 16.4436 95.6139 16.4935C95.5162 16.6664 95.4173 16.8386 95.3756 17.0377C95.3482 17.1667 95.3643 17.2872 95.4423 17.3956C95.5228 17.5063 95.5669 17.5009 95.6247 17.367C95.6926 17.2099 95.7218 17.0395 95.776 16.8782C95.7975 16.8137 95.7987 16.7285 95.8779 16.7011C95.8636 16.4869 96.0513 16.2191 96.2545 16.1618C96.2533 16.1594 96.2522 16.1576 96.251 16.1551C96.3028 16.0255 96.4285 15.9732 96.5239 15.8886Z" fill="#373737"/>
<path d="M94.6144 19.002C94.7818 18.984 94.943 19.0262 95.103 19.0679C95.2832 19.1147 95.4627 19.1637 95.6228 19.1992C95.4737 19.1028 95.3314 18.9795 95.2502 18.8043C95.2508 18.7969 95.252 18.7902 95.2551 18.7834C95.1183 18.7524 94.9833 18.7964 94.8471 18.7958C94.8153 18.7935 94.783 18.7924 94.7543 18.7823C94.4483 18.8516 94.1508 18.9411 93.8601 19.0487C93.7141 19.4144 93.5328 19.7417 93.3165 20.0301C93.3062 20.0442 93.2952 20.0577 93.2848 20.0712C93.3049 20.0583 93.3269 20.0498 93.3544 20.0521C93.355 20.0526 93.3556 20.0532 93.3562 20.0538C93.3556 20.0526 93.355 20.0515 93.3544 20.0504C93.534 19.7552 93.7221 19.4667 94.047 19.2825C94.0482 19.2831 94.0495 19.2837 94.0507 19.2842C94.0556 19.2493 94.0666 19.2217 94.105 19.2273C94.2211 19.051 94.4184 19.0228 94.6144 19.002Z" fill="#373737"/>
<path d="M94.0642 13.3537C94.1054 13.4998 94.1413 13.6509 94.1721 13.8071C94.1837 13.8645 94.1935 13.9236 94.204 13.9822C94.3246 13.918 94.451 13.8634 94.5867 13.8238C94.6447 13.807 94.7032 13.797 94.7641 13.8037C94.9125 13.8193 94.9781 13.8818 94.992 14.024C94.9972 14.0764 94.996 14.1288 94.9955 14.1813C94.9949 14.2744 95.0192 14.3179 95.1375 14.314C95.3718 14.3062 95.6229 14.5404 95.6501 14.7668C95.6658 14.9001 95.5898 14.9653 95.4512 14.928C95.3231 14.8934 95.2175 14.8204 95.119 14.7339C95.0065 14.6358 94.9833 14.6385 94.9125 14.7635C94.854 14.8666 94.7821 14.9614 94.7171 15.0602C94.7525 15.0133 94.7937 14.9726 94.854 14.9508C94.9137 14.9297 94.9723 14.9319 95.0181 14.9838C95.0221 14.9904 95.0245 14.9971 95.025 15.0033C95.0749 14.9464 95.1358 14.9748 95.1932 14.9932C95.2854 15.0222 95.3724 15.0652 95.4657 15.0919C95.7145 15.1633 95.9546 15.1511 96.1842 15.0239C96.2456 14.9899 96.3036 14.9414 96.3819 14.9481C96.3923 14.8995 96.4231 14.8711 96.4758 14.865C96.5199 14.7066 96.6208 14.57 96.6504 14.4043C96.684 14.2164 96.6492 14.0636 96.4811 13.9493C96.3831 13.8829 96.306 13.7937 96.2155 13.7178C95.8368 13.3999 95.3921 13.2187 94.9073 13.1166C94.8644 13.1077 94.8232 13.0955 94.7827 13.0804C94.6916 13.0469 94.5994 13.0547 94.5066 13.0726C94.4823 13.0776 94.4585 13.0782 94.4342 13.0726C94.4336 13.0726 94.433 13.072 94.4324 13.0715C94.422 13.1211 94.3739 13.1417 94.3344 13.164C94.2376 13.2209 94.1483 13.2851 94.0642 13.3537Z" fill="#373737"/>
<path d="M96.8619 15.7786C97.008 15.8997 97.1585 16.0158 97.3077 16.1338C97.4087 16.1619 97.4731 16.2426 97.5489 16.3068C97.7589 16.484 97.8359 16.4798 98.0254 16.2738C98.0483 16.2493 98.0699 16.223 98.0916 16.198C98.3299 15.7469 98.4694 15.2572 98.6319 14.7762C98.7173 14.5225 98.807 14.2694 98.9345 14.0329C98.9544 13.9956 98.9712 13.9509 99.0001 13.9198C98.9664 13.6141 98.9237 13.3177 98.8725 13.0292C98.8713 13.0389 98.8701 13.0493 98.8689 13.0591C98.8707 13.1685 98.8743 13.2779 98.8406 13.3843C98.8388 13.4143 98.8364 13.4436 98.8346 13.4735C98.8388 13.5371 98.8418 13.6001 98.807 13.6569C98.7594 13.7792 98.7113 13.902 98.6638 14.0243C98.671 14.1056 98.6036 14.1466 98.5681 14.2046C98.5067 14.2853 98.4406 14.3605 98.3479 14.4082C98.2456 14.4607 98.2372 14.5769 98.1993 14.6692C98.1506 14.7872 98.1042 14.8734 97.9713 14.7572C97.9105 14.7046 97.8473 14.723 97.7836 14.7615C97.7066 14.8086 97.6259 14.8495 97.5465 14.8935C97.4755 14.9002 97.4033 14.9302 97.3371 14.8758C97.3359 14.8678 97.3359 14.8599 97.3371 14.8532C97.3341 14.8556 97.3311 14.8581 97.3281 14.8599C97.1735 14.7511 97.1398 14.5885 97.1356 14.4125C97.129 14.4063 97.1218 14.4027 97.1133 14.4008C97.1224 14.3281 97.0959 14.2517 97.1344 14.1814C97.135 14.1643 97.1314 14.1453 97.1374 14.1307C97.2331 13.8837 97.4063 13.6734 97.4617 13.4063C97.4749 13.3427 97.5477 13.303 97.6127 13.2786C97.6747 13.2553 97.7348 13.2602 97.7866 13.3067C97.8425 13.3562 97.8317 13.4198 97.813 13.4809C97.7944 13.5426 97.7384 13.5921 97.7475 13.6832C97.8329 13.6184 97.8588 13.5096 97.955 13.4864C98.0441 13.465 98.1403 13.4277 98.2041 13.5383C98.3196 13.5958 98.2378 13.7266 98.301 13.8061C98.3293 13.8415 98.3232 13.9045 98.375 13.921C98.3846 13.9118 98.3948 13.9033 98.4081 13.8965C98.461 13.8807 98.5122 13.8752 98.5549 13.9149C98.5813 13.8397 98.6186 13.7682 98.6409 13.6912C98.6656 13.5775 98.6668 13.4644 98.6379 13.3513C98.5735 13.1618 98.4682 13.0096 98.2944 12.9014C98.0182 12.7296 97.7318 12.7688 97.4924 13.034C97.4545 13.0762 97.4256 13.1276 97.3642 13.1398C97.3576 13.1398 97.3516 13.138 97.3462 13.1361C97.3468 13.1367 97.3468 13.1374 97.3474 13.138C97.4003 13.2352 97.3353 13.2963 97.2704 13.3348C97.0784 13.4473 96.8667 13.4882 96.6621 13.4968C96.8336 13.6905 97.0213 13.9027 97.0441 14.2077C97.0441 14.2083 97.0435 14.2095 97.0435 14.2101C97.1013 14.2572 97.0923 14.3385 97.1145 14.4039C97.1139 14.5237 97.1567 14.6392 97.1548 14.7597C97.1542 14.8257 97.1867 14.866 97.2511 14.8801C97.3016 14.8911 97.3468 14.9131 97.3763 14.9595C97.4442 15.0207 97.5465 15.0353 97.5941 15.1246C97.6332 15.1441 97.6524 15.1949 97.7041 15.193C97.78 15.0867 97.8828 15.0121 97.9869 14.9381C98.026 14.9106 98.0645 14.8575 98.1181 14.9051C98.1686 14.9498 98.1337 14.9999 98.1115 15.0445C98.0994 15.069 98.079 15.0897 98.0627 15.1124C97.9719 15.1998 97.8937 15.3025 97.7679 15.3465C97.721 15.363 97.7162 15.3966 97.7294 15.4553C97.7637 15.6087 97.7499 15.7621 97.6494 15.8929C97.6097 15.9449 97.5519 15.9779 97.487 15.9584C97.4274 15.94 97.4376 15.8734 97.4334 15.8257C97.4226 15.7065 97.4352 15.5891 97.4827 15.4779C97.4605 15.4266 97.4075 15.4571 97.3738 15.4363C97.2619 15.4369 97.15 15.4369 97.0381 15.4376C97.0267 15.4376 97.0153 15.4382 97.0038 15.4382C96.9094 15.4816 96.8907 15.5904 96.8227 15.6582C96.7614 15.7157 96.8282 15.7505 96.8619 15.7786Z" fill="#373737"/>
<path d="M97.2808 15.3761C97.3824 15.3725 97.4846 15.3841 97.5851 15.365C97.7124 15.3705 97.6999 15.297 97.7011 15.231C97.6174 15.2239 97.5504 15.1766 97.4727 15.1559C97.4105 15.1408 97.3465 15.1126 97.2921 15.1695C97.2557 15.2451 97.2521 15.3338 97.1815 15.3952C97.2126 15.3831 97.2455 15.3761 97.2808 15.3761Z" fill="#373737"/>
<path d="M97.9276 14.7059C98.001 14.7272 98.0463 14.7064 98.0674 14.6409C98.1297 14.4432 98.3153 14.3641 98.4804 14.2652C98.4434 14.2014 98.3312 14.2265 98.3024 14.1522C98.1673 14.1238 98.1843 14.0031 98.1555 13.918C98.1367 13.8628 98.1232 13.8044 98.1015 13.7492C97.9611 13.7241 97.8718 13.7853 97.8213 13.8994C97.796 13.9562 97.7719 13.9955 97.7049 13.9463C97.6544 13.9092 97.5593 13.8896 97.6256 13.7973C97.6438 13.7716 97.665 13.7459 97.6738 13.717C97.6861 13.6771 97.7425 13.6329 97.6873 13.5941C97.6339 13.5565 97.5822 13.5865 97.541 13.6253C97.5181 13.6471 97.4817 13.6739 97.4823 13.6968C97.4946 13.9551 97.2397 14.1014 97.1815 14.3291C97.1815 14.3903 97.1821 14.452 97.1821 14.5131C97.2021 14.6464 97.2168 14.7823 97.3378 14.8757C97.3395 14.8746 97.3407 14.873 97.3419 14.8719C97.4611 14.8353 97.5822 14.8025 97.6885 14.7354C97.7608 14.6912 97.8448 14.6824 97.9276 14.7059Z" fill="#373737"/>
<path d="M97.0324 20.8951C97.0641 20.8601 97.1025 20.8138 97.1628 20.8363C97.1622 20.8328 97.1622 20.8292 97.1616 20.8256C97.1579 20.7633 97.1988 20.7194 97.2372 20.6825C97.4042 20.5258 97.576 20.3732 97.7296 20.2034C97.7424 20.1891 97.7613 20.1856 97.7808 20.1856C97.7857 20.1102 97.8332 20.0722 97.9051 20.0561C97.921 19.9296 97.9947 19.8418 98.0983 19.7735C98.0977 19.7711 98.0971 19.7687 98.0965 19.7664C98.0971 19.6684 98.1532 19.587 98.1824 19.4974C98.2732 19.2142 98.2032 18.9773 97.9618 18.8027C97.6376 18.5682 97.2634 18.4268 96.8941 18.279C96.8575 18.2641 96.8173 18.2576 96.777 18.2541C96.7167 18.2487 96.6594 18.2588 96.6332 18.3194C96.6082 18.377 96.6503 18.4144 96.6887 18.4476C96.8069 18.5492 96.9574 18.5925 97.0964 18.656C97.1646 18.6875 97.253 18.6976 97.278 18.7831C97.5547 18.7944 97.8546 19.0746 97.8929 19.3596C97.9448 19.739 97.651 20.3108 97.303 20.5098C97.3121 20.5537 97.2902 20.5715 97.2518 20.5751C97.253 20.5875 97.2524 20.5994 97.2451 20.6071C97.0318 20.831 96.8435 21.0786 96.5924 21.2668C96.5948 21.271 96.5973 21.2745 96.5991 21.2793C96.6082 21.3137 96.6015 21.3476 96.5826 21.3755C96.476 21.5328 96.429 21.708 96.4022 21.8897C96.5205 21.5061 96.763 21.1926 97.0324 20.8951Z" fill="#373737"/>
<path d="M95.9941 19.2051C96.0165 19.1729 96.0363 19.1388 96.0555 19.104C96.1862 18.8638 96.182 18.8503 95.9571 18.7923C95.8161 18.7653 95.6745 18.7768 95.5329 18.7859C95.5173 18.7891 95.5022 18.7878 95.4871 18.7833C95.4819 18.7801 95.4766 18.7762 95.472 18.7723C95.4444 18.8123 95.3996 18.8078 95.3642 18.8284C95.3637 18.829 95.3637 18.8297 95.3632 18.8297C95.4293 18.8245 95.4574 18.8915 95.4907 18.9436C95.5672 19.0634 95.662 19.1575 95.7619 19.2444C95.8499 19.3204 95.9264 19.3037 95.9941 19.2051Z" fill="#373737"/>
<path d="M94.4952 15.603C94.5112 15.5293 94.5441 15.4612 94.5836 15.3952C94.545 15.4401 94.5008 15.483 94.4415 15.5188C94.3982 15.5693 94.3606 15.6213 94.3239 15.6739C94.3257 15.7533 94.3267 15.834 94.3276 15.9148C94.3314 15.9077 94.3342 15.9007 94.338 15.8944C94.3907 15.7968 94.4434 15.6999 94.4952 15.603Z" fill="#373737"/>
<path d="M95.0624 18.5783C94.83 18.2728 94.6072 17.9633 94.2247 17.7609C94.2062 17.7513 94.1876 17.7423 94.1685 17.7333C94.126 17.9836 94.0732 18.2237 94.008 18.4521C93.9505 18.655 93.8812 18.8478 93.8044 19.0322C94.0978 18.9374 94.4008 18.8636 94.7148 18.8129C94.7587 18.7131 94.8848 18.7413 94.9746 18.7277C95.1069 18.708 95.1391 18.6792 95.0624 18.5783Z" fill="#373737"/>
<path d="M96.6539 22.8341C96.55 22.6739 96.4765 22.4976 96.4627 22.2912C96.4627 22.2895 96.4627 22.2879 96.4627 22.2862C96.4627 22.2834 96.4627 22.2801 96.4627 22.2773C96.4633 22.2361 96.4162 22.2133 96.38 22.2356C96.3536 22.2523 96.3214 22.2612 96.2818 22.2612C96.2697 22.2589 96.2582 22.2562 96.2468 22.2528C96.129 22.2945 96.0153 22.2717 95.9045 22.2217C95.897 22.2245 95.8895 22.2267 95.8815 22.2284C95.6994 22.1816 95.6041 22.0592 95.5633 21.8896L95.325 21.9925C95.3267 21.9942 95.3273 21.9953 95.329 21.9969C95.2721 22.0465 95.2072 22.0876 95.1395 22.1254C95.1217 22.1355 95.1113 22.1544 95.1136 22.1744C95.1159 22.1978 95.1136 22.2211 95.1107 22.245C95.0832 22.4642 95.1268 22.5432 95.3273 22.6461C95.4473 22.7079 95.5765 22.7479 95.7057 22.7813C95.9447 22.8425 96.1284 22.976 96.2927 23.1495C96.3048 23.1623 96.3174 23.1757 96.3295 23.1885C96.4386 23.0945 96.5443 22.9977 96.6465 22.897C96.6643 22.8803 96.6666 22.8541 96.6539 22.8341Z" fill="#373737"/>
<path d="M96.606 18.1302C96.6114 18.1399 96.6102 18.1478 96.6018 18.1545C96.6006 18.2431 96.5758 18.3257 96.5383 18.4052C96.4929 18.523 96.4476 18.6408 96.4022 18.7592C96.7421 18.8151 97.0607 18.9286 97.3377 19.1369C97.6757 19.3919 97.6854 19.6979 97.3643 19.9747C97.2488 20.0743 97.117 20.1551 96.99 20.2394C96.7596 20.3925 96.6193 20.6025 96.58 20.8776C96.5504 21.0858 96.5238 21.2941 96.4953 21.5023C96.482 21.5436 96.4802 21.5867 96.4784 21.6298C96.4869 21.6098 96.5008 21.5916 96.525 21.577C96.58 21.4513 96.6356 21.3263 96.733 21.2255C96.9132 20.9559 97.1442 20.7331 97.3794 20.5145C97.403 20.489 97.4266 20.4629 97.4508 20.4374C97.4459 20.3785 97.5137 20.3621 97.5239 20.3129C97.5366 20.2832 97.553 20.2564 97.585 20.2437C97.7247 20.0804 97.8396 19.9019 97.9103 19.6979C98.0307 19.3518 97.9363 19.0889 97.6243 18.9001C97.5548 18.8582 97.4816 18.8217 97.4097 18.7835C97.4024 18.7811 97.3951 18.7774 97.3873 18.7714C97.1599 18.6985 96.9434 18.6032 96.7554 18.4514C96.681 18.3913 96.6477 18.3215 96.678 18.2279C96.7022 18.1521 96.7445 18.0956 96.8104 18.0677L96.6368 17.993C96.6381 18.0403 96.6308 18.0865 96.606 18.1302Z" fill="#373737"/>
<path d="M31.4585 9.13663C31.4585 9.57815 31.4462 9.93955 31.4222 10.2214C31.3976 10.5033 31.3613 10.7241 31.3133 10.8831C31.2648 11.0428 31.2016 11.1531 31.1231 11.2143C31.0441 11.276 30.9446 11.3062 30.824 11.3062C30.7269 11.3062 30.6186 11.2849 30.4974 11.2422C30.3763 11.1994 30.2405 11.1531 30.0895 11.1045C29.9379 11.0558 29.7722 11.0095 29.5908 10.9668C29.4093 10.9241 29.2097 10.9027 28.9926 10.9027C28.7386 10.9027 28.4845 10.9549 28.2311 11.0588C27.9771 11.1632 27.7143 11.3252 27.4421 11.546C27.1699 11.7668 26.8861 12.0611 26.5899 12.4284C26.2937 12.7964 25.9759 13.2498 25.6376 13.7892V24.0118C25.6376 24.1347 25.6013 24.2415 25.5287 24.3335C25.4562 24.4255 25.3321 24.502 25.1571 24.5631C24.9815 24.6249 24.7491 24.6706 24.4588 24.7008C24.1685 24.7311 23.7997 24.7471 23.3526 24.7471C22.9054 24.7471 22.5366 24.7317 22.2463 24.7008C21.956 24.67 21.7231 24.6243 21.548 24.5631C21.3725 24.502 21.2489 24.4255 21.1764 24.3335C21.1038 24.2415 21.0675 24.1347 21.0675 24.0118V7.61088C21.0675 7.48864 21.0974 7.38122 21.1582 7.28924C21.2185 7.19726 21.3274 7.1207 21.4848 7.05958C21.6417 6.99845 21.8442 6.95217 22.0924 6.9219C22.34 6.89163 22.6514 6.87621 23.0265 6.87621C23.4134 6.87621 23.7336 6.89163 23.9876 6.9219C24.2416 6.95276 24.4377 6.99845 24.577 7.05958C24.7157 7.1213 24.8158 7.19726 24.8761 7.28924C24.9364 7.38122 24.9668 7.48864 24.9668 7.61088V9.65173C25.39 9.03871 25.7886 8.53309 26.1638 8.1349C26.5384 7.7367 26.8948 7.42098 27.2337 7.18776C27.572 6.95513 27.9109 6.79253 28.2493 6.70055C28.5876 6.60856 28.9265 6.56287 29.2648 6.56287C29.4216 6.56287 29.5914 6.57236 29.7728 6.59076C29.9543 6.60915 30.1416 6.64001 30.3347 6.68274C30.5279 6.72606 30.6976 6.77472 30.8428 6.82992C30.9879 6.88511 31.0933 6.94326 31.16 7.00439C31.2261 7.06611 31.2747 7.13316 31.3052 7.20675C31.335 7.28034 31.3625 7.38122 31.3865 7.51C31.4105 7.63878 31.4287 7.83165 31.4409 8.0892C31.4521 8.34616 31.4585 8.6957 31.4585 9.13663Z" fill="#373737"/>
<path d="M59.5129 24.0112C59.5129 24.1341 59.4757 24.2409 59.4013 24.3329C59.3268 24.4249 59.2026 24.5014 59.0291 24.5626C58.855 24.6243 58.6167 24.67 58.313 24.7002C58.0093 24.7305 57.6341 24.7465 57.1881 24.7465C56.7295 24.7465 56.3477 24.7311 56.0446 24.7002C55.7409 24.6694 55.502 24.6237 55.3285 24.5626C55.1544 24.5014 55.0308 24.4249 54.9563 24.3329C54.8819 24.2409 54.8447 24.1341 54.8447 24.0112V14.6527C54.8447 13.8563 54.7859 13.2308 54.6682 12.7774C54.55 12.324 54.3801 11.9347 54.1568 11.6101C53.9335 11.2855 53.6454 11.0339 53.2918 10.8564C52.9383 10.679 52.5259 10.59 52.0553 10.59C51.4604 10.59 50.859 10.8048 50.2515 11.2333C49.644 11.6623 49.0114 12.2878 48.3547 13.1085V24.0118C48.3547 24.1347 48.3175 24.2415 48.243 24.3335C48.1686 24.4255 48.0413 24.502 47.8619 24.5631C47.6818 24.6249 47.4435 24.6706 47.1458 24.7008C46.848 24.7311 46.4699 24.7471 46.0113 24.7471C45.5527 24.7471 45.1745 24.7317 44.8768 24.7008C44.579 24.67 44.3401 24.6243 44.1607 24.5631C43.9806 24.502 43.8539 24.4255 43.7795 24.3335C43.7051 24.2415 43.6678 24.1347 43.6678 24.0118V7.61088C43.6678 7.48864 43.6985 7.38122 43.7609 7.28924C43.8227 7.19726 43.9344 7.1207 44.0958 7.05958C44.2567 6.99845 44.4644 6.95217 44.7189 6.9219C44.9728 6.89163 45.2921 6.87621 45.6769 6.87621C46.0737 6.87621 46.402 6.89163 46.6625 6.9219C46.9231 6.95276 47.1241 6.99845 47.267 7.05958C47.4093 7.1213 47.5119 7.19726 47.5737 7.28924C47.6356 7.38122 47.6668 7.48864 47.6668 7.61088V9.50456C48.584 8.52419 49.5174 7.78832 50.4658 7.29814C51.4142 6.80796 52.4028 6.56287 53.4323 6.56287C54.5602 6.56287 55.5122 6.74683 56.2871 7.11417C57.0621 7.48211 57.6881 7.98179 58.1653 8.61262C58.6425 9.24404 58.9865 9.98228 59.1978 10.8279C59.4085 11.6736 59.5141 12.6913 59.5141 13.88V24.0112H59.5129Z" fill="#373737"/>
<path d="M91.2976 21.7352C91.3631 21.6945 91.4318 21.6609 91.5011 21.6268C91.5342 21.61 91.5623 21.5872 91.5893 21.5621C91.6377 21.5141 91.6972 21.4818 91.756 21.4494C91.8222 21.4111 91.8847 21.3673 91.9466 21.3224C92.0471 21.2529 92.1477 21.1828 92.2457 21.1103C92.1961 21.1373 92.1458 21.163 92.0937 21.1876C92.0539 21.2068 92.0134 21.2247 91.9724 21.2421C91.9534 21.2601 91.9338 21.2775 91.9135 21.2942C91.8345 21.29 91.8271 21.4057 91.7425 21.3919C91.7407 21.4003 91.7401 21.4093 91.7395 21.4177C91.6935 21.4512 91.6469 21.4842 91.601 21.5177C91.5666 21.5405 91.5317 21.5639 91.4974 21.5866C91.3962 21.6142 91.3049 21.6591 91.2228 21.7232C90.7625 21.882 90.3034 22.0354 89.875 22.2799C89.5778 22.4494 89.4037 22.7125 89.1812 22.9396C89.0881 23.0846 88.9943 23.2302 88.9011 23.3752C88.8919 23.4003 88.8809 23.4249 88.8687 23.4483C88.887 23.4267 88.9054 23.4045 88.9244 23.383C89.1622 23.0594 89.4975 22.8467 89.8254 22.625C89.8474 22.61 89.8738 22.6052 89.9002 22.6052C89.9081 22.5687 89.9388 22.5471 89.9706 22.5267C90.2599 22.3428 90.5517 22.163 90.8508 21.9953C90.9164 21.9587 90.9868 21.9 91.0733 21.9557C91.0739 21.9557 91.0739 21.9557 91.0745 21.9557C91.0653 21.8029 91.2203 21.8059 91.2976 21.7352Z" fill="#373737"/>
<path d="M87.9789 23.424C88.0228 23.3925 88.1052 23.3781 88.0865 23.2976C88.0717 23.2341 87.9992 23.2215 87.9448 23.2064C87.7471 23.1498 87.6466 23.2253 87.5977 23.4592C87.5631 23.6264 87.5911 23.7993 87.5697 23.9678C87.634 23.7251 87.7877 23.5598 87.9789 23.424Z" fill="#373737"/>
<path d="M87.2917 25.0708C87.2857 25.0636 87.2849 25.0543 87.2889 25.0436C87.2569 24.8327 87.2629 24.6219 87.2885 24.411C87.2893 24.3345 87.2905 24.258 87.2913 24.1822C87.3089 24.115 87.2989 24.0393 87.3045 23.9678C87.2969 24.0028 87.2865 24.0357 87.2697 24.0628C87.2333 24.1644 87.2004 24.2709 87.16 24.3674C87.0604 24.604 87.0236 24.8778 87.0704 25.168C87.1492 25.203 87.2289 25.2359 87.3101 25.2666C87.2965 25.2045 87.2877 25.1408 87.2917 25.0708Z" fill="#373737"/>
<path d="M87.6056 24.3797C87.5999 24.4254 87.6008 24.4717 87.5929 24.5174C87.5658 24.6791 87.5986 24.8458 87.571 25.0069C87.5706 25.0081 87.5701 25.0087 87.5697 25.01C87.5728 25.0112 87.5758 25.0124 87.5793 25.0155C87.617 25.0828 87.6192 25.1766 87.6485 25.2507C87.6677 25.2562 87.687 25.2612 87.7063 25.2667C87.747 25.1643 87.8012 25.0785 87.8765 25.0198C87.8756 25.0124 87.8743 25.0044 87.8721 24.9976C87.8918 24.8606 87.9238 24.7272 87.9706 24.6069C88.0372 24.4371 88.0647 24.2674 88.0358 24.076C88.003 23.8606 88.0328 23.652 88.0893 23.4483C87.7632 23.5909 87.6568 23.9575 87.6056 24.3797Z" fill="#373737"/>
<path d="M88.5182 23.7539C88.5233 23.7539 88.5272 23.7546 88.5323 23.7553C88.7139 23.4555 88.8635 23.1286 89.0631 22.8437C89.0546 22.7706 89.1463 22.7496 89.1255 22.6705C89.1047 22.6718 89.0754 22.663 89.0636 22.6765C88.7566 23.0197 88.4204 23.3391 88.3518 23.8852C88.3484 23.9123 88.349 23.94 88.3501 23.9678C88.3765 23.9481 88.3985 23.915 88.4322 23.9163C88.4153 23.8311 88.4553 23.785 88.5182 23.7539Z" fill="#373737"/>
<path d="M86.7699 7.70065C86.5983 7.63261 86.449 7.57866 86.2709 7.61238C86.5307 7.75705 86.4072 7.98325 86.382 8.19841C86.4231 8.18738 86.4472 8.17512 86.4713 8.17573C86.5407 8.17757 86.6353 8.15918 86.6723 8.1978C86.7099 8.23765 86.7099 8.34063 86.6941 8.40745C86.6582 8.55457 86.6012 8.69618 86.5542 8.84024C86.5483 8.8574 86.5483 8.87702 86.5448 8.90093C86.7999 8.74767 87.1061 8.21497 87.0414 7.98447C87.0032 8.08072 86.9768 8.14692 86.948 8.21987C86.888 8.1365 86.8469 8.03964 86.7752 7.99183C86.6994 7.94156 86.5947 7.93789 86.5019 7.91398C86.5171 7.83183 86.5266 7.82386 86.7699 7.70065Z" fill="#373737"/>
<path d="M87.0216 8.5832C87.2187 8.43796 87.3438 8.25524 87.3019 8.00459C87.2571 7.73636 87.0954 7.54251 86.8416 7.44237C86.7242 7.3961 86.5985 7.36741 86.4733 7.34222C86.3807 7.38029 86.2898 7.41953 86.1995 7.45994C86.1983 7.46931 86.1971 7.47751 86.1965 7.48805C86.4905 7.46755 86.7566 7.51967 86.9939 7.71996C86.8965 7.74163 86.7991 7.7633 86.6787 7.78965C86.7885 7.84646 86.8699 7.88804 86.9732 7.94134C87.0198 7.91557 87.0659 7.8898 87.1125 7.86345C87.1373 7.91732 87.1809 7.97062 87.1815 8.0245C87.1821 8.09829 87.1697 8.18613 87.129 8.24411C86.9821 8.4526 86.8227 8.65231 86.6628 8.85084C86.6392 8.88012 86.5849 8.88481 86.5447 8.90062C86.5324 8.8567 86.5011 8.8075 86.5111 8.76943C86.5477 8.62888 86.6014 8.49243 86.6421 8.35246C86.6575 8.30034 86.6539 8.24236 86.6586 8.18731C86.6061 8.19023 86.5501 8.18379 86.5011 8.19902C86.3771 8.2365 86.3234 8.19609 86.3417 8.06491C86.3494 8.0081 86.3677 7.95246 86.3795 7.89566C86.4066 7.76564 86.3712 7.6901 86.2019 7.60693C86.1558 7.58409 86.0655 7.6245 86.0077 7.65671C85.918 7.70708 85.8348 7.77091 85.7563 7.83768C85.7179 7.86989 85.6766 7.91967 85.6713 7.96535C85.6589 8.07369 85.6064 8.13343 85.5031 8.15451C85.4258 8.17032 85.4075 8.2078 85.3951 8.29331C85.3709 8.46607 85.3001 8.63181 85.2576 8.80282C85.2399 8.87309 85.2145 8.97324 85.2487 9.01658C85.2836 9.0605 85.3898 9.07104 85.4594 9.06109C85.6152 9.03883 85.7693 9.00018 85.9209 8.95743C86.0283 8.92697 86.0915 8.84908 86.1192 8.73723C86.1405 8.65231 86.1788 8.5709 86.216 8.49125C86.2261 8.46959 86.2579 8.45729 86.2798 8.44089C86.2922 8.46959 86.3146 8.4977 86.3152 8.52639C86.3181 8.66753 86.3075 8.80867 86.3164 8.94923C86.3223 9.04879 86.3701 9.13839 86.4816 9.15772C86.5937 9.17704 86.7017 9.09915 86.7354 8.97441C86.779 8.80457 86.8859 8.68335 87.0216 8.5832Z" fill="#373737"/>
<path d="M89.1284 8.26369C89.0776 8.20068 89.0293 8.15104 88.9868 8.08421C88.946 8.01928 88.9109 7.93622 88.8736 7.86176C88.8512 8.08325 88.9091 8.37158 88.9561 8.37731C89.021 8.38495 89.0929 8.39545 89.1284 8.26369Z" fill="#373737"/>
<path d="M86.6997 19.7293C86.4629 19.4163 86.2349 19.098 85.9968 18.7855C85.9297 18.6974 85.8415 18.624 85.7607 18.5459C85.7023 18.4899 85.6296 18.5097 85.6084 18.5657C85.5438 18.7377 85.4145 18.8298 85.2318 18.8857C85.3878 18.9487 85.5469 19.0058 85.6992 19.0758C86.1578 19.2857 86.4387 19.6442 86.6314 20.0745C86.6593 20.1368 86.6885 20.201 86.7283 20.2569C86.8004 20.3584 86.9017 20.3549 86.9688 20.2505C87.0061 20.1928 87.0322 20.1333 87.0502 20.0733C86.9862 19.9707 86.9253 19.864 86.8688 19.7544C86.8681 19.7771 86.8669 19.8039 86.8675 19.8366C86.7905 19.7882 86.7296 19.769 86.6997 19.7293Z" fill="#373737"/>
<path d="M89.2964 8.11549C89.2614 8.13555 89.2175 8.16879 89.208 8.20517C89.1629 8.38641 89.0128 8.4278 88.8591 8.41714C88.8022 8.41338 88.7458 8.40209 88.6895 8.39456C88.6645 8.44097 88.6485 8.50933 88.6112 8.52814C88.1983 8.74074 87.7836 8.95021 87.3641 9.14776C87.274 9.1904 87.163 9.1835 87.0503 9.20106C87.1446 9.32712 87.2235 9.47262 87.1185 9.6802C87.43 9.4908 87.7604 9.43938 88.0138 9.20922C88.2333 9.00979 88.5133 8.9314 88.7773 8.83043C89.0359 8.73134 89.2198 8.55574 89.3628 8.31742C89.4435 8.18259 89.5681 8.06093 89.6007 7.9148C89.6417 7.73293 89.6986 7.5266 89.5616 7.34222C89.5657 7.41184 89.5669 7.48208 89.5746 7.55169C89.6049 7.81822 89.5212 7.98567 89.2964 8.11549Z" fill="#373737"/>
<path d="M84.8976 16.7116C84.6679 16.6702 84.4431 16.6909 84.2928 16.8971C84.2515 16.954 84.2255 17.0206 84.1927 17.0827C84.2655 17.1057 84.337 17.147 84.4109 17.1499C84.9425 17.1694 85.474 17.1832 86.0061 17.1958C86.0958 17.1981 86.1843 17.2027 86.2709 17.2136C86.2625 17.1384 86.2546 17.0626 86.2473 16.9862C86.0443 16.9563 85.8419 16.9224 85.6412 16.8839C85.3909 16.8357 85.1479 16.7564 84.8976 16.7116Z" fill="#373737"/>
<path d="M82.1683 14.4884C82.1474 14.5131 82.1192 14.5371 82.1112 14.5659C82.0922 14.6376 82.099 14.7193 82.0671 14.7845C81.8806 15.1687 81.6831 15.547 81.4966 15.9312C81.431 16.0669 81.385 16.212 81.3365 16.3547C81.3286 16.3782 81.3555 16.4129 81.366 16.4422C81.3862 16.434 81.4163 16.4311 81.4261 16.4158C81.596 16.1603 81.7659 15.9047 81.9309 15.6463C82.0812 15.4107 82.2235 15.1698 82.3737 14.9343C82.3952 14.9002 82.44 14.8796 82.4737 14.8532C82.4817 14.862 82.4897 14.8708 82.4976 14.8796C82.1689 15.4036 81.8401 15.9282 81.5095 16.4552C81.5776 16.481 81.6494 16.4986 81.7101 16.5333C81.9027 16.6432 82.0965 16.7524 82.2799 16.8758C82.4461 16.988 82.6191 17.1067 82.5829 17.344C82.5811 17.354 82.5903 17.3657 82.5939 17.3769C82.7117 17.7458 82.9705 17.9814 83.3551 18.0771C83.8759 18.2075 84.4064 18.2651 84.9462 18.2381C85.0836 18.231 85.2216 18.2334 85.3878 18.2304C85.3271 18.3855 85.2787 18.5089 85.2247 18.6469C85.4007 18.6193 85.5068 18.5594 85.559 18.4161C85.6025 18.2968 85.7252 18.2675 85.835 18.3385C85.8779 18.3661 85.9221 18.3973 85.9515 18.4366C86.1165 18.6569 86.2766 18.8808 86.4385 19.1028C86.5483 19.2532 86.6593 19.4024 86.7698 19.5516C86.7924 19.5234 86.7924 19.5087 86.7881 19.4952C86.7391 19.3466 86.6894 19.1986 86.6397 19.0505C86.6035 18.9501 86.5698 18.8479 86.5379 18.7427C86.5127 18.6657 86.487 18.5888 86.4618 18.5118C86.4189 18.3791 86.349 18.2475 86.3833 18.1053C86.3717 18.046 86.36 17.9861 86.3496 17.9256C86.2159 17.9491 86.0816 17.9702 85.9472 17.9908C85.4228 18.0707 84.9014 18.1929 84.3647 18.1523C84.0525 18.1288 83.7397 18.0983 83.433 18.0413C83.2815 18.0131 83.1221 17.9432 83.0024 17.8498C82.7454 17.6483 82.662 17.3575 82.643 17.0497C82.6338 16.9034 82.7135 16.8035 82.8638 16.7812C82.9779 16.7642 83.0951 16.7683 83.2104 16.7606C83.4373 16.746 83.6655 16.7377 83.8912 16.7101C84.0439 16.6913 84.1918 16.6314 84.3445 16.6138C84.4629 16.6003 84.5027 16.5539 84.5089 16.4469C84.5328 16.0422 84.6653 15.6733 84.9027 15.3349C85.2308 14.8661 85.3897 14.3521 85.3431 13.7823C85.3081 13.3499 85.002 13.0509 84.5573 13.0574C84.2617 13.0621 83.9642 13.0779 83.6716 13.1173C83.4662 13.1449 83.2674 13.2195 83.0405 13.2794C83.138 13.3728 83.2098 13.438 83.276 13.5073C83.3539 13.5884 83.43 13.6031 83.5256 13.5297C83.671 13.4186 83.8378 13.4069 84.0022 13.4791C84.3384 13.6254 84.6248 13.8398 84.8677 14.1042C84.9947 14.2422 84.9395 14.4044 84.7512 14.4314C84.5671 14.4578 84.3764 14.4573 84.1899 14.4461C83.9979 14.4343 83.8084 14.3897 83.6164 14.3727C83.5624 14.368 83.46 14.405 83.4563 14.432C83.4484 14.4901 83.4882 14.5554 83.514 14.6153C83.522 14.6341 83.5502 14.6446 83.5661 14.6617C83.6526 14.7516 83.7514 14.8338 83.8213 14.9343C84.009 15.2039 84.0605 15.4871 83.8471 15.7696C83.7869 15.8495 83.7139 15.9224 83.6373 15.9881C83.3809 16.2096 83.1061 16.4058 82.7779 16.5198C82.6406 16.5674 82.5786 16.5216 82.6019 16.3894C82.659 16.0657 82.7221 15.7432 82.7847 15.4207C82.789 15.3989 82.8068 15.3795 82.8184 15.3596C82.8332 15.3631 82.8473 15.3666 82.862 15.3701C82.7945 15.7291 82.7277 16.088 82.6559 16.4722C82.7227 16.4546 82.7608 16.4487 82.7951 16.4346C83.0889 16.3136 83.3508 16.1421 83.5796 15.9318C83.69 15.8301 83.7992 15.7109 83.8599 15.5793C83.9746 15.3302 83.8691 15.1052 83.7017 14.9084C83.6164 14.808 83.5122 14.7228 83.4214 14.627C83.3576 14.5595 83.3251 14.469 83.3852 14.3967C83.4275 14.3456 83.5158 14.2998 83.5808 14.3028C83.7765 14.3127 83.9703 14.3586 84.1666 14.3697C84.3568 14.3803 84.5506 14.3756 84.7401 14.3562C84.8573 14.3439 84.8793 14.2558 84.8107 14.1594C84.7923 14.1342 84.7757 14.106 84.7518 14.0872C84.5831 13.952 84.4212 13.8075 84.2402 13.6883C84.009 13.5361 83.7642 13.4134 83.4938 13.6331C83.4287 13.6853 83.3472 13.6665 83.2834 13.6113C83.2183 13.5549 83.157 13.495 83.0932 13.4374C82.9681 13.3241 82.9006 13.3311 82.8025 13.4721C82.7761 13.5103 82.7583 13.5543 82.7344 13.5943C82.5982 13.8187 82.4615 14.0431 82.3253 14.2675C82.3093 14.2622 82.2094 14.4385 82.1683 14.4884Z" fill="#373737"/>
<path d="M82.437 15.655C82.4159 15.6502 82.3955 15.6454 82.3744 15.6406C82.4009 15.4784 82.4274 15.3168 82.4567 15.1354C82.5274 15.1905 82.573 15.2258 82.6342 15.2737C82.577 15.394 82.5485 15.5419 82.437 15.655Z" fill="#373737"/>
<path d="M83.0435 14.6511C83.0605 14.6306 83.1039 14.6269 83.1353 14.616C83.1415 14.6424 83.1591 14.6721 83.1519 14.6954C83.1121 14.8251 83.0677 14.9538 83.0223 15.0816C83.0151 15.1022 82.9913 15.1177 82.9753 15.1355C82.9666 15.1314 82.9573 15.1273 82.9485 15.1227C82.9929 14.9917 83.0373 14.8602 83.0842 14.7214C82.9867 14.7607 83.0063 14.8785 82.8938 14.883C82.9335 14.7986 82.9841 14.7219 83.0435 14.6511Z" fill="#373737"/>
<path d="M82.7655 15.135C82.7103 15.0956 82.662 15.042 82.6344 14.9856C82.6275 14.9743 82.7207 14.9321 82.8138 14.8757C82.8518 14.9518 82.9 15.0054 82.8931 15.0589C82.8931 15.0871 82.7758 15.1407 82.7655 15.135Z" fill="#373737"/>
<path d="M82.7523 14.3609C82.7791 14.3439 82.8675 14.3757 82.8809 14.4064C82.9333 14.5272 82.8171 14.7952 82.6958 14.8757C82.6783 14.7623 82.6587 14.6426 82.634 14.4827C82.6495 14.4647 82.6927 14.3979 82.7523 14.3609Z" fill="#373737"/>
<path d="M81.7124 17.8978C82.3569 18.1817 83.0346 18.3181 83.7111 18.465C84.0126 18.5306 84.3106 18.6198 84.6109 18.6926C84.7477 18.726 84.8864 18.7489 85.025 18.7712C85.0516 18.7758 85.0984 18.766 85.1067 18.747C85.1553 18.6368 85.195 18.5214 85.2317 18.4237C84.855 18.4099 84.4788 18.4138 84.1056 18.3778C83.7614 18.345 83.4113 18.2984 83.1004 18.1161C82.7953 17.9371 82.5915 17.6551 82.5601 17.2617C82.55 17.1384 82.5056 17.0505 82.4292 16.9908C82.2088 16.8184 81.982 16.6551 81.7521 16.4977C81.5857 16.3836 81.514 16.4249 81.4411 16.6124C81.3967 16.7279 81.3594 16.8426 81.3351 16.9587C81.3446 17.179 81.3582 17.3954 81.3754 17.6079C81.4459 17.7489 81.5679 17.8335 81.7124 17.8978Z" fill="#373737"/>
<path d="M88.749 8.38134C88.7475 8.32708 88.7495 8.27156 88.7423 8.21792C88.7367 8.17426 88.7109 8.13309 88.7099 8.09067C88.7088 8.04202 88.7145 7.96779 88.7387 7.95095C88.7722 7.9285 88.8319 7.93411 88.869 7.95594C88.9118 7.98089 88.9447 8.03453 88.9761 8.08069C89.022 8.14806 89.0683 8.16303 89.1286 8.10439C89.1229 8.08506 89.1203 8.06884 89.1141 8.05512C88.9612 7.72515 88.8103 7.39331 88.6522 7.06709C88.6131 6.986 88.5528 6.91676 88.4951 6.85189C88.4601 6.81259 88.4101 6.80386 88.3947 6.8837C88.3226 7.25608 88.3216 7.61849 88.5008 7.95469C88.5363 8.02143 88.5652 8.09379 88.6079 8.18673C88.6651 8.30712 88.7063 8.35639 88.749 8.38134Z" fill="#373737"/>
<path d="M87.83 7.43894C87.8388 7.77407 88.0893 8.09228 88.3491 8.12157C88.0776 7.72136 88.0934 7.27691 88.1695 6.82269C87.9137 6.8767 87.8224 7.15717 87.83 7.43894Z" fill="#373737"/>
<path d="M89.5682 7.08242C89.6931 6.88822 89.6685 6.69594 89.5143 6.56287C89.2952 6.57687 89.0802 6.5947 88.8687 6.61699C89.1287 6.72586 89.36 6.8844 89.5682 7.08242Z" fill="#373737"/>
<path d="M86.1052 10.4575C86.0566 10.4025 86.061 10.3692 86.1338 10.3358C86.1706 10.3189 86.1924 10.275 86.2211 10.2428C86.1775 10.2276 86.132 10.196 86.0902 10.2001C85.8641 10.2235 85.6373 10.2475 85.4143 10.2878C85.2399 10.3194 85.195 10.4119 85.2604 10.5687C85.3919 10.8818 85.6635 11.0258 85.9937 11.0954C86.0497 11.1071 86.1077 11.11 86.1625 11.1241C86.35 11.1721 86.3818 11.2247 86.3382 11.4003C86.332 11.4243 86.3351 11.4506 86.3332 11.4986C86.4939 11.3605 86.4946 11.1931 86.3357 11.1094C86.236 11.0568 86.1152 11.0322 86.0005 11.0141C85.689 10.9637 85.4617 10.8168 85.3302 10.5424C85.2822 10.4417 85.3246 10.3815 85.4205 10.3633C85.6143 10.3271 85.8111 10.3054 85.9769 10.282C85.998 10.3633 85.9968 10.4417 86.0354 10.4944C86.1544 10.6577 86.2877 10.8128 86.4179 10.9684C86.4366 10.9906 86.4721 11 86.4995 11.0152C86.5101 11.0053 86.5207 10.9953 86.5307 10.9848C86.4485 10.8806 86.3675 10.7759 86.284 10.6723C86.2267 10.5997 86.1669 10.5278 86.1052 10.4575Z" fill="#373737"/>
<path d="M84.4266 16.6941C84.4155 16.7025 84.4037 16.7088 84.392 16.712C84.1803 16.7631 83.9642 16.8126 83.7457 16.8337C83.4871 16.8584 83.2242 16.8605 82.9631 16.86C82.7649 16.8595 82.631 16.9148 82.6341 17.0338C82.6421 17.3583 82.7995 17.7824 83.3334 17.8814C83.8704 17.981 84.4111 18.0321 84.9592 17.9573C85.3012 17.9109 85.6438 17.8688 85.9857 17.8203C86.0808 17.8066 86.1758 17.7919 86.2709 17.7766C86.2456 17.6402 86.2227 17.5016 86.2036 17.3604C86.1863 17.3589 86.1684 17.3573 86.1505 17.3568C85.6215 17.3383 85.0913 17.3325 84.5624 17.3199C84.4408 17.3172 84.3192 17.3125 84.1988 17.3025C84.0272 17.2883 83.9568 17.2029 84.0291 17.0807C84.1142 16.9375 84.2364 16.82 84.4327 16.7784C84.4568 16.7731 84.4815 16.7694 84.5056 16.7663C84.4408 16.7689 84.4247 16.7331 84.4266 16.6941Z" fill="#373737"/>
<path d="M86.1052 10.4575C86.0566 10.4025 86.061 10.3692 86.1338 10.3358C86.1706 10.3189 86.1924 10.275 86.2211 10.2428C86.1775 10.2276 86.132 10.196 86.0902 10.2001C85.8641 10.2235 85.6373 10.2475 85.4143 10.2878C85.2399 10.3194 85.195 10.4119 85.2604 10.5687C85.3919 10.8818 85.6635 11.0258 85.9937 11.0954C86.0497 11.1071 86.1077 11.11 86.1625 11.1241C86.35 11.1721 86.3818 11.2247 86.3382 11.4003C86.332 11.4243 86.3351 11.4506 86.3332 11.4986C86.4939 11.3605 86.4946 11.1931 86.3357 11.1094C86.236 11.0568 86.1152 11.0322 86.0005 11.0141C85.689 10.9637 85.4617 10.8168 85.3302 10.5424C85.2822 10.4417 85.3246 10.3815 85.4205 10.3633C85.6143 10.3271 85.8111 10.3054 85.9769 10.282C85.998 10.3633 85.9968 10.4417 86.0354 10.4944C86.1544 10.6577 86.2877 10.8128 86.4179 10.9684C86.4366 10.9906 86.4721 11 86.4995 11.0152C86.5101 11.0053 86.5207 10.9953 86.5307 10.9848C86.4485 10.8806 86.3675 10.7759 86.284 10.6723C86.2267 10.5997 86.1669 10.5278 86.1052 10.4575Z" fill="#373737"/>
<path d="M86.8414 11.1876C86.9748 11.3695 87.1154 11.5497 87.2156 11.7501C87.3248 11.6039 87.4425 11.4691 87.5699 11.3451C87.5445 11.32 87.5186 11.2956 87.4944 11.2693C87.3399 11.1035 87.1914 10.9198 87.1806 10.6788C87.1625 10.278 86.9766 9.969 86.6779 9.71252C86.6241 9.66659 86.5958 9.67137 86.5409 9.71551C86.4763 9.7674 86.3936 9.82466 86.3164 9.82883C86.0526 9.84315 85.7871 9.84971 85.5245 9.83182C84.9935 9.79603 84.4044 10.1259 84.1992 10.6186C84.1274 10.7909 84.0864 10.9764 84.0417 11.159C83.9403 11.5711 83.7333 11.9368 83.5372 12.3078C83.4901 12.3966 83.4545 12.4909 83.4135 12.5827C83.4243 12.5887 83.4358 12.5953 83.4466 12.6012C83.6048 12.3579 83.7725 12.1193 83.9186 11.8688C84.0363 11.666 84.1377 11.453 84.227 11.2359C84.3278 10.9902 84.4002 10.7325 84.4992 10.4856C84.536 10.3931 84.5812 10.2869 84.7225 10.2392C84.7146 10.303 84.7092 10.343 84.7044 10.3836C84.6971 10.4414 84.6748 10.5023 84.6851 10.5565C84.7508 10.8977 84.9796 11.1011 85.2862 11.2377C85.3501 11.2663 85.4062 11.3123 85.4666 11.3504C85.4062 11.385 85.3495 11.431 85.2849 11.4512C84.8245 11.5974 84.4455 11.861 84.1443 12.2314C84.0827 12.3072 84.0115 12.3978 84.0447 12.5237C84.0652 12.5136 84.0815 12.51 84.0906 12.4998C84.1473 12.4354 84.2004 12.3686 84.2578 12.3048C84.4099 12.1354 84.5897 12.1324 84.7285 12.3119C84.8468 12.4652 84.9458 12.634 85.0538 12.7975C85.0767 12.7557 85.1081 12.6943 85.1431 12.6352C85.3791 12.2374 85.7044 11.9177 86.0556 11.6206C86.0894 11.592 86.1401 11.5831 86.1824 11.5652C86.1848 11.5693 86.1866 11.5735 86.189 11.5771C86.3212 11.4614 86.4612 11.4065 86.5294 11.3844C86.5234 11.3761 86.5167 11.3683 86.5107 11.36C86.4914 11.3343 86.5028 11.2854 86.5004 11.2472C86.5107 11.2443 86.5203 11.2419 86.5306 11.2389C86.5535 11.2723 86.5753 11.3069 86.5994 11.3397C86.7503 11.5449 86.9024 11.7495 87.0538 11.9547C87.0508 11.9159 87.0593 11.8712 87.0424 11.8401C86.9162 11.6033 86.7829 11.3701 86.6561 11.1333C86.6362 11.0963 86.6386 11.048 86.6302 11.0051C86.6447 10.9985 86.6591 10.9926 86.6742 10.986C86.7285 11.054 86.7895 11.1178 86.8414 11.1876Z" fill="#373737"/>
<path d="M86.4983 11.0152C86.4709 11 86.4348 10.9901 86.4168 10.9684C86.2861 10.8128 86.1535 10.6583 86.0346 10.4944C85.9961 10.4417 85.9973 10.3633 85.9761 10.282C85.8106 10.3054 85.6139 10.3271 85.4204 10.3633C85.3245 10.3815 85.2822 10.4417 85.3301 10.5424C85.4614 10.8174 85.6886 10.9637 85.9998 11.0141C86.1143 11.0328 86.2357 11.0568 86.3346 11.1094C86.4927 11.1937 86.4927 11.3611 86.3321 11.4986C86.334 11.4506 86.3315 11.4248 86.3371 11.4003C86.3807 11.2247 86.3489 11.1721 86.1616 11.1241C86.1068 11.11 86.0483 11.1077 85.9929 11.0954C85.6631 11.0258 85.3917 10.8818 85.2604 10.5687C85.1951 10.4119 85.2399 10.3194 85.4141 10.2878C85.6369 10.2475 85.8635 10.2235 86.0894 10.2001C86.1305 10.196 86.1766 10.2276 86.2201 10.2428C86.1915 10.2744 86.1691 10.3189 86.133 10.3358C86.0602 10.3692 86.0552 10.4025 86.1044 10.4575C86.1666 10.5278 86.2257 10.5997 86.2842 10.6723C86.3676 10.7759 86.4485 10.8806 86.5307 10.9848C86.5195 10.9947 86.5089 11.0047 86.4983 11.0152Z" fill="#373737"/>
<path d="M86.282 11.4823C86.2784 11.4877 86.2749 11.4932 86.2709 11.4987L86.5306 11.2498C86.5289 11.2457 86.5271 11.2423 86.5249 11.2389C86.4741 11.2642 86.3711 11.3271 86.2736 11.4597C86.2767 11.4672 86.2793 11.4747 86.282 11.4823Z" fill="#373737"/>
<path d="M70.124 15.4264C69.2417 15.4264 68.5524 15.1817 68.0557 14.6923C67.5589 14.2029 67.3105 13.5372 67.3105 12.6946C67.3105 12.3107 67.3664 11.9419 67.4783 11.5893C67.5902 11.236 67.761 10.9265 67.9907 10.6603C68.2205 10.394 68.5091 10.1835 68.8574 10.0287C69.205 9.87401 69.6085 9.79664 70.0686 9.79664C70.975 9.79664 71.6774 10.0443 72.1742 10.5397C72.339 10.704 72.4755 10.8906 72.5856 11.0981L74.0615 6.91611H72.9567C72.5465 6.80456 72.1026 6.7182 71.6245 6.65583C71.1464 6.59405 70.646 6.56287 70.1246 6.56287C69.1057 6.56287 68.1741 6.70201 67.3298 6.98088C66.4848 7.25976 65.7582 7.66218 65.1496 8.18875C64.541 8.71532 64.0658 9.35944 63.7242 10.1211C63.3826 10.8828 63.2118 11.747 63.2118 12.7132C63.2118 13.6176 63.3423 14.3732 63.6033 14.9802C63.8644 15.5871 64.212 16.1077 64.6468 16.5413C64.1127 17.0247 63.6779 17.5662 63.3423 18.1672C63.0067 18.7681 62.8389 19.4338 62.8389 20.1649C62.8389 20.7472 62.9851 21.2828 63.2768 21.7722C63.5685 22.2616 63.9816 22.6484 64.5157 22.9333C64.1308 23.2181 63.7892 23.5156 63.4909 23.8251C63.1926 24.1351 62.9412 24.4602 62.7361 24.8008C62.531 25.1415 62.3758 25.4977 62.27 25.8696C62.1641 26.2414 62.1118 26.6312 62.1118 27.0403C62.1118 27.697 62.258 28.3009 62.5497 28.8521C62.8413 29.4032 63.3074 29.877 63.9474 30.2734C64.3978 30.5523 64.9379 30.7886 65.567 30.9817L66.8781 27.2676C66.7193 27.0313 66.6399 26.7572 66.6399 26.4459C66.6399 26.2474 66.6586 26.0555 66.6959 25.8702C66.7331 25.6843 66.8107 25.4923 66.9286 25.2944C67.0465 25.0959 67.2016 24.8884 67.3947 24.6719C67.5493 24.498 67.7465 24.3181 67.9853 24.1315L69.2212 20.6303L68.7269 20.6123C68.1555 20.5877 67.711 20.4605 67.3947 20.2314C67.0778 20.0024 66.9196 19.7085 66.9196 19.3486C66.9196 19.0764 66.9785 18.8281 67.0964 18.6056C67.2143 18.3825 67.3478 18.1905 67.4969 18.0298C67.758 18.2031 68.1302 18.3549 68.615 18.485C69.0288 18.596 69.4612 18.6595 69.9117 18.6757L71.1049 15.2956C70.8138 15.382 70.4872 15.4264 70.124 15.4264Z" fill="#373737"/>
<path d="M17.358 17.5877C17.358 18.4375 17.2404 19.2075 17.0063 19.8975C16.7717 20.5875 16.4481 21.197 16.035 21.7266C15.6218 22.2562 15.1287 22.7124 14.5549 23.0941C13.9818 23.4764 13.3495 23.7901 12.6588 24.0364C11.968 24.2827 11.2313 24.4646 10.4486 24.5815C9.66526 24.699 8.793 24.7568 7.83119 24.7568H1.46865C1.06148 24.7568 0.719383 24.6369 0.441764 24.3966C0.164146 24.1562 0.0256348 23.7656 0.0256348 23.2235V2.38114C0.0256348 1.83903 0.164146 1.4478 0.441764 1.20805C0.719383 0.967711 1.06148 0.847839 1.46865 0.847839H7.48014C8.94764 0.847839 10.1901 0.971289 11.2074 1.2176C12.2247 1.4639 13.0815 1.83664 13.7788 2.33522C14.4755 2.83439 15.0087 3.46536 15.3788 4.22933C15.749 4.99329 15.9335 5.89204 15.9335 6.92676C15.9335 7.50585 15.8594 8.05094 15.7114 8.56204C15.5633 9.07314 15.3478 9.53832 15.0642 9.95698C14.7806 10.3756 14.4319 10.7454 14.0188 11.0657C13.6057 11.3859 13.134 11.6447 12.6038 11.8415C13.2821 11.965 13.9078 12.1803 14.4815 12.488C15.0546 12.7964 15.5544 13.1935 15.98 13.6796C16.4057 14.1662 16.7413 14.7358 16.9884 15.3888C17.2344 16.0419 17.358 16.7748 17.358 17.5877ZM11.0683 7.51778C11.0683 7.03709 10.9943 6.60651 10.8462 6.22422C10.6981 5.84254 10.476 5.52527 10.1805 5.2724C9.88437 5.02013 9.51123 4.8263 9.06167 4.69033C8.61151 4.55495 8.0103 4.48696 7.25804 4.48696H4.79769V10.6953H7.51656C8.21926 10.6953 8.78047 10.6124 9.19958 10.446C9.6187 10.2796 9.96736 10.0518 10.2444 9.76256C10.522 9.47331 10.728 9.13457 10.8641 8.74633C11.0008 8.35808 11.0683 7.94896 11.0683 7.51778ZM12.3077 17.7541C12.3077 17.2 12.2152 16.7039 12.0301 16.2667C11.845 15.8296 11.574 15.4628 11.2163 15.1676C10.8587 14.8718 10.4026 14.6439 9.84736 14.4841C9.29272 14.3243 8.57091 14.2438 7.68313 14.2438H4.79769V21.0437H8.3124C8.99062 21.0437 9.56078 20.9728 10.0235 20.8314C10.4862 20.6901 10.8868 20.4801 11.2259 20.2034C11.565 19.9261 11.8301 19.5814 12.0211 19.1687C12.2122 18.7548 12.3077 18.2837 12.3077 17.7541Z" fill="#FAA621"/>
<path d="M98.9999 12.9305C98.9277 12.5667 98.8411 12.2173 98.739 11.8827C98.3897 10.7371 97.8572 9.7721 97.1402 8.98726C96.4231 8.20302 95.5162 7.60843 94.4195 7.20348C93.3222 6.79914 92.026 6.59637 90.5304 6.59637C90.2415 6.59637 89.9597 6.60472 89.6845 6.62082C89.7663 6.71207 89.7943 6.83254 89.7722 6.96553C89.7585 7.04544 89.7113 7.11999 89.6797 7.19693C89.611 7.15637 89.5424 7.11641 89.4737 7.07586C89.4707 7.07407 89.4689 7.0699 89.466 7.06691C89.2857 6.89575 89.0803 6.77349 88.8498 6.69835C88.734 6.71326 88.6206 6.72996 88.5077 6.74785C88.5077 6.75024 88.5071 6.75202 88.5071 6.75501C88.6671 6.81047 88.7621 6.92915 88.8409 7.06811C89.02 7.38359 89.2045 7.6961 89.3883 8.01218C89.6295 7.95433 89.7066 7.73128 89.6791 7.55237C89.6689 7.48736 89.6624 7.42057 89.6612 7.35497C89.6594 7.26909 89.6713 7.18917 89.7889 7.2172C89.7889 7.16711 89.78 7.12238 89.7913 7.08361C89.8027 7.04664 89.8349 7.01563 89.8576 6.98223C89.8863 7.00787 89.928 7.02815 89.9412 7.05976C89.9758 7.14564 89.9973 7.23629 90.0248 7.32455C90.0642 7.45337 90.0642 7.57444 89.9842 7.69431C89.8463 7.90185 89.7107 8.11118 89.5865 8.32707C89.4242 8.60797 89.1698 8.75885 88.8755 8.85785C88.6015 8.95029 88.3441 9.07016 88.1119 9.2455C88.0205 9.31468 87.9149 9.37611 87.8062 9.4101C87.5841 9.48047 87.3799 9.57709 87.2008 9.72559C87.1853 9.73811 87.1554 9.73274 87.1083 9.73871C87.1429 9.66953 87.1626 9.61883 87.1913 9.5741C87.276 9.44111 87.2826 9.31289 87.1823 9.18467C87.156 9.15127 87.1274 9.11668 87.1137 9.07792C87.1023 9.04571 87.1011 9.00158 87.1154 8.97295C87.122 8.95983 87.1769 8.96758 87.2098 8.97116C87.2928 8.97951 87.3775 9.00814 87.4569 8.99561C87.5465 8.9813 87.6325 8.93657 87.7161 8.89602C88.0176 8.75169 88.3173 8.60379 88.6182 8.45708C88.6534 8.43979 88.6886 8.4213 88.7238 8.40341C88.6868 8.38253 88.657 8.38373 88.6283 8.38909C88.4791 8.41593 88.3286 8.4374 88.1811 8.47199C87.774 8.56682 87.3734 8.6849 87.0205 8.91689C86.9053 8.99263 86.765 9.0636 86.7483 9.23178C86.731 9.4101 86.7363 9.55383 86.9095 9.69219C87.1799 9.90808 87.319 10.2212 87.3608 10.5719C87.374 10.6816 87.3871 10.8044 87.4444 10.8927C87.5262 11.0191 87.6217 11.1378 87.7214 11.2523C87.9602 11.0281 88.2295 10.8426 88.5298 10.6965C89.0534 10.4412 89.6642 10.3136 90.3621 10.3136C91.1472 10.3136 91.7985 10.4568 92.3162 10.743C92.8332 11.0299 93.2481 11.4283 93.5598 11.9382C93.7747 12.29 93.9455 12.686 94.0744 13.1238C94.161 13.0546 94.2517 12.9902 94.3508 12.9335C94.3831 12.915 94.4111 12.8799 94.4559 12.9013C94.4888 12.8918 94.5043 12.8447 94.5479 12.8608C94.6547 12.8119 94.7616 12.8202 94.8679 12.8608C95.1491 12.9019 95.4159 12.986 95.6804 13.091C96.1252 13.2681 96.4595 13.5913 96.8052 13.9021C96.8506 13.9426 96.887 13.9951 96.8864 14.0625C96.9384 14.1937 96.9294 14.3255 96.8858 14.4567C96.8357 14.6255 96.7813 14.7919 96.6476 14.9171C96.6381 14.9749 96.5927 14.9988 96.5473 15.0233C96.241 15.3006 95.8876 15.3536 95.5025 15.2356C95.3598 15.192 95.2195 15.1378 95.0965 15.0489C94.9909 15.0543 94.9216 15.1181 94.8691 15.2004C94.6691 15.5111 94.4995 15.8367 94.4183 16.1999C94.4159 16.355 94.4123 16.5076 94.4052 16.6567C94.481 17.0838 94.7873 17.4863 95.1903 17.6342C95.3353 17.6873 95.4727 17.6921 95.613 17.5799C95.4589 17.4481 95.3395 17.2979 95.3538 17.0832C95.3747 16.7611 95.5336 16.5017 95.7312 16.2601C95.7795 16.1677 95.8452 16.0896 95.9246 16.0222C95.9748 15.9566 96.0285 15.8946 96.1055 15.8588C96.238 15.7174 96.404 15.6232 96.5801 15.554C96.7121 15.5021 96.819 15.4479 96.8416 15.2928C96.8482 15.2505 96.8757 15.2105 96.9175 15.1867C96.9228 15.1073 97.0052 15.0686 97.0452 15.0638C97.1963 15.0441 97.1903 14.9493 97.1927 14.839C97.1957 14.6833 97.1652 14.5324 97.1503 14.3792C97.0811 14.081 96.9175 13.84 96.699 13.6313C96.6697 13.6033 96.613 13.5794 96.6363 13.5251C96.6536 13.4846 96.7043 13.4947 96.7419 13.4894C96.9139 13.4643 97.0852 13.4404 97.2524 13.3927C97.3599 13.3623 97.4464 13.3092 97.49 13.2013C97.7497 12.7236 98.2954 12.6318 98.7265 13.0576C98.8059 13.1357 98.8811 13.2228 98.8727 13.348C98.8698 13.3957 98.8996 13.4017 98.9366 13.4005C98.9432 13.3641 98.9492 13.3277 98.9557 13.2914C98.9575 13.2657 98.9611 13.2407 98.9689 13.2156C98.9617 13.1154 98.9659 13.0182 98.9999 12.9305Z" fill="#FAA621"/>
<path d="M35.3441 24.1849C34.4551 24.0739 33.5655 23.9636 32.6766 23.8509C31.9977 23.765 31.5332 23.3738 31.3971 22.7768C31.2646 22.1965 31.5619 21.3843 32.0527 21.0873C32.227 20.9817 32.4527 20.9328 32.6592 20.9185C32.8073 20.9078 32.8992 20.8726 32.9476 20.7461C33.0067 20.5923 33.061 20.4342 33.0969 20.2738C33.1936 19.845 33.4999 19.5856 33.9363 19.6363C35.2468 19.7883 36.5554 19.9523 37.8629 20.1283C38.2904 20.1861 38.5239 20.4986 38.5221 20.9304C38.5215 21.03 38.5077 21.1296 38.5137 21.2286C38.5286 21.4689 38.5668 21.6461 38.8833 21.7111C39.3358 21.8041 39.5328 22.19 39.6403 22.6116C39.8737 23.5294 39.4361 24.3375 38.6039 24.5051C38.4212 24.5421 38.2236 24.5391 38.0367 24.5177C37.1387 24.4133 36.242 24.297 35.3441 24.1849Z" fill="#FAA621"/>
<path d="M34.0282 19.0983C34.4861 17.203 34.9381 15.334 35.3936 13.4482C36.2516 13.5556 37.1101 13.6629 37.98 13.7714C37.9543 15.7067 37.9286 17.6366 37.9029 19.5826C36.6163 19.4216 35.3453 19.2629 34.0282 19.0983Z" fill="#FAA621"/>
<path d="M36.1483 6.69835C36.448 6.57072 36.7113 6.4586 36.9925 6.33873C36.8175 6.08408 36.7441 5.78588 36.8784 5.49127C36.9531 5.32786 37.0904 5.17161 37.2391 5.06844C37.5656 4.843 38.0397 4.93187 38.2988 5.23125C38.6176 5.59981 38.58 6.00893 38.1686 6.51049C38.6074 6.73532 38.9436 7.06274 39.1776 7.49631C39.783 8.6193 39.3955 10.1425 38.3221 10.8074C38.2188 10.8712 38.0731 10.9094 37.9537 10.8969C37.3435 10.8337 36.7346 10.7561 36.1274 10.6691C36.0145 10.653 35.8862 10.5939 35.8068 10.5134C35.0091 9.70829 34.8963 8.339 35.5507 7.38359C35.8635 7.73069 36.1745 8.07301 36.482 8.41891C36.6277 8.58232 36.8014 8.66045 37.014 8.58828C37.3214 8.48451 37.4092 8.12191 37.1829 7.85831C36.8599 7.482 36.5232 7.11701 36.1483 6.69835Z" fill="#FAA621"/>
<path d="M34.196 12.2477C35.9489 12.4666 37.6844 12.6836 39.4194 12.9007C39.3961 13.2776 39.0863 13.5335 38.6845 13.4894C38.1238 13.4285 37.5644 13.3522 37.0044 13.2818C36.2719 13.19 35.5381 13.1023 34.8062 13.0051C34.3918 12.9508 34.1829 12.6932 34.196 12.2477Z" fill="#FAA621"/>
<path d="M38.9961 12.398C37.5776 12.2208 36.1739 12.0449 34.7697 11.8696C34.71 11.5505 35.0032 11.2309 35.3518 11.2583C35.6736 11.2833 35.9931 11.3334 36.3137 11.3734C37.0283 11.4623 37.7435 11.5499 38.4576 11.6424C38.8606 11.6948 39.0504 11.9555 38.9961 12.398Z" fill="#FAA621"/>
<path d="M78.7505 10.1043C78.886 9.821 78.9541 9.38386 78.9541 8.79224C78.9541 8.15173 78.8896 7.69609 78.76 7.42474C78.6305 7.15398 78.4609 7.01801 78.2513 7.01801H74.1133L72.6482 11.1766C72.8685 11.5935 72.9796 12.098 72.9796 12.6908C72.9796 13.0606 72.9211 13.4148 72.8041 13.753C72.6864 14.0917 72.5139 14.3905 72.2858 14.6493C72.0578 14.9081 71.7706 15.1115 71.4255 15.2588C71.3461 15.2928 71.2637 15.322 71.1778 15.3483L69.9932 18.7095C70.0697 18.7125 70.1461 18.7143 70.2231 18.7143C71.2589 18.7143 72.1993 18.5819 73.0441 18.3171C73.8889 18.0523 74.6101 17.664 75.2083 17.1529C75.8065 16.6418 76.2656 16.0138 76.5862 15.2684C76.9068 14.5235 77.0674 13.6701 77.0674 12.7093C77.0674 12.3025 77.0089 11.9119 76.8919 11.5362C76.7743 11.1605 76.5803 10.8247 76.3092 10.5289H78.2513C78.4484 10.5295 78.6149 10.3882 78.7505 10.1043Z" fill="#FAA621"/>
<path d="M68.2625 23.9994L71.5736 24.0918C72.3503 24.1169 72.9611 24.2767 73.4047 24.5725C73.8489 24.8683 74.0704 25.293 74.0704 25.8476C74.0704 26.1678 74.0083 26.4726 73.8853 26.7624C73.7617 27.0517 73.5521 27.3135 73.2566 27.5479C72.9605 27.7817 72.5724 27.9695 72.0912 28.1115C71.61 28.2528 71.0183 28.3238 70.3156 28.3238C69.1807 28.3238 68.3025 28.1633 67.6798 27.8431C67.3705 27.6838 67.1377 27.4882 66.9824 27.2556L65.6809 30.949C65.9436 31.0295 66.2212 31.1029 66.515 31.1685C67.5072 31.3904 68.7067 31.5013 70.1127 31.5013C71.5557 31.5013 72.816 31.3474 73.8954 31.0391C74.9743 30.7314 75.8716 30.3121 76.5868 29.7825C77.3021 29.2529 77.8382 28.6279 78.1958 27.9069C78.5534 27.1865 78.732 26.4195 78.732 25.6066C78.732 24.8677 78.5994 24.2087 78.3343 23.6296C78.0693 23.0506 77.6872 22.555 77.1874 22.1423C76.6877 21.7296 76.071 21.4093 75.3379 21.1815C74.6041 20.9537 73.7683 20.8213 72.8315 20.7843L69.3085 20.6543L68.0816 24.136C68.1395 24.0912 68.1998 24.0453 68.2625 23.9994Z" fill="#FAA621"/>
</svg>
