<?xml version="1.0" encoding="utf-8"?>
<!-- Generator: Adobe Illustrator 25.2.0, SVG Export Plug-In . SVG Version: 6.00 Build 0)  -->
<svg version="1.1" id="Layer_1" xmlns="http://www.w3.org/2000/svg" xmlns:xlink="http://www.w3.org/1999/xlink" x="0px" y="0px"
	 viewBox="0 0 2560 1329" style="enable-background:new 0 0 2560 1329;" xml:space="preserve">
<style type="text/css">
	.st0{fill:none;stroke:#131313;stroke-width:2;stroke-linecap:round;stroke-linejoin:round;stroke-miterlimit:10;}
	.st1{fill:#131313;}
</style>
<g id="_x38_wPMiE.tif">
	<g>
		<path class="st0" d="M1186.33,649.5c5.59-11.73,13.48-21.65,23.25-30.2c6.79-5.94,14.84-7.44,23.31-6.78
			c14.44,1.12,26.35,7.39,35.36,18.88c1.82,2.32,2.92,4.98,3.92,7.74c2.31,6.37,4.81,12.67,7.3,18.97c1.4,3.56,0.79,6.66-1.73,9.49
			c-5.9,6.62-13.72,10.18-21.55,13.81c-12.53,5.83-25,11.79-34.09,22.8c-2.29,2.77-5.11,5.01-8.17,6.91
			c-6.69,4.13-13.62,3.7-19.75-0.53c-10.47-7.23-20.57-15-30.66-22.76c-14.6-11.24-29.69-21.95-43.41-34.19
			c-19.51-17.4-35.22-37.86-44.62-62.73c-6.61-17.49-11.68-35.41-16.27-53.48c-3.15-12.43-6.29-24.9-8.48-37.51
			c-1.21-6.94-2.11-14.02-2.95-21.06c-2.69-22.34,6.3-40.97,17.44-59.05c4.89-7.93,10.91-14.87,18.95-19.84
			c5.2-3.22,10.82-4.3,16.81-3.01c20.59,4.44,35.93,16.61,48.77,32.71c8.05,10.1,12.59,21.88,17.16,33.67
			c3.67,9.45,8.3,18.41,13.42,27.12c9.83,16.72,19.9,33.29,29.67,50.04c3.86,6.61,5.35,14.12,6.89,21.53
			c0.32,1.54,0.01,3.21,2.21,3.44"/>
		<path class="st0" d="M1126.41,370.66c-5.97,3.7-12.82,4.91-19.4,6.91c-23.72,7.23-43.25,20.15-55.56,42.25
			c-7.18,12.91-11.87,26.71-14.93,41.3c-4.03,19.25-7.77,38.56-11.87,57.79c-5.75,26.93-11.9,53.79-19.94,80.13
			c-5.31,17.41-11.76,34.41-19.53,50.98c-9.13,19.45-17.33,39.38-24.99,59.46c-3.84,10.05-7.43,20.34-9.62,30.97
			c-1.25,3.02-2.49,3.03-4.81,3.02c-15.44-0.03-30.89-0.03-46.33-0.02c-4.46,0-8.92-0.22-13.35-0.67l-3.91-0.4
			c-2.49-0.25-5-0.38-7.5-0.38c-267.13,0.29-379.15-0.65-647.74,0.45c-85.78,0.35-171.59,0.04-257.38,0.07
			c-15.55,0.01-30.4-2.41-46.45-1.23c-10.64,0.79-21.88,0.48-32.86,0.66"/>
		<path class="st0" d="M1295.19,559.43c6.46,1.99,12.75,4.22,17.48,9.47c6.56,7.3,10.22,15.86,12.16,25.42
			c1.12,5.5,2.1,10.73,1.03,16.45c-0.4,2.17,0.74,4.99,0.71,7.71c-0.18,14.14-3.22,27.76-6.53,41.38c-1.24,5.08-2.68,10.13-2.7,15.5
			c-0.06,12.86,5.44,22.06,16.85,28.07c7.36,3.88,14.97,6.07,23.31,6c24.86-0.23,49.72-0.81,74.58-1.06
			c13.07-0.13,26.17-0.18,39.23-0.79c17.39-0.82,34.78-0.43,52.17-0.81c19.54-0.42,39.12-0.12,58.62-1.07
			c11.8-0.57,23.59-0.11,35.37-0.9c10.45-0.7,20.98,0.15,31.46-0.56c1.58-0.11,3.17-0.15,5.17-0.24c0-5.5,0.04-10.82-0.02-16.14
			c-0.02-1.84-0.85-3.14-2.99-3.02c-0.86,0.04-1.72,0.01-2.59,0.01c-89.24,0-178.49,0.01-267.73-0.02c-6.06,0-12.18,0.71-18.11-1.27
			"/>
		<path class="st0" d="M1336.8,271.97c3.27,10.06,2.87,20.03,0.08,30.19c-2.94,10.68-7.17,20.45-15.07,28.52
			c-2.21,2.26-3.34,5.51-4.13,8.92c-1.89,8.14-1.24,16.44-2.39,24.61c-0.72,5.13-3.05,7.45-8.24,7.3c-1.44-0.04-2.92-0.1-4.3-0.45
			c-3.08-0.79-4.88-0.26-6.66,2.95c-2.14,3.85-6.93,5.28-10.19,8.26c-2.71,2.47-5.32,5.12-9.46,5.27c-1.76,0.06-1.94,2.1-2.55,3.4
			c-0.49,1.05-0.52,2.31-0.92,3.42c-2.12,5.91-7.07,7.91-12.93,5.65c-8.81-3.4-15.08-9.94-19.64-17.6
			c-6.09-10.25-11.16-21.11-16.27-31.94c-5.08-10.78-3.4-21.24,0.31-31.46c3.18-8.78,7.87-17.01,11.9-25.49"/>
		<path class="st0" d="M1140.2,443.5c3.31,6.75,6.87,13.39,9.85,20.29c3.47,8.04,7.46,15.81,11.19,23.72
			c3.12,6.62,4.31,13.91,5.69,21.08c2.79,14.44,7.5,28.1,18.2,38.7c4.46,4.42,6.9,9.79,9.31,15.21c3.05,6.89,6.11,13.59,11.65,19
			c3.1,3.03,6.25,6.33,5.36,11.58c-0.38,2.23,1.88,2.51,3.77,2.58c4.38,0.18,8.7-0.2,12.93-1.32c10.67-2.83,21.17-6.15,31.06-11.17
			c1-0.51,1.82-0.52,1.36-2.2c-1.44-5.28,1.18-9.56,4.75-12.82c6.1-5.58,13.68-8.15,21.91-8.66c0.98-0.06,2.01,0.53,3.02,0.81"/>
		<path class="st0" d="M1327.31,601.66c11.92-19.3,28.08-35,43.56-51.27c5.41-5.69,11.25-10.61,18.88-13.56
			c6.32-2.45,12.1-6.38,19.04-7.12c11.26-1.2,22.61-3.89,33.62,1.28c6.63,3.11,13.23,6.31,19.84,9.47"/>
		<path class="st0" d="M1129.43,370.66c5.33,5.95,10.25,12.14,13.86,19.36c2.82,5.63,3.38,11.76,4.6,17.72
			c2.89,14.18,10.66,25.65,19.47,36.62c2.55,3.17,4.57,6.9,9.49,6.92c6.01,0.02,10.77-2.8,15.06-6.53c2.91-2.53,5.49-5.42,8.23-8.15
			c1.92-1.92,3.26-4.27,3.38-6.9c0.22-4.84,2.3-9.34,2.3-14.22c0-1.57,0.47-3.49,2.95-3.02"/>
		<path class="st0" d="M1407.07,604.68c1.99,0.44,4.17-1.8,6.04,0.43c0.11,2.37-1.48,3.81-3.04,5.15
			c-6.22,5.36-6.52,6.77-2.51,13.91c2.04-0.56,2.94-1.72,3.51-3.95c1.01-3.95,2.65-4.57,6.42-3.46c-2.33,4.94-5.15,9.73-4.84,15.49
			c0.02,0.42-0.17,0.93-0.42,1.28c-3.74,5.28-0.78,9.85,1.82,14.18c1.9,3.17,3.49,6.31,4.3,9.94c0.48,2.15,0.33,3.59-1.31,5.24
			c-3.18,3.18-3.46,7.08-1.77,11.15c1.67,4.04,5.24,4.8,9.05,5.18c9.17,0.92,11.28-5.57,9.41-12.49c-0.82-3.02-2.39-5.84-2.51-9.07"
			/>
		<path class="st0" d="M1147.1,222.84c-0.13-1.57,1.06-1.95,2.16-2.13c15.27-2.55,25.54-12.06,34.08-24.14
			c6.46-9.14,13.11-18.01,24.08-22.52c6.13-2.52,12.2-2.73,18.58-2.1c10.09,1,18.09,6.37,25.81,12.18c3.8,2.86,7.02,6.5,6.09,11.99"
			/>
		<path class="st0" d="M1387.67,489.18c2.14-4.29,6.74-5.22,10.4-7.23c8.91-4.88,17.65-10.05,27.48-13.22
			c4.32-1.4,7.41-0.54,10.85,1.47c5.72,3.35,10.81,7.74,17.64,9.18c4.31,0.91,8.66,1.53,12.96,2.46c9.73,2.09,9.19,7.24,6.79,13.76
			c-2.37,6.44-2.35,12.76-0.2,18.96c1.35,3.9,2.87,7.76,4.16,11.69c0.21,0.65,0.03,1.43,0.03,2.15c-2.99,2.15-5.55,0.23-8.24-1.11
			c0.93-3.46,2.18-7.09,2.2-10.96"/>
		<path class="st0" d="M1260.49,583.56c2.36,5.29,5.72,9.59,10.22,13.51c9.17,7.98,14.35,18.63,16.9,30.46
			c1.11,5.12,1.72,10.34,2.64,15.5c1.08,6.08,5.26,8.17,11.21,6.07c10.17-3.59,14.85-11.76,18.07-21.16
			c1.6-4.69,2.85-9.49,4.4-14.19c0.21-0.65,0.48-1.78,1.67-1.74"/>
		<path class="st0" d="M1157.02,480.99c-1.78,1.58-0.37,3.17,0.01,4.74c1.57,6.52,3.52,12.98,3.02,19.83
			c-0.35,4.8-2.02,8.99-6.53,11.09c-2.29,1.07-5.15,0.86-7.7,1.43c-5.09,1.13-6.29,3.26-3.02,7.73
			c4.62,6.31,10.01,11.95,13.92,18.89c6.67,11.84,4.71,22.69-2.35,33.22c-3.46,5.16-6.92,10.43-12.41,13.89
			c-1.52,0.96-2.82,2.42-3.49,4.25"/>
		<path class="st0" d="M1386.38,505.56c4.69-0.71,8.32-3.76,12.51-5.59c8.1-3.53,16.1-7.34,24.59-9.86
			c2.16-0.64,4.58-0.43,6.72-0.59c1.31,2.54-0.21,3.87-1.16,5.25c-4.65,6.74-10.74,12.26-15.97,18.51
			c-1.82,2.17-3.51,4.37-4.69,6.93c-0.51,1.11-0.97,2.37,0.01,3.42c1.09,1.18,2.03-0.06,2.99-0.42c4.73-1.76,9.1-4.29,13.33-6.94
			c7.04-4.42,14.55-6.92,22.89-6.84"/>
		<path class="st0" d="M1604.1,662.86c0.53,3.38-1.13,6.52-1.03,9.92c0.04,1.41-0.89,3.62-3.28,3.89
			c-5.92,0.66-11.7,0.06-16.76-3.12c-3.53-2.22-3.8-7.02-2.3-11.58c1.92-5.8,6.35-9.78,9.56-14.63c1.73-2.62,3.51-5.17,3.52-8.61
			c0.02-3.84-0.81-7.05-4.39-9.13c-2.27,0.37-3.63,1.48-3.43,3.95c0.25,3.01-0.28,6.02,0.34,9.07c0.41,2.03,0.76,4.53-2.07,5.58
			c-2.27,0.85-6.45-0.72-7.79-2.56c-3.06-4.19-1.72-8.91-0.57-12.88c1.32-4.55,0.58-8.67,0.19-13c-0.56-6.16-2.11-12.3-0.83-18.52
			c0.41-1.99-0.02-4.68,3.41-4.79c2.94-0.1,4.13,1.65,5.19,3.92c1.95,4.18,2.69,8.24,1.39,12.97c-2.45,8.97-3.95,18.17-3.54,27.55
			c0.1,2.37-1.44,4.49-0.89,6.9"/>
		<path class="st0" d="M1254.88,197.41c-6.5-1.41-12.86-1.86-19.4,2.36c5.39,4.66,10.56,2.74,15.48,1.39
			c1.6-0.44,3.99-0.7,4.39-3.32c0.19-1.25,1.87-1.29,2.52-1.21c12.84,1.76,25.81,2.83,37.57,9.3c7.16,3.94,13.29,9.1,18.82,14.84
			c8.9,9.23,16.74,19.35,22.57,30.91c1.83,3.63,3.13,7.4,4.19,11.25c1.1,3.96-0.43,6.4-4.68,8.6"/>
		<path class="st0" d="M1096.23,343.94c7.23-6.98,11.98-15.73,17.31-24.1c5.9-9.27,9.33-19.55,12.79-29.8
			c2.86-8.46,8.24-13.9,16.42-17.31c7.63-3.18,15.4-5.97,23.37-7.88c3.72-0.89,7.78-0.9,11.59-1.94"/>
		<path class="st0" d="M1226.86,471.51c-3.6,4.71-4.19,10.55-5.45,15.98c-2.07,8.89-3.56,17.93-4.11,27.11
			c-0.52,8.5-0.55,16.97,0.14,25.43c0.59,7.21,2.07,14.35,2.36,21.56c0.15,3.7-0.37,7.46,0.17,11.2"/>
		<path class="st0" d="M1261.35,581.41c3.4,0.12,5.69-2.26,8.14-3.95c6.6-4.54,13.24-9.11,19.36-14.25
			c4.7-3.95,9.77-7.4,14.37-11.47c5.2-4.6,10.92-8.62,16.31-13.02c5.53-4.51,11.1-8.99,16.35-13.82
			c5.55-5.1,10.55-10.77,16.85-15.05c8.11-5.52,16.7-9.64,26.74-9.89c2.61-0.06,4.55,0.73,5.67,3.42c0.99,2.38,0.88,3.62-1.75,4.84
			c-6.74,3.14-13.04,7.11-18.96,11.62c-1.33,1.02-3.13,2.06-3.19,4.51c4.34,1.37,8.06,0.14,11.79-1.95
			c5.6-3.15,10.24-6.97,11.19-13.82"/>
		<path class="st0" d="M1270.84,256.88c0.05-4.43-3.16-7.48-4.79-11.18c-4-9.07-6.87-18.5-9.4-28.04c-0.55-2.08,1.54-3.42,3.84-2.57
			c3.8,1.4,7.07,3.74,10.34,6.04c10.95,7.71,21.55,16,32.91,23.05c5.76,3.58,11.14,7.75,17.12,10.98"/>
		<path class="st0" d="M1520.46,627.95c-2.53,2.5-4.46,5.53-7.71,7.42c-2.81,1.64-2.44,3.83,0.37,5.95
			c2.85,2.15,6.51,2.47,9.51,4.11c0.03,2.82-2.16,3.34-3.91,4.02c-3.49,1.35-5.07,3.16-4.47,7.4c0.64,4.49,0.03,9.18-0.3,13.76
			c-0.28,3.9,0.84,6.19,4.36,6.39c4.9,0.28,9.86,0.36,14.66-1.19c2.64-0.86,4.01-2.1,3.08-5.21c-0.88-2.93-1.5-5.99-1.71-9.04
			c-0.2-2.88-0.21-5.73,1.08-8.67c1.81-4.12,2.84-8.66-0.3-12.87"/>
		<path class="st0" d="M1209.18,413.33c3.89,10.03,7.84,20.03,12.46,29.76c2.24,4.72,5.9,8.62,7.41,13.76
			c2.32,7.9,4.05,16.02,4.13,24.15c0.27,26.78,6.21,52.48,13.46,78.02c1.38,4.86,3.34,9.57,3.93,14.64"/>
		<path class="st0" d="M1150.12,585.29c2.36,1.21,4.28-0.71,6.46-0.95c7.71-0.85,14.69,1.64,21.54,4.46
			c5.69,2.35,11.04,5.44,14.69,10.71c4.72,6.81,4.52,14.34,2.98,21.97c-0.89,4.41-2.09,8.76-3.78,12.96
			c-0.33,0.82-1.14,1.98-0.07,2.99"/>
		<path class="st0" d="M1201.85,300.41c1.53,5.98,2.59,12.12,6.42,17.27c0.77,1.04,1.49,1.97,2.95,2.86
			c3.1-4.06,3.76-8.48,2.68-13.23c-0.89-3.91-2.1-7.74-2.97-11.65c-1.11-4.96,2.2-10.7,6.88-12.03c1.18-0.33,2.45,0.07,3.42,0.84
			c1.78,1.42,1.24,3.7,0.74,5.1c-1.28,3.55-4.44,5.08-8.03,6.14c-12.12,3.58-24.19,7.31-36.21,11.22c-3.02,0.98-5.84,2.68-8.63,4.27
			c-5.31,3.03-7.74,8.13-9.04,13.77c-2.5,10.86-5.88,21.29-12.97,30.16"/>
		<path class="st0" d="M1276.44,214.22c1.58-1.98,3.32-0.36,4.72,0.08c23.95,7.5,39.29,24.54,50.41,46.06
			c1.77,3.42,4.09,6.69,4.36,10.75"/>
		<path class="st0" d="M1145.81,356.87c-5.1,5.29-10.99,9.56-17.22,13.48c-2.27-0.51-2.93-2.67-4.33-3.99
			c2.12-3.69,5.2-6.55,8.2-9.48c5.79-5.65,7.58-5.81,13.77-0.41c14.17,12.37,26.12,26.43,34.67,43.42
			c3.92,7.78,8.25,15.49,13.53,22.57c0.94,1.26,1.49,2.38,3.12,2.51"/>
		<path class="st0" d="M1379.05,494.35c4.59-4.37,10.94-4.26,16.36-6.51c7.2-2.99,14.55-5.45,21.96-7.87
			c10.52-3.44,20.37-1.8,30.2,1.95c1.63,0.62,3.82,0.49,4.79,2.56c-1.15,0.84-2.31,1.69-3.47,2.54"/>
		<path class="st0" d="M1564,627.09c0.44,9.73-1.02,19.02-5.99,27.61c-1.55,2.67-0.15,5.33,2.98,6.44
			c5.44,1.92,10.61,0.58,15.48-1.81c2.16-1.06,3.26-3.38,3.52-5.94c0.16-1.59,0.55-3.16,0.84-4.74"/>
		<path class="st0" d="M1373.44,630.11c-3.64,1.54-7.47,0.61-11.21,0.86c-2.44,0.17-4.93-0.41-7.58,0.51
			c-0.69,7.01,0.09,14.03,1.12,21.04c1.04,7.06,1.44,14.22,3.44,21.12"/>
		<path class="st0" d="M1194.53,199.56c-0.39,1.47-1.36,2.62-2.1,3.91c-2.48,4.29-5.04,8.6-7.64,12.74
			c-4.2,6.68-10.16,12.11-16.91,16.66c-5.41,3.64-11.4,5.39-17.27,7.77c-7.35,2.98-14.17,0.99-21.18-0.57"/>
		<path class="st0" d="M1547.19,611.58c-0.33,1.58-1.21,2.85-0.13,4.81c1.88,3.4,2.89,7.26,0.98,11.13
			c-3.53,7.13-0.75,14.11,0.47,21.12c0.38,2.19,1.34,4.28,1.64,6.48c0.37,2.76-0.2,4.7-3.8,5.32c-3.88,0.67-7.86,0.52-11.67,1.57"/>
		<path class="st0" d="M1436.82,657.26c-3.44-0.5-6.91,0.53-10.4-1.19c-5.03-2.48-7.7-5.8-7.7-11.31c0-3.64-0.08-7.21,1.15-10.82
			c0.85-2.5,2.42-2.32,4-2.04c2.58,0.46,5.92,4.92,6.03,7.69c0.09,2.3-0.28,4.56,1.68,6.53c1.32,1.33,1.16,3.23,0.55,5.13
			c-0.57,1.78-0.64,3.72-0.92,5.58"/>
		<path class="st0" d="M1449.32,488.75c1.54,1.41,3.43,0.71,5.17,0.85c2.17,0.18,4.28,0.02,6.5,0.77c5.54,1.87,6.41,2.84,5.13,8.29
			c-3.45,14.62-16.96,21.61-28.87,18.52c-0.61-0.16-1.17-0.53-1.74-0.81c1.16-3.33,5.46-2.73,6.91-5.64"/>
		<path class="st0" d="M1202.72,273.26c-0.43-0.82-1.02-1.33-0.5-2.62c5.66-13.97,10.4-28.32,17.34-41.77
			c0.42-0.81,1.08-1.48,1.79-2.42c2.21,1.66,2.05,4.2,2.44,6.31c2.22,12.13,7.16,22.94,15.17,32.3c4.1,4.79,9.55,7.45,15.52,9.01
			c2.94,0.77,5.6-1.7,8.61-1.24"/>
		<path class="st0" d="M1157.88,298.26c-5.31-2.16-9.75-6.15-15.35-7.67c-2.92,20.45-14.8,34.19-31.22,44.71
			c-3.21,2.06-6.05,5-10.34,4.76"/>
		<path class="st0" d="M1234.19,212.49c-1.14,9.46-2.88,18.91-0.84,28.44c1.27,5.92,3.91,11.19,7.7,15.98
			c4.67,5.91,9.91,11.02,16.83,14.24c0.6,0.28,1.49,0.84,1.32,1.89"/>
		<path class="st0" d="M1608.41,644.76c3.21,2.54,4.95,5.77,5.7,9.9c0.97,5.35-0.67,8.09-6.13,8.14c-2.88,0.03-5.83-0.2-8.63-1.22
			c-3.8-1.38-5.67-4.12-4.69-7.76c1.25-4.68,2.77-9.47,5.72-13.24c1.87-2.39,1.89-4.6,1.01-6.54c-2.49-5.56-3.42-11.27-3.38-17.29
			c0.03-4.14,1.39-7.47,4.62-10.06c6.61,6.01,6.01,21.3-0.92,27.73"/>
		<path class="st0" d="M1239.36,383.59c-6.01,3.46-12.6,5.6-18.99,8.13c-11.12,4.4-18.54,12.07-20.95,23.79
			c-0.88,4.26-2.57,8.81-0.58,13.33"/>
		<path class="st0" d="M1222.12,332.74c2.71,5.96,7.27,10.53,12.16,14.55c4.65,3.83,8.79,7.91,12.04,13
			c1.99,3.12,3.37,6.5,4.13,9.97c0.68,3.12-0.6,6.29-2.95,8.53c-1.7,1.63-3.57,3.27-5.98,3.94"/>
		<path class="st0" d="M1196.25,243.09c0.57,0,1.38,0.25,1.69-0.04c7.68-7.08,13.38-15.51,16.82-25.4c0.18-0.51,0.02-1.14,0.02-1.96
			c-2.64-0.55-4.88,0.12-6.91,1.95c-7.06,6.37-9.76,14.79-12.2,23.68c-4.43,16.16-6.63,33.28-17.59,46.97
			c-3.55,4.43-7.69,8.39-11.62,12.51c-0.35,0.36-1.15,0.51-1.69,0.43c-4.02-0.59-6.45,1.95-9.08,4.31
			c-4.29,3.85-7.52,8.59-11.31,12.85c-6.75,7.59-13.19,15.64-22.25,20.88c-1.76,1.02-2.92,3.08-4.36,4.66"/>
		<path class="st0" d="M1194.96,289.21c1.44-3.16,3-6.27,4.28-9.49c2.44-6.12,7.49-9.84,12.59-13.26c5.03-3.37,8.92-2.27,12.44,2.49
			c5.15,6.96,9.39,14.54,15.04,21.16c4.43,5.19,9.39,6.34,15.16,2.58c5.69-3.72,10.37-8.61,15.46-13.01
			c7.37-6.37,15.84-9.4,25.47-9.9c11-0.57,21.85,1,32.77,1.73c2.72,0.18,5.46,0.03,8.19,0.03"/>
		<path class="st0" d="M1492.86,628.38c-2.14-2.4-4.43-4.58-7.76-5.16c-2.41-0.43-4.29-0.13-4.33,3.01
			c-0.04,2.68,0.21,5.47,1.41,7.71c3.67,6.86,2.34,12.53-2.6,18.22c-4,4.6-3.77,8.82-1.45,13.33c3.36,6.53,8.46,5.89,16.89,3.86
			c3.92-0.95,5.54-5.01,9.05-6.48"/>
		<path class="st0" d="M1376.03,623.64c-0.39,3.76-1.33,7.53-3.13,10.71c-4.32,7.65-2.87,14.71,3.38,21.91
			c-2.79,3.56-2.42,7.9-2.43,12.2c0,2.27,1.02,3.91,3.04,4.71c7.16,2.83,14.37,3.55,22.01,1.45c4.68-1.29,6.83-4.25,8.13-8.33
			c1.19-3.74,1.79-7.15-0.16-11.31c-2.14-4.58-0.3-9.69,2.34-14.11"/>
		<path class="st0" d="M1392.41,628.38c-1.64-1.87-3.84-1.77-6.04-1.74c-0.98,0.01-1.81,0.01-2.62,0.84
			c-1.54,1.56-3.38,10.72-2.09,12.51c4.26,5.9,2.8,12.03,0.79,18.11c-1.63,4.94-4.17,9.63-3.41,15.1"/>
		<path class="st0" d="M1234.19,219.39c3.79,3.42,4.97,8.45,7.59,12.61c7.31,11.57,17.53,19.34,29.46,25.37
			c1.42,0.72,3.11,1.47,3.47,3.4"/>
		<path class="st0" d="M1452.34,637.87c-2.44,1.25-4.85-0.4-7.34-0.06c-3.8,0.53-4.64,1.97-3.06,5.25c1.35,2.79,3.78,4.59,6.15,5.89
			c8.38,4.59,9.46,12.1,8.91,20.37c-0.07,1.01-0.6,2.2-2.5,2.26c-4.94,0.17-9.71-1.29-14.67-1.11c-1.85,0.07-3.15-1.89-3.02-4.17
			c0.25-4.42-0.9-9.1,3.39-12.58c1.36-1.1,0.3-3.37,0.5-5.08"/>
		<path class="st0" d="M1545.89,614.16c-5.36,1.01-9.63-0.91-11.19-5.18c-0.87-2.38-0.83-4.87,0.88-6.86
			c1.99-2.32,4.83-3.13,7.7-2.53c2.45,0.51,3.1,2.7,3.05,5.09c-0.04,2.23-0.34,4.55,1.29,6.46c0.06,0.07,0.31,0.06,0.41,0
			c0.17-0.1,0.29-0.28,0.44-0.42"/>
		<path class="st0" d="M1133.74,221.97c5.1,1.21,10.39,0.4,15.54,1.65c6.34,1.55,12.47-0.15,18.53-2.07
			c5.97-1.9,11.48-4.53,16.02-8.99c0.13-0.13,1.36-1.21,2.08-0.08"/>
		<path class="st0" d="M1495.02,599.51c-2.47,0.05-4.91-0.05-7.35,0.8c-2.77,0.97-4.1,3.3-3,6.09c2.19,5.58,7.33,9.05,13.36,9.05
			c2.17,0,4.33,0,6.17,0c1.88,2.76-0.8,4.08-1.07,6.02c-0.52,3.76,0.84,7.2,1.35,10.79c0.75,5.31,1.03,10.52-1.65,15.55
			c-1.25,2.34-2.44,4.9-2.21,7.72c0.47,5.66,3.91,8.02,9.9,6.9"/>
		<path class="st0" d="M1192.8,247.4c-3.23-0.03-5.44,2.37-8.14,3.56c-7.76,3.4-15.86,5.52-24.2,5.72c-4.57,0.11-9.19-0.3-13.79,0.2
			"/>
		<path class="st0" d="M1275.15,213.36c10.06,9.48,20.14,18.94,30.15,28.47c1.21,1.15,3.12,2.02,2.61,4.28"/>
		<path class="st0" d="M1166.93,301.27c3.52,2.31,7.58,2.51,11.15,1.15c5.12-1.96,10.43-3.24,15.63-4.85
			c2.88-0.89,4.56-3.27,7.27-4.06"/>
		<path class="st0" d="M1170.38,265.5c-0.95,2.88-3.96,4.15-5.23,6.87c-1.74,3.74-2.96,7.55-2.94,11.66
			c0.02,4.84-1.06,9.41-3.04,13.79"/>
		<path class="st0" d="M1548.91,609.85c1.46-0.5,0.71-2.1,1.65-3.09c3.91-4.15,8.78-3.21,10.9,2.21c0.8,2.05,0.26,2.76-1.74,3.53
			c-4.72,1.81-6.11,4.12-5.2,7.69c1.16,4.57,4.72,6.74,9.92,6.03"/>
		<path class="st0" d="M1147.1,313.34c-4.04,0.21-6.24,3.5-8.99,5.68c-6.02,4.76-11.28,10.3-15.66,16.68
			c-0.86,1.25-0.61,2.33-0.78,3.5"/>
		<path class="st0" d="M1469.58,527.97c-2.57,5.54-6.15,10.58-8.17,16.39c-1.65,4.75,0.24,8.94,2.63,12.88
			c0.64,1.05,2.12,1.6,3.69,2.72c-5.01,4-3.03,8.31-2.43,12.4c0.52,3.5,3.67,3.61,5.99,3.33c5.4-0.65,10.79-1.81,14.42-6.76
			c-2.04-2.83-0.36-7.33-4.72-9.18c3.71-5.64,0.21-9.65-3.22-13.68"/>
		<path class="st0" d="M1472.6,600.37c1,1.17-0.9,1.94-0.43,3.02c3.15,7.19,1.32,14.36,0.04,21.56c-0.27,1.53-0.04,3.15-0.04,4.73"
			/>
		<path class="st0" d="M1146.67,243.09c4.26,1.63,8.61,0.44,12.93,0.56c5.1,0.14,9.52-2.79,14.67-2.5c1.65,0.09,3.44-2.37,5.16-3.66
			"/>
		<path class="st0" d="M1534.25,618.47c-0.31,5.38,1.8,10.53,1.35,15.95c-0.21,2.54-0.42,4.8-2.16,6.94
			c-2.81,3.47-4.13,7.78-5.16,12.04c-1.3,5.34,0.26,7.14,5.53,8.17"/>
		<path class="st0" d="M1601.51,640.02c3.99,6.96,4.31,14.35,2.59,21.98"/>
		<path class="st0" d="M1360.08,674.93c2.35,4.68,1.47,9.73,1.73,14.65c0.28,5.32,0.57,10.63,0.86,15.95"/>
		<path class="st0" d="M1402.76,605.97c-0.94-4.4,1.37-7.62,3.39-10.95c3.62,0.66,3.05,3.36,2.51,4.86
			c-1.01,2.81-1.48,6.6-5.89,6.52"/>
		<path class="st0" d="M1505.37,616.75c2.44-1.94,5.11-2.67,8.2-1.74c3.5,1.05,4.7,2.7,4.29,6.48c-0.23,2.15,0.43,3.87,2.17,5.17"/>
		<path class="st0" d="M1397.15,633.13c-1.12,9.1,1.16,18.08,0.86,27.15c-0.03,0.98,0.12,1.75,0.82,2.63
			c2.49,3.11,3.82,6.49,1.34,10.3"/>
		<path class="st0" d="M1174.26,241.8c-3.91,6.52-10.56,9.46-16.82,12.91c-0.49,0.27-0.89,0.47-0.85,1.09"/>
		<path class="st0" d="M1226.86,467.63c-0.9,3.66,2.38,6.22,2.41,9.91c0.02,3.35,1.6,6.76,1.54,10.35
			c-0.01,0.82,0.67,1.77,1.66,2.15"/>
		<path class="st0" d="M1453.2,630.11c5.86-1.61,11.76-0.82,17.68-0.48c3.01,0.17,4.17,2.05,5.17,4.36"/>
		<path class="st0" d="M1385.51,596.49c1.44,2.15,2.79,4.37,4.35,6.44c0.68,0.9,0.59,1.92,0.33,2.59c-1.37,3.53-0.87,8.32-5.97,9.5
			c-1.41,0.33-1.8,2.24-3.45,2.16"/>
		<path class="st0" d="M1380.34,590.89c-0.05,1.62,0.53,3.61-0.9,4.69c-4.24,3.19-4.18,6.99-2.11,11.26"/>
		<path class="st0" d="M1469.15,526.67c-2.79-0.6-3.8-2.38-3.94-5.17c-0.15-3.19,2.11-4.69,3.98-6.42c1.05-0.98,2.54,2.25,3.84-0.05
			"/>
		<path class="st0" d="M1376.46,607.7c-4.22,4.8-2.18,9.96-0.86,15.08"/>
		<path class="st0" d="M1492.43,612.87c0.86-1.01,1.7-2.03,2.59-3.01c1.56-1.73,4.14-1.98,5.48-1.12c1.91,1.23,4.96,2.81,3.13,6.28"
			/>
		<path class="st0" d="M1404.48,628.82c-1.34,6.02-4.22,12.15,1.3,17.66c0.07,0.07,0.28,0.01,0.42,0.01"/>
		<path class="st0" d="M1401.47,607.7c-0.46,0.52-0.95,0.79-1.72,0.91c-4.68,0.73-5.29,1.67-4.78,6.42c0.1,0.91-0.25,1.86-0.4,2.8"
			/>
		<path class="st0" d="M1463.12,542.19c1.15,0.86,2.26,1.79,3.46,2.56c0.91,0.58,1.96,0.97,2.81,1.38c2.68-0.92,2.71-3.3,3.16-5.25
			c0.77-3.34,2.42-5.14,6.09-4.77c2.06,0.21,3.42,1.29,3.79,3.07c0.35,1.69,0.64,3.89-1.66,4.67c-1.29,0.44-2.1,2.32-3.86,1.35"/>
		<path class="st0" d="M1494.16,615.89c2.22,4.34,2.26,8.2-0.61,12.66c-1.34,2.1-2.86,5.02-2.84,8.03"/>
		<path class="st0" d="M1384.65,591.75c1.27,3.55,0.15,7.09-3.02,9.48c-0.99,0.74-2.01,1.44-3.01,2.16"/>
		<path class="st0" d="M1387.67,607.7c-1.12-0.77-2.24-1.55-3.27-2.26c-4.6,2.05-5.12,7.13-4.5,9.92c0.95,4.27-1.65,5.3-3.44,7.42"
			/>
		<path class="st0" d="M1479.07,598.22c-1.13,2.78-3.44,3.17-6.04,3.02"/>
		<path class="st0" d="M1376.03,627.52c2.01,0.43,4.02,0.86,6.04,1.29"/>
		<path class="st0" d="M1379.91,621.06c1.28,1.99,3.48,3.27,4.31,5.6"/>
		<path class="st0" d="M1202.29,289.64c-1.99,3.26,0.38,6.32,0.43,9.48"/>
		<path class="st0" d="M1207.03,406.43c0.81,1.67,0.55,3.43,0.43,5.17"/>
		<path class="st0" d="M1402.33,632.69c-2.41,1.44-4.28,0.64-6.07-1.26c-0.75-0.79-0.85-2.47-2.55-2.19"/>
		<path class="st0" d="M1448.46,629.68c-0.2-1.35,0.56-2.22,1.68-1.64c1.34,0.7,3.19,1.18,2.34,3.84c-0.64,2-0.94,4.6,1.15,6.42"/>
	</g>
</g>
<path class="st0" d="M1654.11,704l48.1,16.06c43.6,14.56,89.26,21.99,135.23,22.01c221.86,0.1,336.55-0.61,582.03,0.4
	c85.78,0.35,171.59,0.04,257.38,0.07c15.55,0.01,30.4-2.41,46.45-1.23c10.64,0.79,21.88,0.48,32.86,0.66"/>
</svg>
