<?xml version="1.0" encoding="utf-8"?>
<!-- Generator: Adobe Illustrator 25.2.0, SVG Export Plug-In . SVG Version: 6.00 Build 0)  -->
<svg version="1.1" id="Layer_1" xmlns="http://www.w3.org/2000/svg" xmlns:xlink="http://www.w3.org/1999/xlink" x="0px" y="0px"
	 viewBox="0 0 2560 1329" style="enable-background:new 0 0 2560 1329;" xml:space="preserve">
<style type="text/css">
	.st0{fill:none;stroke:#131313;stroke-width:2;stroke-linecap:round;stroke-linejoin:round;stroke-miterlimit:10;}
	.st1{fill:#131313;}
</style>
<g>
	<path class="st0" d="M1343.86,513.21c1.7,0.15,3.4,0.3,5.12,0.45c1.4-2.46-0.04-5.09-0.77-7.16c-3.82-10.83-8.69-18.15-22.94-10.12
		c-5.75,3.24-11.53,6.48-17.63,8.78c-6.67,2.51-12.79,5.7-18.61,9.73c-9.23,6.4-17.55,14.08-27.65,19.26
		c-13.52,6.92-27.29,12.6-42.96,11.88c-9.81-0.45-12.58-5.06-7.97-13.64c1.57-2.92,3.35-5.57,5.7-7.88
		c13.65-13.45,30.34-22.63,46.39-32.66c8.51-5.32,17.44-9.96,24.25-17.59c3.44-3.85,3.73-7.89,1.15-12.44
		c-2.88-5.1-7.55-8-12.45-10.73c-12.56-6.97-26.39-7.39-40.13-7.18c-11.74,0.18-23.41,1.61-35.07,3.64
		c-26.08,4.53-220.6,68.14-216.49,129.05c4.11,60.91,105.36,53.64,90.31,116.11c-9.15,37.98-66.72,41.41-97.55,42.73
		c-49.21,2.11-98.45-4.51-147.63-0.62c-40.22,3.19-80.54,5.03-120.88,6.07c-40.51,1.05-81.04,1.29-121.56,1.29
		c-39.94,0-79.88-0.15-119.83-0.16c-30.94,0-61.88-0.01-92.81-0.01c-30.62,0-61.24,0-91.87,0c-19.42,0-38.83,0-58.25,0
		c-16.87,0-33.74,0-50.62,0c-39.44,0-78.87,0-118.31,0c-82.69,0.31-116.95-0.65-199.64,0.46c-26.29,0.35-52.58,0.04-78.87,0.07
		c-4.76,0.01-9.31-2.41-14.23-1.23c-3.26,0.79-6.71,0.48-10.07,0.66"/>
	<path class="st0" d="M1343.3,585.48c2.7-1.29,4.95,0.52,7.34,1.15c13.46,3.53,25.51-1.23,36.64-7.53
		c19.8-11.19,36.19-26.59,51.06-43.78c7.47-8.64,15.54-16.95,24.33-24.2c10.48-8.65,14.54-8.6,25.13,0.57
		c9.22,7.99,17.48,17.2,25.49,26.44c9.54,11.01,20.15,20.9,30.58,31.01c9.12,8.84,18.62,17.6,21.98,30.48
		c2.18,8.34,3.52,16.91,5.17,25.39c3.66,18.9,8.12,37.59,14.14,55.9"/>
	<path class="st0" d="M1504.35,214.5c1.45,12.77,4.32,25.38,3.49,38.4c-0.36,5.61,2.27,10.9,3.49,16.32
		c2.94,13.08,4.78,26.17,4.32,39.57c-0.18,5.11-2.37,9.81-3.69,14.6c-1.21,4.4-0.94,6.56,3.09,8.61c5.12,2.61,6.86,4.97,3.82,11.72
		c-4.03,8.95-7.55,18.07-11.23,27.14c-2.57,6.34-3.32,12.03-0.66,18.75c3.55,8.95,5.44,18.44,6.65,28.13
		c0.81,6.46,1.13,12.86,0.75,19.22c-0.6,10.01-1.51,20.08-3.49,29.89c-1.09,5.39-0.53,10.59-0.83,15.86
		c-0.37,6.65-2.96,8.48-9.09,5.61c-5.34-2.49-10.5-5.37-15.86-7.83c-3.02-1.38-6.28-2.08-9.85-0.5c3.26,5.71,9.42,7.37,14.38,10.63
		c3.37,2.21,6.5,4.82,9.76,7.12c3.17,2.24,0.39,5.16,2.5,7.69c5.81,6.99,11.38,14.23,17.78,20.67
		c12.77,12.84,26.04,25.18,38.88,37.95c6.49,6.45,12.07,13.95,13.42,23.13c1.49,10.08,3.39,20.04,5.88,29.89
		c2.48,9.83,4.7,19.77,8.03,29.32c3.41,9.78,6.74,19.67,11.64,28.7c-2.53,4.33-7.77,3.72-11.22,6.36"/>
	<path class="st0" d="M1337.08,578.71c4.12,3.21,5.84,8.31,9.56,11.9c10.94,10.57,22.98,9.1,35.66,3.94
		c16.21-6.6,29.62-17.5,43.5-27.71c8.35-6.14,16.57-12.47,26.01-16.92c6.86-3.23,12.82-3.65,19.95,1.42
		c15.15,10.76,29.3,22.72,43.86,34.18c5.89,4.64,12.32,8.58,17.6,14.03c3.59,3.7,5.35,7.79,5.1,13.03
		c-1.02,21.58,2.11,42.53,10.1,62.68c0.28,0.71,0.05,1.46,0.53,2.28c5.01,8.71,1.95,9.15,14.78,7.56
		c7.42-0.92,14.59-2.96,22.01-3.64"/>
	<path class="st0" d="M1448.41,376c-3.27-6.45-9.37-4.28-14.1-3.72c-8.47,1-16.92,3.22-23.69,8.89c-2.95,2.47-6.27,3.85-9.71,4.91
		c-7.98,2.47-14.59,7.73-22.51,10.46c-5.18,1.79-9.98,2.09-14.73,0.27c-13.49-5.16-27.19-4.95-41.31-3.53
		c-8.92,0.9-18.07,1.27-27.1,0.2c-2.63-0.31-4.54-2-6.22-3.93c-3.91-4.49-8.8-7.84-13.62-11.22c-1.51-1.06-3.55-3.17-5.53-1.14
		c-2.12,2.19,0.22,3.66,1.65,4.99c1.46,1.37,3.1,2.56,4.29,3.54c-2.08,5.84-5.75,4.2-8.17,2.55c-3.62-2.47-7.76-3.75-11.44-6
		c-0.9-0.55-2.14-0.04-2.92,1.39c2.08,4.4,9.28,3.58,10.3,9.28"/>
	<path class="st0" d="M1261.92,403.66c-1.29,1.84-4.73,0.91-5.22,4.25c2.02,0.3,3.83,0.52,5.8-0.26c4.17-1.65,8.38-0.51,12.4,0.6
		c5.98,1.65,11.84,1.81,17.51-0.69c3.95-1.74,7.08,0.8,10.13,1.93c12.94,4.76,26.34,7.68,39.63,11.1c14.22,3.66,28.32,3.22,42.41-1
		c2.77-0.83,5.99-0.17,9.01-0.11c4.63,0.1,6.51-1.68,6.81-6.22c0.41-6.29-2.1-11.5-5.68-16.38c-3.69-0.24-4.42,1.84-4.6,5.08
		c-0.3,5.17,0.6,10.21,1.3,15.24c0.85,6.08,4.98,8.47,11.21,6.76c9.34-2.56,17.44-1.5,24.41,6.15c4.51,4.96,8.95,9.94,12.88,15.35
		c6.61,9.09,6.18,14.15-1.62,21.95c2.65,4.52,7.52,5.94,11.86,7.21c7.19,2.11,10.71,7.3,14.19,13.11c0.95,1.58-0.67,2.33-0.05,3.55
		c-3.52-0.41-5.82-2.99-8.49-4.69c-6.49-4.14-13.7-6.35-20.99-8.28c-2.47-0.65-5.03-0.34-7.42,2.04
		c-5.71,5.66-10.54,11.75-13.48,19.3c-1.92,4.92-5.37,8.62-9.53,11.92c-13.94,11.06-26.79,23.17-35.63,38.91
		c-0.49,0.87-0.82,1.83-1.62,2.42c-3.73-7.72-5.05-15.34-8.52-22.21c-1.73-3.42-3.15-6.53-7.96-6.29c-3.69,0.18-5.23,1.6-5.7,5.18
		c-1.45,11.26-15.46,22.61-27.08,25.38c-2.22,0.53-4.68,0.07-5.52-2.26c-0.59-1.64-0.23-3.51,1.49-5.12c2.49-2.33,5.17-4.31,8-6.11
		c3.31-2.1,7.17-4.05,8.86-7.44c3.01-6.02,8.04-6.96,13.73-7.26"/>
	<path class="st0" d="M1442.76,364.14c9.25,6.65,17.81,14.31,28.43,20.28c0.18-2.38,0.7-3.84,0.33-5.01
		c-3.69-11.38,2.2-20.77,7.14-29.79c3-5.46,7.18-11.05,8.21-16.64c1.3-7,4.88-14.15,1.87-22c-1.89-4.92,0.12-10.59,1.11-15.7
		c1.84-9.57,3.62-19.11,4.35-28.83c0.31-4.15,1.71-8.21,1.09-12.42c-0.63-4.29-1.1-7.9-6.64-9.92c-6.25-2.28-9.94-8.68-15.05-13.38
		c4.03-3.01,6.47,0.26,9.64,0.77c2.4-6.34-7.67-9.43-4.2-15.96c5.31,1.39,4.98,8.12,9.77,10.54c2.24-5.88-4.97-10.44-1.7-16.18
		c2.17,0.46,4.5,2.27,6.97,0.36c3.35,4.48,3.17,10.17,6.16,14.43c3.14-0.6,0.71-4.17,3-5.11"/>
	<path class="st0" d="M1569.34,693.33c-5.14,1.99-7.88,6.72-7.27,13.54c0.29,3.24,1.24,6.47,2.22,9.59c1.51,4.79,5.68,5.67,9.5,4.34
		c4.07-1.41,8.1-1.3,11.91-0.78c10.18,1.37,20.33,1.72,30.53,0.95c7.52-0.57,14.53-2.2,19.9-8.35c1.82-2.09,1.49-3.69,1.01-5.75"/>
	<path class="st0" d="M1346.69,525.07c-0.97-3.44-2.23-6.82-3.21-10.22c-0.99-3.44-2.35-3.56-5.28-2.83
		c-8.97,2.25-11.62,5.23-13.06,15.89c-10.06-0.83-19.84,2.13-29.87,2.79c-5.99,0.39-8.6-3.35-5.59-8.42
		c3.93-6.62,10.58-9.85,17.47-12.42c7.63-2.84,15.58-4.04,23.72-3.39c3.52,0.28,7.3,0.44,9.04,4.48"/>
	<path class="st0" d="M1575.55,684.86c0.35,3.35-2.42,5.05-4,7.31c-5.55,7.96-2.6,19.48,6.3,21.88c5.2,1.4,11.02,2.59,16.28,1.1
		c5.3-1.5,10.68-1.15,15.92-1.72c9.34-1.02,17.81-4.29,26.52-7.11c-1.96,12.08-0.36,30.26,13.1,34.97
		c6.86,2.4,14.61,1.35,21.73,1.22c15.16-0.27,30.31-0.5,45.48-0.5c34.53,0,69.06,0,103.59,0c16.65,0,33.29,0,49.94,0
		c18.43,0,36.87,0,55.3,0c19.76,0,39.51,0,59.27,0c20.61,0,41.22,0,61.84,0c21,0,42,0,63,0c20.92,0,41.84,0,62.76,0
		c20.38,0,40.75,0,61.13,0c19.36,0,38.73,0,58.09,0c17.88,0,35.77,0,53.65,0c15.94,0,31.87,0,47.81,0c13.52,0,27.05,0,40.57,0
		c10.64,0,21.28,0,31.93,0c7.29,0,14.59,0,21.88,0c3.48,0,6.96,0,10.44,0c0.23,0,0.46,0,0.69,0c99.15,0.31,140.23-0.65,239.37,0.46
		c31.52,0.35,63.04,0.04,94.57,0.07c5.71,0.01,11.17-2.41,17.07-1.23c3.91,0.79,8.04,0.48,12.07,0.66"/>
	<path class="st0" d="M1406.59,298.07c0.83,2.87-1.28,4.35-2.79,6.24c-7.12,8.89-11.96,18.53-11.44,30.47
		c0.48,10.94,7.02,17.27,15.37,22.57c5.15,3.28,10.63,5.19,16.95,4.61c4.42-0.4,9.1-0.85,12.96,2.21c1.43,1.13,2.04,0.23,3.41-1.18
		c-2.96-4.08-8.33-5.99-10.78-10.69c-2.92-5.59-5.76-11.05-2.78-17.53c1.82-3.97,5.18-6.49,8.5-9.01c2.67-2.03,5.78-3.49,8.15-6.8
		c-7.56-3.06-15.34-3.64-22.81-0.99c-9.79,3.48-13.61,14.39-8.43,23.52c3.72,6.57,9.45,11.38,16.29,14.74
		c1.15,0.57,2.26,0.65,3.39-0.01"/>
	<path class="st0" d="M1445.58,286.78c-0.94,2.64-1.81,5.3-2.84,7.9c-1.15,2.89-1.01,5.4,1.86,7.44c2.92-1.88,5.73-4.28,8.97-5.55
		c1.87-0.74,4.09-2.64,6.81-0.29c2.82,2.43,2.75,5.46,2,7.97c-1.6,5.39-3.25,10.93-8,15.18c4.97,5.75,9.95,10.68,13.35,16.99
		c7.7,14.28-1.23,25.52-15.93,25.56c-3.56,0.01-7.24-1.26-10.74,0.47"/>
	<path class="st0" d="M1425.8,282.26c-10.62,6.94-11.19,16.76-7.84,27.65c-4.86,1.47-6.69,0.37-11.37-6.76"/>
	<path class="st0" d="M1428.06,277.75c-2.11,6.65-1.76,13.51-1.63,20.33c0.04,2.13,2.32,2.55,4.12,3.46
		c4.05-4.47,6.6-10.76,13.33-12.49"/>
	<path class="st0" d="M1262.49,391.81c-3.87,1.98-7.94-1.13-11.9,0.49c-0.94,0.38-2.15,0.09-2.81,1.32
		c-0.35,2.43,3.69,2.58,3.01,5.58c-0.18,0.77,1.87,2.52,3.2,2.13c4.76-1.4,9.1,0.43,13.59,1.22"/>
	<path class="st0" d="M1490.22,211.68c0.58,4.2,4.49,7.29,3.96,11.86"/>
	<path class="st0" d="M1439.36,365.27c0.73,2.64,4.3,3.21,4.52,6.21"/>
</g>
<line class="st0" x1="476.2" y1="742.02" x2="-68.12" y2="741.92"/>
</svg>
