<?xml version="1.0" encoding="utf-8"?>
<!-- Generator: Adobe Illustrator 25.2.0, SVG Export Plug-In . SVG Version: 6.00 Build 0)  -->
<svg version="1.1" id="Layer_1" xmlns="http://www.w3.org/2000/svg" xmlns:xlink="http://www.w3.org/1999/xlink" x="0px" y="0px"
	 viewBox="0 0 2560 1329" style="enable-background:new 0 0 2560 1329;" xml:space="preserve">
<style type="text/css">
	.st0{fill:none;stroke:#131313;stroke-width:2;stroke-linecap:round;stroke-linejoin:round;stroke-miterlimit:10;}
	.st1{fill:#131313;}
</style>
<path class="st0" d="M-0.31,741.97c-10.97-0.18-22.22,0.12-32.86-0.66c-16.05-1.19-30.91,1.23-46.45,1.23
	c-85.79-0.03-171.6,0.28-257.38-0.07c-269.85-1.11-381.65-0.15-651.51-0.46"/>
<g>
	<path class="st0" d="M1556.87,709.3c5.72-2.27,11.16-4.99,15.15-9.91c3.09-3.81,3.14-8.16,1.1-12.19
		c-6.25-12.34-12.37-24.95-26.17-30.86c-5.26-2.25-6.13-6.82-5.07-11.07c4.29-17.1,9.44-33.58,24.75-45.09
		c10.73-8.07,10.84-14.12,1.74-27.08c-10.37-14.78-24.91-24.49-41.77-31.08c-12.35-4.82-24.56-10.08-33.88-20.25
		c-10.07-10.99-13.74-23.74-12.94-38.49c0.54-9.96,3.19-19.43,4.65-29.14c2.37-15.69-2.26-29.54-14.44-40.12
		c-13.3-11.55-29.15-16.91-46.55-18.86c-7.62-0.86-15.45-1.42-22.76-4.46c-12.33-5.12-17.88-15.46-20.85-27.44
		c-2.13-8.59-3.78-17.39-4.66-26.2c-1.88-18.79-9.68-35-21.19-49.43c-13.11-16.43-28.97-29.65-48.87-37.32
		c-12.35-4.76-25.22-6.71-38.41-7.96c-7.21-0.69-14.38-1.12-21.59-1.42c-26.64-1.11-50.97,6.74-73.97,19.31
		c-13.46,7.35-23.13,18.88-30.13,32.09c-7.96,14.99-15.32,30.41-19.44,47.07c-2.32,9.38-3.15,18.97-4.06,28.55
		c-0.61,6.4-0.89,12.86-1.91,19.2c-0.34,2.14-0.06,3.38,1.32,4.68"/>
	<path class="st0" d="M1087.78,480.66c-2.41-0.24-2.84,1.39-2.9,3.2c-0.12,3.72-0.96,7.51-0.95,11.07
		c0.09,15.53-6.36,28.94-12.48,42.52c-6.32,14.04-13.22,27.82-16.39,43.09c-1.5,7.22,0.55,14.95,5.91,18.66
		c6.47,4.47,12.81,2.47,13.18-5.25c0.81-17.01,6.77-32.33,12.89-47.82c2.81-7.1,3.47-14.99,3.55-22.66
		c0.13-12.04,0.78-24.12-1-36.12c-0.31-2.09-0.64-4.05-1.81-5.82"/>
	<path class="st0" d="M1311.55,455.91c-0.17-4.83-2.11-9.31-3.18-13.92c-2.09-9.04-1.19-16.64,6.11-22.76
		c8.53-7.15,14.2-16,16.9-26.81c4.07-16.3,7.48-32.69,8.89-49.5c0.54-6.42,1.53-12.86,0.89-19.22
		c-1.35-13.33-2.91-26.56-10.24-38.54c-8.51-13.91-20.54-22.01-36.27-24.92c-10.25-1.9-20.53-1.76-30.89-0.13
		c-11.48,1.81-22.59,4.81-33.17,9.48c-12.04,5.31-23.51,11.68-32.67,21.48c-6.13,6.56-10.07,13.86-9.43,23.31
		c0.36,5.39,2.95,8.97,7.14,11.59c3.78,2.36,6.43-1.21,8.58-3.01c6.07-5.11,10.59-11.75,14.63-18.53
		c7.52-12.62,16.3-24.11,27.41-33.8c1.96-1.71,4.52-3.22,4.71-6.36"/>
	<path class="st0" d="M1531.23,722.7c3.77-8.08,6.47-9.91,15.12-8.54c2.34,0.37,4.3-0.36,6.44-0.33c4.31,0.05,8.5,2.98,8.72,7.13
		c0.63,11.83,1.26,10.46-9.94,14.4c-12.15,4.27-24.9,6.12-37.8,7.36c-10.51,1.02-21.07,2.33-31.53,4.2
		c-4.49,0.8-9.27,1.33-13.94,1.37c-15.54,0.11-31.11,0.68-46.61-0.12c-18.84-0.97-37.68-1.73-56.52-2.47
		c-8.34-0.33-16.76-0.08-25.06-0.98c-6.61-0.72-13.22-1.09-20.06-1.02c1.52-7.22,3.61-13.76,4.16-20.42
		c0.93-11.42,5.3-22.64,2.06-34.4c-0.67-2.42-2.11-3.34-3.43-4.74c-10.29,5.75-9.32,22.79,1.53,30.99"/>
	<path class="st0" d="M1389.05,651.05c1.68-7.25,6.73-12.62,11.23-17.92c10.68-12.61,22.69-23.98,35.97-33.92
		c1.55-1.16,3.23-2.2,4.64-3.52c6.62-6.23,6.88-6.44,1.72-14.51c-18.68-29.22-34.13-60.39-53.61-89.12
		c-11.43-16.86-25.37-30.75-45.97-36.2c-10.88-2.87-21.36-4.07-32.17,0.97c-3.96,1.85-9.4,1.41-13.26-2.12
		c-4.58-4.19-9-8.59-12.24-13.96c-1.2-1.98-2.84-3.38-4.46-4.75c-10.05,4.58-8.93,13.63-2.53,23.97c1.16,1.87,2.69,3.51,4.05,5.26"
		/>
	<path class="st0" d="M1562.12,718.62c0.59-0.96,1.58-0.7,2.32-0.55c12.05,2.47,24.11,4.92,36.13,7.56
		c21.54,4.73,48.23-6.49,70.3-5.21l82.62-0.01c18.13,0,36.17,2.63,53.55,7.82l0,0c30.63,9.15,62.43,13.8,94.4,13.82
		c236.01,0.15,350.07-0.63,603.26,0.41c85.78,0.35,171.59,0.04,257.38,0.07c15.55,0.01,30.4-2.41,46.45-1.23
		c10.64,0.79,21.88,0.48,32.86,0.66"/>
	<path class="st0" d="M949.09,546.78c6.87,26.05,17.79,50.56,28.52,75.16c5.46,12.51,13.44,23.57,19.77,35.56
		c1.75,3.31,4.73,6.45,2.55,11.09c-1.17,2.48-2.49,3.41-4.79,2.8c-6.73-1.77-13.02-3.57-18.86-8.45
		c-14.17-11.82-29.89-22.02-46.64-29.43c-10.29-4.56-20.12-11.21-32.39-11.88c-10.81-0.59-20.63,2.76-30.92,4.26
		c-10.88,1.59-19.16,6.77-25.01,15.86c-6.51,10.09-7.12,25.67,2.22,35.01c6.81,6.8,14.78,11.73,22.71,16.95
		c8.75,5.76,18.43,10.49,24.65,19.61c0.32,0.47,0.61,0.94,0.89,1.41c1.83,3.15-0.63,6.99-4.28,6.99c-0.26,0-0.51,0.01-0.77,0.03
		c-27.26,2.27-11.44,21.63-42.1,20.7l-50.69,0.23l-16.62-0.7c-10.97-0.18-22.22,0.12-32.86-0.66c-16.05-1.19-30.91,1.23-46.45,1.23
		c-85.79-0.03-171.6,0.28-257.38-0.07c-269.85-1.11-381.65-0.15-651.51-0.46"/>
	<path class="st0" d="M1119.25,398.82c3.78,4.08,2.11,9.51,2.56,14.02c1.97,19.53,8.99,37.39,16.11,55.29
		c4.34,10.92,8.88,21.72,15.64,31.51c11.82,17.11,29.96,22.11,50.17,15.09c11.08-3.85,20.74-10.25,30.34-16.84
		c11.9-8.16,23.66-16.7,36.29-23.58c5.24-2.86,12.26-6,19.09-1.59c1.77,1.14,3.9,1.13,6.37,1.06c8.46-0.25,17.32-0.57,25.03,4.28
		c3.46,2.17,4.66,7.44,2.29,10.43c-1.24,1.56-2.23,2.52-5.29,1.49c-9.23-3.12-17.35-7.49-23.8-14.84"/>
	<path class="st0" d="M956.09,542.12c6.55,10.86,10.75,22.78,15.79,34.34c8.55,19.61,18.08,38.79,25.57,58.86
		c1.59,4.26,3.5,8.44,4.59,12.83c3.12,12.57,10.86,19.81,23.33,23.47c11.43,3.36,22.35,8.42,32.1,15.55
		c1.22,0.89,2.45,1.82,3.48,2.92c2.87,3.07,4.38,6.56,1.73,10.44c-2.57,3.76-6.4,2.72-9.84,1.7c-2.64-0.78-5.07-2.27-7.6-3.41
		c-1.35-0.61-2.81-1.82-4.06-1.64c-6.73,0.97-9.26-3.91-12.25-8.26"/>
	<path class="st0" d="M1269.01,474.55c-2.62-4.56-7.68-2.72-11.12-3.12c-14.4-1.68-23.72-9.77-32.14-20.66
		c-10.98-14.2-18.37-29.96-21.77-47.33c-1.74-8.87-2.08-18.06-4.95-26.73c-3.22-9.75-7.91-18.75-15.12-26.21
		c-6.39-6.62-14.08-8.62-23.31-7.8c-7.79,0.7-14.64,2.84-20.98,7.16c-0.4,0.27-1.14,0.04-1.72,0.04"/>
	<path class="st0" d="M1236.38,243.29c-15.43,5.33-29.42,13.46-43.11,22.15c-26.63,16.91-43.49,41.29-52.21,71.12
		c-3.23,11.05-8.46,20.87-13.78,30.73c-4.51,8.35-4.7,17.96-9.1,26.33c-7.17,13.67-15.45,25.54-32.13,28.58
		c-9.5,1.73-19.1,2.71-28.61,4.32c-11.36,1.92-20.78,7.02-29.66,13.68c-14.67,11-25.22,25.76-36.17,40.15
		c-13.14,17.26-26.15,34.63-40.77,50.69"/>
	<path class="st0" d="M1369.24,681.92c0.44-3.91-3.06-4.93-5.3-5.66c-7.43-2.39-15-4.95-22.69-5.81
		c-16.54-1.85-32.42-6.42-48.3-10.83c-12.89-3.58-25.97-6.66-39.12-7.51c-8.15-0.53-15.35-2.5-22.69-5.15
		c-10.94-3.95-21.6-3.22-32.05,1.75c-6.63,3.15-13.4,5.7-20.98,5.32c-1.92-0.1-3.87,0.75-5.83,1.08c-2.95,0.5-2.8,2.96-2.2,4.62
		c0.9,2.49,1.72,5.3,3.97,7.01c6.9,5.21,14.11,8.79,23.26,9.63c16.21,1.49,32.27,1.01,48.39-0.28"/>
	<path class="st0" d="M1084.29,465.23c-3.5-3.88-7.02-7.75-10.48-11.66c-4.36-4.91-10.41-6.6-16.36-7.98
		c-3.25-0.75-6.82,0.88-8.65,3.94c-12.65,21.16-33.15,34.85-49.64,52.34c-7.06,7.49-14.59,14.54-22.13,21.56
		c-5.64,5.25-11.5,10.28-17.5,15.12c-2.5,2.02-5.86,3.09-8.62,0.58c-3.07-2.79-5.56-1.29-7.59,0.71
		c-20.34,20.07-42.41,38.35-61.78,59.4c-5.8,6.31-12.6,11.47-18.73,17.4c-3.1,3-7.3,5.16-6.37,10.52"/>
	<path class="st0" d="M1214.23,729.1c-11.65-4.85-23.47-9.37-34.89-14.73c-4.72-2.22-9.44-0.83-14.14-1.77
		c-5.75-1.16-11.89-1.73-17.99-1.69c-10.68,0.08-21.36-0.8-32.05-0.99c-11.47-0.21-22.9,2.06-34.37,1.05
		c-8.19-0.73-16.31-1.49-24.5-0.01c-1.62,0.29-3.23,0.37-4.64,1.26c-4.93,3.12-8.89,2.52-11.66-2.92"/>
	<path class="st0" d="M924.04,632.99c0.02,1.12,0.1,2,1.11,2.97c11.12,10.63,20.21,23.27,32.65,32.62c3.22,2.42,1.76,4.42-1.09,6.42
		c-6.35,4.47-12.73,8.96-18.61,14.01c-5.14,4.41-10.25,9.14-12.86,15.65c-5.02,12.48-0.17,23.32,12.76,29.75
		c5.03,2.5,10.39,3.4,15.77,3.93c8.31,0.82,16.63,2.25,24.53,1.79c1.71-2.79-1.75-4.63-0.07-6.94"/>
	<path class="st0" d="M1388.47,679.3c1.48-8.25,6.55-14.76,11.81-20.54c17.25-19,35.49-37.01,56.95-51.4
		c4.29-2.88,8.53-5.84,12.78-8.75c2.07,0.92,2.33,2.72,3.17,4.58c2.16,4.79,5.12,9.2,9.08,12.95
		c24.15,22.88,44.13,49.29,64.15,75.67c3.45,4.55,5.97,9.62,8.85,14.5c1.53,2.59,1.07,4.67,0.45,7.07"/>
	<path class="st0" d="M1345.93,559.59c1,13.99,1.22,28.04,3.4,41.96c0.99,6.31,1.15,12.8,1.15,19.21c0,3.06,1.21,5.8,1.25,8.74
		c0.15,9.82-2.66,19.01-6.39,27.95c-1.25,3-2.4,6.01-2.31,9.33"/>
	<path class="st0" d="M1408.28,679.59c-0.44,3.12-3.01,4.77-5.29,5.71c-15.1,6.24-28.49,15.66-43.08,22.83
		c-9.12,4.48-18.24,8.97-27.4,13.38c-2.19,1.06-4.53,1.84-6.98,0.61"/>
	<path class="st0" d="M951.42,540.37c-1.77,4.18-4.79,6.92-8.66,9.45c-12.14,7.94-22.09,18.34-30.3,30.22
		c-6.57,9.51-15.48,16.81-22.81,25.57c-0.97,1.16-1.91,2.36-2.92,3.49c-2.88,3.21-4.12,6.06,1.14,8.24c1.03,0.42,2.4,1.22,2.36,2.84
		"/>
	<path class="st0" d="M1035.92,697.65c-0.28,3.99,5.34,6.23,3.14,10.8c-1.82,0.69-3.78,0.99-5.45-0.34
		c-4.1-3.26-8.87-6.05-10.97-11.1c-1.03-2.48-2.92-3.75-4.8-3.89c-8.97-0.69-16.27-6.48-25.02-7.9c-2.12-0.35-4.3-1.23-6.43-0.88
		c-2.14,0.36-4.87-1.81-6.39,1.09c-1.81,3.45-0.03,6.76,1.83,9.21c4.83,6.37,12.29,9.29,19.15,12.83c4.44,2.29,8.95,4.48,12.72,7.72
		c3.04,2.61,5.03,6.04,3.56,10.41c-1.53,4.53-5.2,4.87-9.3,5.39c-4.78,0.6-8.76-2.25-13.43-2.17c-1.52,0.02-3.8-2.96-4.54-5.01
		c-4.77-13.15-14.96-21.33-25.71-29.14c-1.67-1.21-3.22-1.82-4.64-0.46c-1.27,1.22-0.75,2.93-0.12,4.61
		c2.43,6.43,7.65,10.57,12.35,15.06c3.38,3.23,7.14,6.18,11.1,8.66c1.65,1.03,3.83,2.87,6.32,1.3"/>
	<path class="st0" d="M1115.75,400.57c1.86,8.42-0.87,15.53-7.65,20.28c-13.16,9.2-18.26,22.23-21.23,37.33
		c-1.51,7.67-1.41,14.79-0.25,22.2"/>
	<path class="st0" d="M1412.94,646.97c2.86,1.76,6.01,2.39,9.32,2.33c4.02-0.08,5.59,1.87,5.27,5.83
		c-1.03,13-8.85,23.63-22.75,23.43c-17.17-0.25-33.96,3.4-50.67,6.96c-2.88,0.61-5.46,2.61-8.18,3.97"/>
	<path class="st0" d="M1312.13,457.65c4.08,2.58,3.83,7.85,6.92,11.13c1.56,1.66,2.48,3.76,5.32,3.47c1.93-0.2,2.9-1,2.91-2.95
		c0.01-2.6,0.63-5.52-2.36-6.94c-2.72-1.29-5.52-2.95-8.72-1.21"/>
	<path class="st0" d="M1447.32,674.35c-6.71,2.89-13.78,4.53-20.99,5.12c-3.82,0.31-7.95,3.47-11.64-0.46"/>
	<path class="st0" d="M1451.98,674.35c-6.4-3.77-13.47-2.71-20.39-2.98c-2.98-0.12-5.68,2.72-8.74,0.65"/>
	<path class="st0" d="M1185.1,675.51c-3.09,2.55-7.46,2.25-10.57,5.15c-4.2,3.92-4.61,6.5-0.5,10.58c1.75,1.74,3.5,3.49,5.25,5.24"
		/>
	<path class="st0" d="M1353.5,637.65c2.53,2.16,1.68,5.54,2.93,8.15c2.38,4.99,4.76,10,8.75,13.97c1.49,1.49,2.7,2.99,2.31,5.26"/>
	<path class="st0" d="M1195.59,702.31c6.19,6.15,14.82,8.06,20.99,4.68c0.22-0.12,0.57-0.02,0.87-0.02c-0.1-0.1-0.19-0.19-0.29-0.29
		c-3.2-4.44-8.46-4.06-12.85-4.75c-7.62-1.19-15.36-1.45-22.71-4.23c-4-1.51-7.58,0.89-10.99,2.41c-2.38,1.06-1.68,3.82-0.57,5.65
		c1.5,2.48,4.87,3.62,5.18,7.03"/>
	<path class="st0" d="M993.96,729.69c-1.4,4.6-4.47,5-8.76,4.18c-7.28-1.4-12.45-4.55-16-11.61c-2.15-4.27-6.92-7.36-10.86-10.54
		c-2.03-1.64-4.76-3.32-8.15-0.18c5.55,5.92,10.61,12.12,19.3,13.48"/>
	<path class="st0" d="M999.79,672.02c5.4,5.48,11.16,10.65,15.7,16.91c0.57,0.78,1.98,1.61,0.61,2.89"/>
	<path class="st0" d="M1348.26,655.12c3.97,1.09,7.08,3.71,10.51,5.8c7.05,4.3,14.4,8.11,20.46,13.92c1.2,1.15,2.49,2.17,3.41,3.58"
		/>
	<path class="st0" d="M1406.53,649.88c-7.04-1.29-13.43,1.06-19.81,3.5"/>
	<path class="st0" d="M1299.89,457.07c-4.04,4.28-10.32,4.8-14.57,8.74"/>
	<path class="st0" d="M1265.51,243.87c-0.92,6.02-5.93,10.06-7.58,15.73"/>
	<path class="st0" d="M1333.11,686c7.17-0.1,13.07,1.49,14.65,9.89c0.52,2.79,3.33,4.93,2.84,8.17"/>
	<path class="st0" d="M1031.84,694.15c-2.83,2.07-6.6-0.9-9.32,1.75"/>
</g>
</svg>
