<?xml version="1.0" encoding="utf-8"?>
<!-- Generator: Adobe Illustrator 25.2.0, SVG Export Plug-In . SVG Version: 6.00 Build 0)  -->
<svg version="1.1" id="Layer_1" xmlns="http://www.w3.org/2000/svg" xmlns:xlink="http://www.w3.org/1999/xlink" x="0px" y="0px"
	 viewBox="0 0 2560 1329" style="enable-background:new 0 0 2560 1329;" xml:space="preserve">
<style type="text/css">
	.st0{fill:none;stroke:#131313;stroke-width:2;stroke-linecap:round;stroke-linejoin:round;stroke-miterlimit:10;}
	.st1{fill:#131313;}
</style>
<path class="st0" d="M1397.72,741.97c4.03-0.18,8.16,0.12,12.07-0.66c5.9-1.19,11.36,1.23,17.07,1.23
	c31.52-0.03,63.05,0.28,94.57-0.07c99.15-1.11,140.23-0.15,239.37-0.46H2560"/>
<path class="st0" d="M1283.36,433.08c1.43,3.14,4.57,4.68,7.23,5.87c6.06,2.7,8.05,7.99,9.11,13.4c1.63,8.31,1.26,16.74,0.39,25.27
	c-0.81,7.96-1.02,16.17,0.87,24.16c1.15,4.87,4.42,8.05,8.22,11.03c15.65,12.27,30.97,24.94,44.57,39.53
	c7.09,7.6,12.99,16.11,18.63,24.78c2.43,3.74,3.07,8.29,2.18,12.58c-3.02,14.56,0.44,28.44,3.94,42.34
	c3.41,13.55,6.25,27.19,6.56,41.22c0.06,2.74-0.34,5.5-0.51,8.24c-0.53,8.28,0.55,16.5,1.1,24.73"/>
<path class="st0" d="M1221.24,469.36c0.48,6.08-3.19,11.15-4.25,16.96c-1.13,6.22-1.32,12.56,1.77,16.93
	c12.56,17.78,7.73,34.63-1.47,51.24c-8.03,14.49-19.23,26.79-29.57,39.64c-2.13,2.65-4.23,5.37-6.01,8.27
	c-1.31,2.13-3.38,4.67-0.57,7.06c2.36,2.01,4.93,1.51,7.69,0.12c4.08-2.05,7.71-4.59,10.97-7.76c15.4-14.94,27.19-32.72,39.57-50.03
	c5.35-7.48,10.63-15.02,15.95-22.53c2.13-2.99,4.6-4.42,8.26-2.23c4.11,2.46,6.98,1.13,9.99-2.63c6.01-7.52,8.78-16.35,9.55-25.39
	c1.06-12.48,0.14-24.85-5-36.91c-3.88-9.1-10.65-11.43-18.95-11.89c-6.87-0.38-13.9-0.92-20.37,2.59c-0.49,0.27-1.43-0.31-2.17-0.49
	"/>
<path class="st0" d="M1169,604.02c-1.06-6.03-2.98-11.82-4.96-17.58c-1.37-3.99-5.09-5.81-8.3-7.59
	c-15.55-8.66-32.29-11.15-49.98-9.59c-11.48,1.02-22.9,2.71-34.67,0.97c-8.75-1.29-11.22-6.68-13.12-13.49
	c-1.27-4.53-2-9.22-3.38-13.72c-2.23-7.24-9.48-9.94-17.53-6.58c-4.8,2.01-9.03,4.92-12.69,8.73c-5.9,6.15-12.29,11.15-20.76,14.07
	c-7.89,2.72-15.05,7.76-20.99,14c-4.84,5.08-5.1,7.55-1.66,13.73"/>
<path class="st0" d="M1316.9,224.23c4.77,0.4,7.27-1.52,6.55-5.49c-1.48-8.13-7.19-12.73-14.25-15.93
	c-14.73-6.69-29.13-4.01-43.44,1.62c-9.46,3.72-17.37,9.76-24.69,16.55c-9.55,8.86-20.83,7.43-29.36-1.33
	c-4.64,3.55-7.21,8.75-8.39,13.98c-1.51,6.68-0.36,13.37,6.37,17.54c5.12,3.18,7.46,8.2,8.77,13.75c2.62,11.1,9.9,15.16,20.93,11.55
	c4.19-1.37,8.38-2.77,12.66-3.77c1.7-0.39,4.23-0.41,5.38,0.57c5.54,4.77,10.61,2.54,15.46-0.72c5.92-3.99,10-9.13,8.31-16.99
	c-0.19-0.88,0.18-1.89-0.06-2.73c-2.37-8.3-1.81-7.55,6.63-9.35c0.83-0.18,1.65-0.37,2.2-0.49c0-3.36-0.47-6.74,0.1-9.94
	c0.99-5.55,6.05-6.08,10.36-7.1c3.27-0.77,6.5-1.55,9.31-3.38c3.16-2.06,2.69-4.82,1.12-7.67c-2.75-4.98-7.78-6.96-12.67-7.52
	c-14.17-1.61-31.85,2.91-40.66,16.87c-6.09,9.65-5.99,19.74-1,29.62c2.66,5.27,5.99,10.38,9.89,14.8
	c6.94,7.86,5.33,15.27,0.52,23.23c-1.89,3.13-4.85,5.73-5.17,9.84c-0.07,0.94-1.44,2.28-3.16,2.23c-3.3-0.09-6.6-0.02-9.9-0.02"/>
<path class="st0" d="M1268.52,287.43c-9.15-1.72-17.8,3.89-20.21,13.77c-0.91,3.73-2.58,4.97-6.11,6.21
	c-6.96,2.45-13.22,6.6-19.29,10.82c-9.62,6.69-20.69,10.86-29.83,18.51c-9,7.53-10.29,19.43-2.17,28.27
	c3.36,3.65,6.64,7.42,10.6,10.27c9.18,6.59,15.29,15.66,21.38,24.82c3.33,5.02,6.52,10.15,11.55,13.74
	c0.75,0.53,1.43,1.15,2.21,1.64c6.07,3.83,10.76,1.55,11.56-5.48c0.7-6.13-0.29-12.28-1.39-18.09c-2.14-11.33-3.42-22.72-3.98-34.13
	c-0.63-12.8-0.85-25.67,0.88-38.47c0.51-3.82,2.36-7.54,1.16-11.53"/>
<path class="st0" d="M1258.62,304.47c-2.51,11.51-1.47,23-0.77,34.64c0.9,14.87,3.74,29.56,3.57,44.51c-0.07,5.86,0.8,11.69,0,17.59
	c-1.43,10.59,4.02,18.13,11.43,24.79c1.5,1.35,4,2.16,3.91,4.88"/>
<path class="st0" d="M1421.92,351.46c-0.73,0.46-2.09,0.89-2.1,1.38c-0.23,5.78-3.99,7.32-8.88,8.31
	c-14.64,2.95-25.96,11.96-37.45,20.76c-12,9.19-24.28,18.02-37.87,24.83c-4.25,2.12-8.68,3.93-13.24,4.77
	c-6.57,1.21-11.97-1.12-16.05-6.91c-1.81-2.56-2.74-6.26-6.46-7.24"/>
<path class="st0" d="M1300.96,276.99c-1.47,5.13-3.21,10.2-4.32,15.41c-1.13,5.25,0.83,8.55,6.55,11.47
	c4.45,2.27,9.2,3.96,13.7,6.13c5.92,2.85,8.64,7.58,9.5,14.24c1.98,15.42,1.56,30.78,0.45,46.19c-0.09,1.26,0.33,2.56,0.51,3.84"/>
<path class="st0" d="M1270.17,287.43c4.65,1.6,8.84,4.03,12.06,7.72c10.08,11.54,21.35,22.03,30.35,34.54
	c2.19,3.04,4.1,6.21,5.92,9.43c5.39,9.48,1.1,15.83-5.02,22.4c-6,6.44-11.63,13.05-16.38,20.45"/>
<path class="st0" d="M1261.92,302.82c13.31,3.76,17.17,15.07,20.21,26.42c3.85,14.33,6.52,28.96,10.12,43.36
	c1.84,7.36,5.25,14.36,5.9,22.01c0.64,7.5,3.21,15.01,1.54,22.49c-1.17,5.27-4.48,9.3-9.62,12.32c-6.19,3.64-12.63,3.13-18.78,2.33
	c-9.82-1.28-17.35,1.49-24.96,7.69c-6.12,4.99-9.05,12.19-14.68,17.24c-5.02,4.5-9.05,9.83-14.57,14.09
	c-10.37,8.02-12.17,20.09-10.03,32.64c0.15,0.9,0.25,1.85,0.44,2.77c0.73,3.48,3,7.67,1.8,10.26c-1.46,3.15-5.95,4.81-8.93,7.35
	c-16.45,13.99-28.9,30.75-35.16,51.66c-0.79,2.63-1.12,5.39-2.8,7.68"/>
<path class="st0" d="M1420.82,356.14c1.21,1.41,2.5,2.46,4.4,1.1c2.56-1.82,5.52-8.9,4.33-11.51c-2.03-4.43-3.72-9.16-9.81-10.01
	c-7.74-1.07-13.69,1.24-16.98,8.36c-3.12,6.78-8.56,10.59-14.91,13.74c-13.51,6.7-27.57,11.8-42.36,14.76
	c-4.52,0.9-9.06,1.86-13.74,1.71c-4.47-0.14-6.79,1.52-6.73,6.58c0.05,4.68-1.04,9.38-4.11,13.37c-6.16-7.75-4.54-14.72,3.7-16.67"
	/>
<path class="st0" d="M1372.98,716.69c2.02-1.83,4.02-3.68,6.05-5.49c5.46-4.9,11.73-5.8,18.08-1.56c8.44,5.64,17.59,8.27,27.54,7.47
	c4.58-0.37,9.13-1.12,13.76-0.97c5.83,0.19,8.42,4.39,5.45,9.31c-3.46,5.74-9.21,8.42-15.33,10.51c-3.25,1.11-6.91,1.49-9.36,4.36"
	/>
<path class="st0" d="M1045.3,572.14c-0.78-1.58-1.47-3.03-0.65-4.99c0.46-1.11,0.55-2.76-0.97-3.84c-1.76-1.26-3.24-0.16-4.38,0.65
	c-5.65,4.01-9.93,9.26-13.26,15.32c-0.76,1.38-1.72,2.64-2.99,4.55c-7.44-7.48-14.68-2.77-21.67,0.54c-3.28,1.56-6.59,3.1-10.01,4.1
	c-2.02,0.59-4.86,1.09-6.55-1.49"/>
<path class="st0" d="M1319.65,225.87c0,0.92,0.04,1.83-0.01,2.75c-0.27,6.04,2.08,14.36,5.41,20.39c0.5,0.91,1.49,2.54,0.09,3.79
	c-4.8,4.3-4,10.56-5.38,15.97c-2.96,11.58-7.42,13.79-17.74,8.28c-2.21-1.18-2.68-3.28-3.75-5.05c-0.97-1.6-1.91-2.89-3.91-2.98"/>
<path class="st1" d="M378.5,741.58c-50.66,0.06-103.04,0.11-154.55-0.12c-149.94-0.68-244.69-0.58-354.4-0.48
	c-70.06,0.07-142.51,0.14-237.9,0.02c-0.55-0.03-1,0.45-1,1s0.45,1,1,1c95.4,0.12,167.84,0.05,237.91-0.02
	c109.71-0.11,204.46-0.2,354.39,0.48c28.58,0.13,57.42,0.17,86.09,0.17c23.01,0,45.91-0.03,68.47-0.05
	c18.17-0.02,36.34-0.03,54.51-0.03v-2C414.84,741.56,396.67,741.56,378.5,741.58z"/>
<path class="st1" d="M1050.91,548.87c-1.35-4.98-2.91-7.46-5.2-8.31c-2.28-0.84-5.1,0.03-9.16,2.81
	c-5.87,4.02-11.35,8.74-16.66,13.31l-0.51,0.44c-10.33,8.88-22.67,19.17-35.93,28.09c-14.11,9.49-19.93,26.01-25.56,41.99
	c-6.44,18.29-12.53,35.56-30.12,42.11c-0.13,0.05-0.25,0.12-0.34,0.22c-0.18,0.18-19.24,17.68-87.54,22.83
	c-30.54,2.3-60.29,9.12-88.42,20.25l-14.33,5.67c-36.4,14.4-74.7,21.83-113.84,22.09l-93.24,0.61c-3.1-0.06-6.26-0.07-9.33-0.08
	c-6.81-0.02-13.84-0.04-20.48-0.58c-8.81-0.72-17.33-0.12-25.56,0.45c-5.45,0.38-11.09,0.77-16.71,0.77c-0.01,0-0.03,0-0.04,0
	c-7.64,0-15.28,0.01-22.92,0.01v2c7.64,0,15.28-0.02,22.92-0.01c0.01,0,0.03,0,0.04,0c5.69,0,11.36-0.4,16.85-0.78
	c8.16-0.57,16.6-1.16,25.26-0.45c6.72,0.55,13.8,0.57,20.64,0.59c3.06,0.01,6.21,0.02,9.32,0.08l93.27-0.61
	c39.39-0.26,77.94-7.74,114.56-22.23l14.33-5.67c27.94-11.06,57.49-17.82,87.83-20.11c66.67-5.03,86.56-21.38,88.62-23.24
	c18.33-6.93,24.83-25.4,31.12-43.25c5.52-15.67,11.23-31.88,24.79-40.99c13.35-8.98,25.75-19.31,36.12-28.23l0.51-0.44
	c5.27-4.53,10.71-9.22,16.49-13.17c3.42-2.34,5.76-3.17,7.34-2.58c1.59,0.58,2.81,2.73,3.96,6.95c1.02,3.77,0.59,8.19,0.17,12.47
	c-0.1,1.03-0.2,2.05-0.28,3.06c-0.23,2.82-1.68,4.9-3.22,7.1c-1.13,1.62-2.3,3.29-2.96,5.29c-0.17,0.52,0.11,1.09,0.64,1.26
	c0.52,0.17,1.09-0.11,1.26-0.64c0.57-1.72,1.6-3.2,2.7-4.77c1.62-2.32,3.3-4.73,3.57-8.09c0.08-1,0.18-2.01,0.28-3.02
	C1051.58,557.61,1052.03,553,1050.91,548.87z"/>
<path class="st1" d="M433.01,741.55v2c0.67,0,1.33,0,2,0v-2C434.34,741.55,433.68,741.55,433.01,741.55z"/>
</svg>
